{
.appVersion = "3091";
DisplayStrings = (

glyphs = (
{
glyphname = A;
lastChange = "2021-08-26 16:40:38 +0000";
layers = (
{
anchors = (
{
name = bottom;
position = "{757, 0}";
},
{
name = ogonek;
position = "{1424, 0}";
},
{
name = top;
position = "{757, 1400}";
}
);
hints = (
{
horizontal = 1;
origin = "{0, 0}";
target = up;
type = BottomGhost;
},
{
horizontal = 1;
origin = "{0, 2}";
target = "{1, 2}";
type = Stem;
},
{
horizontal = 1;
origin = "{0, 7}";
target = down;
type = TopGhost;
}
);
layerId = "10BC12B3-5274-42E3-B5BC-F74F362F0DF4";
paths = (
{
closed = 1;
nodes = (
"80 0 LINE",
"398 0 LINE",
"478 220 LINE",
"1036 220 LINE",
"1116 0 LINE",
"1434 0 LINE",
"926 1400 LINE",
"588 1400 LINE"
);
},
{
closed = 1;
nodes = (
"756 984 LINE",
"926 520 LINE",
"588 520 LINE"
);
}
);
width = 1514;
},
{
anchors = (
{
name = bottom;
position = "{636, 0}";
},
{
name = ogonek;
position = "{1192, 0}";
},
{
name = top;
position = "{636, 1400}";
}
);
hints = (
{
horizontal = 1;
origin = "{0, 0}";
target = up;
type = BottomGhost;
},
{
horizontal = 1;
origin = "{0, 2}";
target = "{1, 2}";
type = Stem;
},
{
horizontal = 1;
origin = "{0, 7}";
target = "{1, 0}";
type = Stem;
}
);
layerId = "9AF1F7D9-E035-453E-B2A8-46DE370997D0";
paths = (
{
closed = 1;
nodes = (
"80 0 LINE",
"144 0 LINE",
"268 340 LINE",
"1004 340 LINE",
"1128 0 LINE",
"1192 0 LINE",
"682 1400 LINE",
"590 1400 LINE"
);
},
{
closed = 1;
nodes = (
"636 1350 LINE",
"982 400 LINE",
"290 400 LINE"
);
}
);
width = 1272;
}
);
leftKerningGroup = A;
rightKerningGroup = A;
unicode = 0041;
},
{
glyphname = AE;
lastChange = "2021-08-26 03:05:31 +0000";
layers = (
{
anchors = (
{
name = bottom;
position = "{855, 0}";
},
{
name = top;
position = "{1099, 1400}";
}
);
hints = (
{
horizontal = 1;
origin = "{0, 15}";
target = "{0, 6}";
type = Stem;
},
{
horizontal = 1;
origin = "{0, 7}";
target = "{0, 10}";
type = Stem;
},
{
horizontal = 1;
origin = "{0, 14}";
target = "{1, 0}";
type = Stem;
},
{
horizontal = 1;
origin = "{0, 1}";
target = "{1, 3}";
type = Stem;
},
{
origin = "{0, 3}";
target = "{0, 6}";
type = Stem;
}
);
layerId = "10BC12B3-5274-42E3-B5BC-F74F362F0DF4";
paths = (
{
closed = 1;
nodes = (
"398 0 LINE",
"478 220 LINE",
"858 220 LINE",
"858 0 LINE",
"1610 0 LINE",
"1610 300 LINE",
"1158 300 LINE",
"1158 550 LINE",
"1514 550 LINE",
"1514 850 LINE",
"1158 850 LINE",
"1158 1100 LINE",
"1610 1100 LINE",
"1610 1400 LINE",
"588 1400 LINE",
"80 0 LINE"
);
},
{
closed = 1;
nodes = (
"798 1100 LINE",
"858 1100 LINE",
"858 520 LINE",
"588 520 LINE"
);
}
);
width = 1710;
},
{
anchors = (
{
name = bottom;
position = "{787, 0}";
},
{
name = top;
position = "{1032, 1400}";
}
);
hints = (
{
horizontal = 1;
origin = "{0, 15}";
target = "{0, 6}";
type = Stem;
},
{
horizontal = 1;
origin = "{0, 1}";
target = "{1, 3}";
type = Stem;
},
{
horizontal = 1;
origin = "{0, 7}";
target = "{0, 10}";
type = Stem;
},
{
horizontal = 1;
origin = "{0, 14}";
target = "{1, 0}";
type = Stem;
},
{
origin = "{0, 3}";
target = "{0, 6}";
type = Stem;
}
);
layerId = "9AF1F7D9-E035-453E-B2A8-46DE370997D0";
paths = (
{
closed = 1;
nodes = (
"144 0 LINE",
"268 340 LINE",
"782 340 LINE",
"782 0 LINE",
"1474 0 LINE",
"1474 60 LINE",
"842 60 LINE",
"842 670 LINE",
"1378 670 LINE",
"1378 730 LINE",
"842 730 LINE",
"842 1340 LINE",
"1474 1340 LINE",
"1474 1400 LINE",
"590 1400 LINE",
"80 0 LINE"
);
},
{
closed = 1;
nodes = (
"634 1340 LINE",
"782 1340 LINE",
"782 400 LINE",
"290 400 LINE"
);
}
);
width = 1574;
}
);
leftKerningGroup = A;
leftMetricsKey = A;
rightKerningGroup = E;
rightMetricsKey = E;
unicode = 00C6;
},
{
glyphname = B;
lastChange = "2021-08-26 03:05:31 +0000";
layers = (
{
anchors = (
{
name = bottom;
position = "{603, 0}";
},
{
name = top;
position = "{603, 1400}";
}
);
hints = (
{
horizontal = 1;
origin = "{0, 14}";
target = "{1, 8}";
type = Stem;
},
{
horizontal = 1;
origin = "{1, 0}";
target = "{2, 8}";
type = Stem;
},
{
horizontal = 1;
origin = "{0, 13}";
target = "{2, 0}";
type = Stem;
},
{
origin = "{0, 14}";
target = "{1, 8}";
type = Stem;
},
{
origin = "{2, 4}";
target = "{0, 9}";
type = Stem;
},
{
origin = "{1, 4}";
target = "{0, 3}";
type = Stem;
}
);
layerId = "10BC12B3-5274-42E3-B5BC-F74F362F0DF4";
paths = (
{
closed = 1;
nodes = (
"704 0 LINE SMOOTH",
"936 0 OFFCURVE",
"1126 170 OFFCURVE",
"1126 382 CURVE SMOOTH",
"1126 506 OFFCURVE",
"1108 721 OFFCURVE",
"930 765 CURVE",
"1034 813 OFFCURVE",
"1060 926 OFFCURVE",
"1060 1014 CURVE SMOOTH",
"1060 1248 OFFCURVE",
"880 1400 OFFCURVE",
"650 1400 CURVE SMOOTH",
"120 1400 LINE",
"120 0 LINE"
);
},
{
closed = 1;
nodes = (
"420 625 LINE",
"672 625 LINE SMOOTH",
"776 625 OFFCURVE",
"860 536 OFFCURVE",
"860 444 CURVE SMOOTH",
"860 334 OFFCURVE",
"776 254 OFFCURVE",
"672 254 CURVE SMOOTH",
"420 254 LINE"
);
},
{
closed = 1;
nodes = (
"420 1144 LINE",
"614 1144 LINE SMOOTH",
"694 1144 OFFCURVE",
"760 1098 OFFCURVE",
"760 1016 CURVE SMOOTH",
"760 934 OFFCURVE",
"694 875 OFFCURVE",
"614 875 CURVE SMOOTH",
"420 875 LINE"
);
}
);
width = 1206;
},
{
anchors = (
{
name = bottom;
position = "{535, 0}";
},
{
name = top;
position = "{535, 1400}";
}
);
hints = (
{
horizontal = 1;
origin = "{0, 14}";
target = "{1, 8}";
type = Stem;
},
{
horizontal = 1;
origin = "{1, 0}";
target = "{2, 8}";
type = Stem;
},
{
horizontal = 1;
origin = "{2, 0}";
target = "{0, 13}";
type = Stem;
},
{
origin = "{0, 14}";
target = "{1, 8}";
type = Stem;
},
{
origin = "{1, 4}";
target = "{0, 3}";
type = Stem;
},
{
origin = "{2, 4}";
target = "{0, 9}";
type = Stem;
}
);
layerId = "9AF1F7D9-E035-453E-B2A8-46DE370997D0";
paths = (
{
closed = 1;
nodes = (
"630 0 LINE SMOOTH",
"828 0 OFFCURVE",
"990 152 OFFCURVE",
"990 402 CURVE SMOOTH",
"990 566 OFFCURVE",
"892 731 OFFCURVE",
"732 776 CURVE",
"808 788 OFFCURVE",
"912 913 OFFCURVE",
"912 1061 CURVE SMOOTH",
"912 1283 OFFCURVE",
"756 1400 OFFCURVE",
"564 1400 CURVE SMOOTH",
"120 1400 LINE",
"120 0 LINE"
);
},
{
closed = 1;
nodes = (
"180 740 LINE",
"630 740 LINE SMOOTH",
"796 740 OFFCURVE",
"930 578 OFFCURVE",
"930 402 CURVE SMOOTH",
"930 206 OFFCURVE",
"796 60 OFFCURVE",
"630 60 CURVE SMOOTH",
"180 60 LINE"
);
},
{
closed = 1;
nodes = (
"180 1340 LINE",
"564 1340 LINE SMOOTH",
"722 1340 OFFCURVE",
"852 1251 OFFCURVE",
"852 1061 CURVE SMOOTH",
"852 891 OFFCURVE",
"722 800 OFFCURVE",
"564 800 CURVE SMOOTH",
"180 800 LINE"
);
}
);
width = 1070;
}
);
leftKerningGroup = H;
leftMetricsKey = H;
rightKerningGroup = B;
unicode = 0042;
},
{
glyphname = C;
lastChange = "2021-08-26 03:05:31 +0000";
layers = (
{
anchors = (
{
name = bottom;
position = "{768, 0}";
},
{
name = top;
position = "{768, 1400}";
}
);
hints = (
{
horizontal = 1;
origin = "{0, 25}";
target = "{0, 6}";
type = Stem;
},
{
horizontal = 1;
origin = "{0, 19}";
target = "{0, 12}";
type = Stem;
},
{
origin = "{0, 22}";
target = "{0, 9}";
type = Stem;
}
);
layerId = "10BC12B3-5274-42E3-B5BC-F74F362F0DF4";
paths = (
{
closed = 1;
nodes = (
"994 -26 OFFCURVE",
"1192 88 OFFCURVE",
"1318 262 CURVE",
"1050 408 LINE",
"980 326 OFFCURVE",
"880 274 OFFCURVE",
"768 274 CURVE SMOOTH",
"554 274 OFFCURVE",
"380 466 OFFCURVE",
"380 700 CURVE SMOOTH",
"380 936 OFFCURVE",
"554 1126 OFFCURVE",
"768 1126 CURVE SMOOTH",
"880 1126 OFFCURVE",
"980 1074 OFFCURVE",
"1050 994 CURVE",
"1318 1138 LINE",
"1192 1312 OFFCURVE",
"994 1426 OFFCURVE",
"768 1426 CURVE SMOOTH",
"388 1426 OFFCURVE",
"80 1102 OFFCURVE",
"80 700 CURVE SMOOTH",
"80 300 OFFCURVE",
"388 -26 OFFCURVE",
"768 -26 CURVE SMOOTH"
);
}
);
width = 1418;
},
{
anchors = (
{
name = bottom;
position = "{768, 0}";
},
{
name = top;
position = "{768, 1400}";
}
);
hints = (
{
horizontal = 1;
origin = "{0, 25}";
target = "{0, 6}";
type = Stem;
},
{
horizontal = 1;
origin = "{0, 19}";
target = "{0, 12}";
type = Stem;
},
{
origin = "{0, 22}";
target = "{0, 9}";
type = Stem;
}
);
layerId = "9AF1F7D9-E035-453E-B2A8-46DE370997D0";
paths = (
{
closed = 1;
nodes = (
"994 -26 OFFCURVE",
"1192 86 OFFCURVE",
"1318 262 CURVE",
"1266 290 LINE",
"1156 138 OFFCURVE",
"972 34 OFFCURVE",
"768 34 CURVE SMOOTH",
"422 34 OFFCURVE",
"140 332 OFFCURVE",
"140 700 CURVE SMOOTH",
"140 1058 OFFCURVE",
"416 1366 OFFCURVE",
"768 1366 CURVE SMOOTH",
"962 1366 OFFCURVE",
"1152 1266 OFFCURVE",
"1266 1108 CURVE",
"1318 1136 LINE",
"1192 1312 OFFCURVE",
"994 1426 OFFCURVE",
"768 1426 CURVE SMOOTH",
"388 1426 OFFCURVE",
"80 1100 OFFCURVE",
"80 700 CURVE SMOOTH",
"80 298 OFFCURVE",
"388 -26 OFFCURVE",
"768 -26 CURVE SMOOTH"
);
}
);
width = 1418;
}
);
leftKerningGroup = O;
leftMetricsKey = O;
rightKerningGroup = C;
unicode = 0043;
},
{
glyphname = D;
lastChange = "2021-08-26 03:05:31 +0000";
layers = (
{
anchors = (
{
name = bottom;
position = "{672, 0}";
},
{
name = center;
position = "{672, 700}";
},
{
name = top;
position = "{652, 1400}";
}
);
hints = (
{
horizontal = 1;
origin = "{0, 8}";
target = "{1, 8}";
type = Stem;
},
{
horizontal = 1;
origin = "{0, 7}";
target = "{1, 0}";
type = Stem;
},
{
origin = "{0, 8}";
target = "{1, 8}";
type = Stem;
},
{
origin = "{1, 4}";
target = "{0, 3}";
type = Stem;
}
);
layerId = "10BC12B3-5274-42E3-B5BC-F74F362F0DF4";
paths = (
{
closed = 1;
nodes = (
"584 0 LINE SMOOTH",
"970 0 OFFCURVE",
"1284 314 OFFCURVE",
"1284 700 CURVE SMOOTH",
"1284 1086 OFFCURVE",
"970 1400 OFFCURVE",
"584 1400 CURVE SMOOTH",
"120 1400 LINE",
"120 0 LINE"
);
},
{
closed = 1;
nodes = (
"420 1100 LINE",
"584 1100 LINE SMOOTH",
"802 1100 OFFCURVE",
"984 920 OFFCURVE",
"984 700 CURVE SMOOTH",
"984 478 OFFCURVE",
"800 300 OFFCURVE",
"584 300 CURVE SMOOTH",
"420 300 LINE"
);
}
);
width = 1344;
},
{
anchors = (
{
name = bottom;
position = "{672, 0}";
},
{
name = center;
position = "{671, 700}";
},
{
name = top;
position = "{652, 1400}";
}
);
hints = (
{
horizontal = 1;
origin = "{0, 8}";
target = "{1, 8}";
type = Stem;
},
{
horizontal = 1;
origin = "{0, 7}";
target = "{1, 0}";
type = Stem;
},
{
origin = "{0, 8}";
target = "{1, 8}";
type = Stem;
},
{
origin = "{1, 4}";
target = "{0, 3}";
type = Stem;
}
);
layerId = "9AF1F7D9-E035-453E-B2A8-46DE370997D0";
paths = (
{
closed = 1;
nodes = (
"582 0 LINE SMOOTH",
"970 0 OFFCURVE",
"1282 314 OFFCURVE",
"1282 700 CURVE SMOOTH",
"1282 1086 OFFCURVE",
"970 1400 OFFCURVE",
"582 1400 CURVE SMOOTH",
"120 1400 LINE",
"120 0 LINE"
);
},
{
closed = 1;
nodes = (
"180 1340 LINE",
"582 1340 LINE SMOOTH",
"936 1340 OFFCURVE",
"1222 1054 OFFCURVE",
"1222 700 CURVE SMOOTH",
"1222 346 OFFCURVE",
"938 60 OFFCURVE",
"582 60 CURVE SMOOTH",
"180 60 LINE"
);
}
);
width = 1342;
}
);
leftKerningGroup = H;
leftMetricsKey = H;
rightKerningGroup = O;
unicode = 0044;
},
{
glyphname = Eth;
lastChange = "2021-08-26 03:05:31 +0000";
layers = (
{
hints = (
{
horizontal = 1;
origin = "{0, 12}";
target = "{1, 12}";
type = Stem;
},
{
horizontal = 1;
origin = "{0, 10}";
target = "{0, 9}";
type = Stem;
},
{
horizontal = 1;
origin = "{0, 7}";
target = "{1, 4}";
type = Stem;
},
{
origin = "{0, 12}";
target = "{1, 12}";
type = Stem;
},
{
origin = "{1, 8}";
target = "{0, 3}";
type = Stem;
}
);
layerId = "10BC12B3-5274-42E3-B5BC-F74F362F0DF4";
paths = (
{
closed = 1;
nodes = (
"702 0 LINE SMOOTH",
"1088 0 OFFCURVE",
"1402 314 OFFCURVE",
"1402 700 CURVE SMOOTH",
"1402 1086 OFFCURVE",
"1088 1400 OFFCURVE",
"702 1400 CURVE SMOOTH",
"240 1400 LINE",
"240 900 LINE",
"100 900 LINE",
"100 600 LINE",
"240 600 LINE",
"240 0 LINE"
);
},
{
closed = 1;
nodes = (
"540 600 LINE",
"778 600 LINE",
"778 900 LINE",
"540 900 LINE",
"540 1100 LINE",
"702 1100 LINE SMOOTH",
"922 1100 OFFCURVE",
"1102 920 OFFCURVE",
"1102 700 CURVE SMOOTH",
"1102 480 OFFCURVE",
"922 300 OFFCURVE",
"702 300 CURVE SMOOTH",
"540 300 LINE"
);
}
);
width = 1462;
},
{
hints = (
{
horizontal = 1;
origin = "{0, 12}";
target = "{1, 12}";
type = Stem;
},
{
horizontal = 1;
origin = "{0, 10}";
target = "{0, 9}";
type = Stem;
},
{
horizontal = 1;
origin = "{0, 7}";
target = "{1, 4}";
type = Stem;
},
{
origin = "{0, 12}";
target = "{1, 12}";
type = Stem;
},
{
origin = "{1, 8}";
target = "{0, 3}";
type = Stem;
}
);
layerId = "9AF1F7D9-E035-453E-B2A8-46DE370997D0";
paths = (
{
closed = 1;
nodes = (
"692 0 LINE SMOOTH",
"1078 0 OFFCURVE",
"1392 314 OFFCURVE",
"1392 700 CURVE SMOOTH",
"1392 1086 OFFCURVE",
"1078 1400 OFFCURVE",
"692 1400 CURVE SMOOTH",
"228 1400 LINE",
"228 780 LINE",
"100 780 LINE",
"100 720 LINE",
"228 720 LINE",
"228 0 LINE"
);
},
{
closed = 1;
nodes = (
"288 720 LINE",
"686 720 LINE",
"686 780 LINE",
"288 780 LINE",
"288 1340 LINE",
"692 1340 LINE SMOOTH",
"1036 1340 OFFCURVE",
"1332 1060 OFFCURVE",
"1332 700 CURVE SMOOTH",
"1332 354 OFFCURVE",
"1052 60 OFFCURVE",
"692 60 CURVE SMOOTH",
"288 60 LINE"
);
}
);
width = 1452;
}
);
leftKerningGroup = H;
leftMetricsKey = "=D-20";
rightKerningGroup = O;
rightMetricsKey = D;
unicode = 00D0;
},
{
glyphname = E;
lastChange = "2021-08-26 03:05:31 +0000";
layers = (
{
anchors = (
{
name = bottom;
position = "{556, 0}";
},
{
name = ogonek;
position = "{910, 0}";
},
{
name = top;
position = "{556, 1400}";
},
{
name = topleft;
position = "{20, 1400}";
}
);
hints = (
{
horizontal = 1;
origin = "{0, 11}";
target = "{0, 2}";
type = Stem;
},
{
horizontal = 1;
origin = "{0, 3}";
target = "{0, 6}";
type = Stem;
},
{
horizontal = 1;
origin = "{0, 10}";
target = "{0, 7}";
type = Stem;
},
{
origin = "{0, 11}";
target = "{0, 2}";
type = Stem;
}
);
layerId = "10BC12B3-5274-42E3-B5BC-F74F362F0DF4";
paths = (
{
closed = 1;
nodes = (
"1012 0 LINE",
"1012 300 LINE",
"420 300 LINE",
"420 600 LINE",
"876 600 LINE",
"876 900 LINE",
"420 900 LINE",
"420 1100 LINE",
"1012 1100 LINE",
"1012 1400 LINE",
"120 1400 LINE",
"120 0 LINE"
);
}
);
width = 1112;
},
{
anchors = (
{
name = bottom;
position = "{526, 0}";
},
{
name = ogonek;
position = "{823, 0}";
},
{
name = top;
position = "{526, 1400}";
},
{
name = topleft;
position = "{20, 1400}";
}
);
hints = (
{
horizontal = 1;
origin = "{0, 11}";
target = "{0, 2}";
type = Stem;
},
{
horizontal = 1;
origin = "{0, 3}";
target = "{0, 6}";
type = Stem;
},
{
horizontal = 1;
origin = "{0, 10}";
target = "{0, 7}";
type = Stem;
},
{
origin = "{0, 11}";
target = "{0, 2}";
type = Stem;
}
);
layerId = "9AF1F7D9-E035-453E-B2A8-46DE370997D0";
paths = (
{
closed = 1;
nodes = (
"952 0 LINE",
"952 60 LINE",
"180 60 LINE",
"180 720 LINE",
"836 720 LINE",
"836 780 LINE",
"180 780 LINE",
"180 1340 LINE",
"952 1340 LINE",
"952 1400 LINE",
"120 1400 LINE",
"120 0 LINE"
);
}
);
width = 1052;
}
);
leftKerningGroup = H;
leftMetricsKey = H;
rightKerningGroup = E;
unicode = 0045;
},
{
glyphname = F;
lastChange = "2021-08-26 03:05:31 +0000";
layers = (
{
anchors = (
{
name = bottom;
position = "{486, 0}";
},
{
name = top;
position = "{486, 1400}";
}
);
hints = (
{
horizontal = 1;
origin = "{0, 9}";
target = up;
type = BottomGhost;
},
{
horizontal = 1;
origin = "{0, 1}";
target = "{0, 4}";
type = Stem;
},
{
horizontal = 1;
origin = "{0, 8}";
target = "{0, 5}";
type = Stem;
},
{
origin = "{0, 9}";
target = "{0, 0}";
type = Stem;
}
);
layerId = "10BC12B3-5274-42E3-B5BC-F74F362F0DF4";
paths = (
{
closed = 1;
nodes = (
"420 0 LINE",
"420 600 LINE",
"856 600 LINE",
"856 900 LINE",
"420 900 LINE",
"420 1100 LINE",
"952 1100 LINE",
"952 1400 LINE",
"120 1400 LINE",
"120 0 LINE"
);
}
);
width = 972;
},
{
anchors = (
{
name = bottom;
position = "{476, 0}";
},
{
name = top;
position = "{476, 1400}";
}
);
hints = (
{
horizontal = 1;
origin = "{0, 9}";
target = up;
type = BottomGhost;
},
{
horizontal = 1;
origin = "{0, 1}";
target = "{0, 4}";
type = Stem;
},
{
horizontal = 1;
origin = "{0, 8}";
target = "{0, 5}";
type = Stem;
},
{
origin = "{0, 9}";
target = "{0, 0}";
type = Stem;
}
);
layerId = "9AF1F7D9-E035-453E-B2A8-46DE370997D0";
paths = (
{
closed = 1;
nodes = (
"180 0 LINE",
"180 720 LINE",
"836 720 LINE",
"836 780 LINE",
"180 780 LINE",
"180 1340 LINE",
"932 1340 LINE",
"932 1400 LINE",
"120 1400 LINE",
"120 0 LINE"
);
}
);
width = 952;
}
);
leftKerningGroup = H;
leftMetricsKey = H;
rightKerningGroup = F;
unicode = 0046;
},
{
glyphname = G;
lastChange = "2021-08-26 03:05:31 +0000";
layers = (
{
anchors = (
{
name = bottom;
position = "{769, 0}";
},
{
name = top;
position = "{769, 1400}";
}
);
hints = (
{
horizontal = 1;
origin = "{0, 27}";
target = "{0, 8}";
type = Stem;
},
{
horizontal = 1;
origin = "{0, 4}";
target = "{0, 3}";
type = Stem;
},
{
horizontal = 1;
origin = "{0, 21}";
target = "{0, 14}";
type = Stem;
},
{
origin = "{0, 24}";
target = "{0, 11}";
type = Stem;
}
);
layerId = "10BC12B3-5274-42E3-B5BC-F74F362F0DF4";
paths = (
{
closed = 1;
nodes = (
"1164 -26 OFFCURVE",
"1476 322 OFFCURVE",
"1456 740 CURVE",
"914 740 LINE",
"914 480 LINE",
"1102 480 LINE",
"1020 338 OFFCURVE",
"894 274 OFFCURVE",
"772 274 CURVE SMOOTH",
"556 274 OFFCURVE",
"380 460 OFFCURVE",
"380 696 CURVE SMOOTH",
"380 952 OFFCURVE",
"570 1126 OFFCURVE",
"770 1126 CURVE SMOOTH",
"868 1126 OFFCURVE",
"968 1084 OFFCURVE",
"1050 992 CURVE",
"1318 1136 LINE",
"1166 1338 OFFCURVE",
"968 1424 OFFCURVE",
"774 1424 CURVE SMOOTH",
"418 1424 OFFCURVE",
"80 1130 OFFCURVE",
"80 702 CURVE SMOOTH",
"80 304 OFFCURVE",
"376 -26 OFFCURVE",
"768 -26 CURVE SMOOTH"
);
}
);
width = 1537;
},
{
anchors = (
{
name = bottom;
position = "{768, 0}";
},
{
name = top;
position = "{770, 1400}";
}
);
hints = (
{
horizontal = 1;
origin = "{0, 27}";
target = "{0, 8}";
type = Stem;
},
{
horizontal = 1;
origin = "{0, 4}";
target = "{0, 3}";
type = Stem;
},
{
horizontal = 1;
origin = "{0, 21}";
target = "{0, 14}";
type = Stem;
},
{
origin = "{0, 24}";
target = "{0, 11}";
type = Stem;
}
);
layerId = "9AF1F7D9-E035-453E-B2A8-46DE370997D0";
paths = (
{
closed = 1;
nodes = (
"1130 -26 OFFCURVE",
"1432 272 OFFCURVE",
"1456 642 CURVE",
"916 642 LINE",
"916 582 LINE",
"1388 582 LINE",
"1342 282 OFFCURVE",
"1084 34 OFFCURVE",
"770 34 CURVE SMOOTH",
"422 34 OFFCURVE",
"140 336 OFFCURVE",
"140 700 CURVE SMOOTH",
"140 1058 OFFCURVE",
"418 1366 OFFCURVE",
"770 1366 CURVE SMOOTH",
"960 1366 OFFCURVE",
"1146 1272 OFFCURVE",
"1266 1108 CURVE",
"1320 1138 LINE",
"1194 1312 OFFCURVE",
"994 1426 OFFCURVE",
"770 1426 CURVE SMOOTH",
"388 1426 OFFCURVE",
"80 1100 OFFCURVE",
"80 700 CURVE SMOOTH",
"80 300 OFFCURVE",
"388 -26 OFFCURVE",
"770 -26 CURVE SMOOTH"
);
}
);
width = 1536;
}
);
leftKerningGroup = O;
leftMetricsKey = O;
rightKerningGroup = O;
rightMetricsKey = O;
unicode = 0047;
},
{
glyphname = H;
lastChange = "2021-08-26 03:05:31 +0000";
layers = (
{
anchors = (
{
name = bottom;
position = "{668, 0}";
},
{
name = center;
position = "{668, 700}";
},
{
name = top;
position = "{668, 1400}";
},
{
name = topleft;
position = "{20, 1400}";
}
);
hints = (
{
horizontal = 1;
origin = "{0, 4}";
target = up;
type = BottomGhost;
},
{
horizontal = 1;
origin = "{0, 6}";
target = "{0, 1}";
type = Stem;
},
{
horizontal = 1;
origin = "{0, 3}";
target = down;
type = TopGhost;
},
{
origin = "{0, 4}";
target = "{0, 5}";
type = Stem;
},
{
origin = "{0, 8}";
target = "{0, 9}";
type = Stem;
}
);
layerId = "10BC12B3-5274-42E3-B5BC-F74F362F0DF4";
paths = (
{
closed = 1;
nodes = (
"916 900 LINE",
"420 900 LINE",
"420 1400 LINE",
"120 1400 LINE",
"120 0 LINE",
"420 0 LINE",
"420 600 LINE",
"916 600 LINE",
"916 0 LINE",
"1216 0 LINE",
"1216 1400 LINE",
"916 1400 LINE"
);
}
);
width = 1336;
},
{
anchors = (
{
name = bottom;
position = "{607, 0}";
},
{
name = center;
position = "{607, 700}";
},
{
name = top;
position = "{607, 1400}";
},
{
name = topleft;
position = "{20, 1400}";
}
);
hints = (
{
horizontal = 1;
origin = "{0, 4}";
target = up;
type = BottomGhost;
},
{
horizontal = 1;
origin = "{0, 6}";
target = "{0, 1}";
type = Stem;
},
{
horizontal = 1;
origin = "{0, 3}";
target = down;
type = TopGhost;
},
{
origin = "{0, 4}";
target = "{0, 5}";
type = Stem;
},
{
origin = "{0, 8}";
target = "{0, 9}";
type = Stem;
}
);
layerId = "9AF1F7D9-E035-453E-B2A8-46DE370997D0";
paths = (
{
closed = 1;
nodes = (
"1034 780 LINE",
"180 780 LINE",
"180 1400 LINE",
"120 1400 LINE",
"120 0 LINE",
"180 0 LINE",
"180 720 LINE",
"1034 720 LINE",
"1034 0 LINE",
"1094 0 LINE",
"1094 1400 LINE",
"1034 1400 LINE"
);
}
);
width = 1214;
}
);
leftKerningGroup = H;
rightKerningGroup = H;
unicode = 0048;
},
{
glyphname = I;
lastChange = "2021-08-26 03:05:31 +0000";
layers = (
{
anchors = (
{
name = bottom;
position = "{300, 0}";
},
{
name = ogonek;
position = "{450, 0}";
},
{
name = top;
position = "{300, 1400}";
},
{
name = topleft;
position = "{20, 1400}";
}
);
hints = (
{
horizontal = 1;
origin = "{0, 3}";
target = up;
type = BottomGhost;
},
{
horizontal = 1;
origin = "{0, 2}";
target = down;
type = TopGhost;
},
{
origin = "{0, 3}";
target = "{0, 0}";
type = Stem;
}
);
layerId = "10BC12B3-5274-42E3-B5BC-F74F362F0DF4";
paths = (
{
closed = 1;
nodes = (
"450 0 LINE",
"450 1400 LINE",
"150 1400 LINE",
"150 0 LINE"
);
}
);
width = 600;
},
{
anchors = (
{
name = bottom;
position = "{180, 0}";
},
{
name = ogonek;
position = "{210, 0}";
},
{
name = top;
position = "{180, 1400}";
},
{
name = topleft;
position = "{20, 1400}";
}
);
hints = (
{
horizontal = 1;
origin = "{0, 3}";
target = up;
type = BottomGhost;
},
{
horizontal = 1;
origin = "{0, 2}";
target = down;
type = TopGhost;
},
{
origin = "{0, 3}";
target = "{0, 0}";
type = Stem;
}
);
layerId = "9AF1F7D9-E035-453E-B2A8-46DE370997D0";
paths = (
{
closed = 1;
nodes = (
"210 0 LINE",
"210 1400 LINE",
"150 1400 LINE",
"150 0 LINE"
);
}
);
width = 360;
}
);
leftKerningGroup = H;
rightKerningGroup = H;
unicode = 0049;
},
{
glyphname = J;
lastChange = "2021-08-26 03:05:31 +0000";
layers = (
{
anchors = (
{
name = bottom;
position = "{467, 0}";
},
{
name = top;
position = "{664, 1400}";
}
);
hints = (
{
horizontal = 1;
origin = "{0, 15}";
target = "{0, 8}";
type = Stem;
},
{
horizontal = 1;
origin = "{0, 4}";
target = down;
type = TopGhost;
},
{
origin = "{0, 5}";
target = "{0, 2}";
type = Stem;
}
);
layerId = "10BC12B3-5274-42E3-B5BC-F74F362F0DF4";
paths = (
{
closed = 1;
nodes = (
"602 -26 OFFCURVE",
"814 186 OFFCURVE",
"814 446 CURVE SMOOTH",
"814 1400 LINE",
"514 1400 LINE",
"514 446 LINE SMOOTH",
"514 352 OFFCURVE",
"436 274 OFFCURVE",
"342 274 CURVE SMOOTH",
"290 274 OFFCURVE",
"254 296 OFFCURVE",
"232 314 CURVE",
"40 84 LINE",
"124 12 OFFCURVE",
"232 -26 OFFCURVE",
"342 -26 CURVE SMOOTH"
);
}
);
width = 934;
},
{
anchors = (
{
name = bottom;
position = "{369, 0}";
},
{
name = top;
position = "{588, 1400}";
}
);
hints = (
{
horizontal = 1;
origin = "{0, 15}";
target = "{0, 8}";
type = Stem;
},
{
horizontal = 1;
origin = "{0, 4}";
target = down;
type = TopGhost;
},
{
origin = "{0, 5}";
target = "{0, 2}";
type = Stem;
}
);
layerId = "9AF1F7D9-E035-453E-B2A8-46DE370997D0";
paths = (
{
closed = 1;
nodes = (
"460 -26 OFFCURVE",
"618 152 OFFCURVE",
"618 346 CURVE SMOOTH",
"618 1400 LINE",
"558 1400 LINE",
"558 346 LINE SMOOTH",
"558 184 OFFCURVE",
"426 34 OFFCURVE",
"264 34 CURVE SMOOTH",
"196 34 OFFCURVE",
"130 58 OFFCURVE",
"78 102 CURVE",
"40 56 LINE",
"104 0 OFFCURVE",
"182 -26 OFFCURVE",
"264 -26 CURVE SMOOTH"
);
}
);
width = 738;
}
);
leftKerningGroup = J;
rightKerningGroup = J;
unicode = 004A;
},
{
glyphname = K;
lastChange = "2021-08-26 03:05:31 +0000";
layers = (
{
anchors = (
{
name = bottom;
position = "{615, 0}";
},
{
name = top;
position = "{615, 1400}";
}
);
hints = (
{
horizontal = 1;
origin = "{0, 6}";
target = up;
type = BottomGhost;
},
{
horizontal = 1;
origin = "{0, 5}";
target = down;
type = TopGhost;
},
{
origin = "{0, 6}";
target = "{0, 7}";
type = Stem;
}
);
layerId = "10BC12B3-5274-42E3-B5BC-F74F362F0DF4";
paths = (
{
closed = 1;
nodes = (
"656 740 LINE",
"1210 1400 LINE",
"818 1400 LINE",
"420 924 LINE",
"420 1400 LINE",
"120 1400 LINE",
"120 0 LINE",
"420 0 LINE",
"420 458 LINE",
"460 506 LINE",
"818 0 LINE",
"1210 0 LINE"
);
}
);
width = 1230;
},
{
anchors = (
{
name = bottom;
position = "{492, 0}";
},
{
name = top;
position = "{492, 1400}";
}
);
hints = (
{
horizontal = 1;
origin = "{0, 6}";
target = up;
type = BottomGhost;
},
{
horizontal = 1;
origin = "{0, 5}";
target = down;
type = TopGhost;
},
{
origin = "{0, 6}";
target = "{0, 7}";
type = Stem;
}
);
layerId = "9AF1F7D9-E035-453E-B2A8-46DE370997D0";
paths = (
{
closed = 1;
nodes = (
"378 738 LINE",
"934 1400 LINE",
"856 1400 LINE",
"180 594 LINE",
"180 1400 LINE",
"120 1400 LINE",
"120 0 LINE",
"180 0 LINE",
"180 500 LINE",
"338 690 LINE",
"848 0 LINE",
"924 0 LINE"
);
}
);
width = 984;
}
);
leftKerningGroup = H;
rightKerningGroup = K;
unicode = 004B;
},
{
glyphname = L;
lastChange = "2021-08-26 03:05:31 +0000";
layers = (
{
anchors = (
{
name = bottom;
position = "{545, 0}";
},
{
name = center;
position = "{535, 700}";
},
{
name = top;
position = "{270, 1400}";
},
{
name = topright;
position = "{1050, 1400}";
}
);
hints = (
{
horizontal = 1;
origin = "{0, 5}";
target = "{0, 2}";
type = Stem;
},
{
horizontal = 1;
origin = "{0, 4}";
target = down;
type = TopGhost;
},
{
origin = "{0, 5}";
target = "{0, 2}";
type = Stem;
}
);
layerId = "10BC12B3-5274-42E3-B5BC-F74F362F0DF4";
paths = (
{
closed = 1;
nodes = (
"970 0 LINE",
"970 300 LINE",
"420 300 LINE",
"420 1400 LINE",
"120 1400 LINE",
"120 0 LINE"
);
}
);
width = 1070;
},
{
anchors = (
{
name = bottom;
position = "{495, 0}";
},
{
name = center;
position = "{485, 700}";
},
{
name = top;
position = "{150, 1400}";
},
{
name = topright;
position = "{950, 1400}";
}
);
hints = (
{
horizontal = 1;
origin = "{0, 5}";
target = "{0, 2}";
type = Stem;
},
{
horizontal = 1;
origin = "{0, 4}";
target = down;
type = TopGhost;
},
{
origin = "{0, 5}";
target = "{0, 2}";
type = Stem;
}
);
layerId = "9AF1F7D9-E035-453E-B2A8-46DE370997D0";
paths = (
{
closed = 1;
nodes = (
"870 0 LINE",
"870 60 LINE",
"180 60 LINE",
"180 1400 LINE",
"120 1400 LINE",
"120 0 LINE"
);
}
);
width = 970;
}
);
leftKerningGroup = H;
leftMetricsKey = H;
rightKerningGroup = L;
unicode = 004C;
},
{
glyphname = M;
lastChange = "2021-08-26 03:05:31 +0000";
layers = (
{
anchors = (
{
name = bottom;
position = "{962, 0}";
},
{
name = top;
position = "{962, 1400}";
}
);
hints = (
{
horizontal = 1;
origin = "{0, 12}";
target = up;
type = BottomGhost;
},
{
horizontal = 1;
origin = "{0, 11}";
target = down;
type = TopGhost;
}
);
layerId = "10BC12B3-5274-42E3-B5BC-F74F362F0DF4";
paths = (
{
closed = 1;
nodes = (
"426 0 LINE",
"572 756 LINE",
"858 0 LINE",
"1066 0 LINE",
"1352 756 LINE",
"1498 0 LINE",
"1804 0 LINE",
"1532 1400 LINE",
"1276 1400 LINE",
"962 574 LINE",
"648 1400 LINE",
"392 1400 LINE",
"120 0 LINE"
);
}
);
width = 1924;
},
{
anchors = (
{
name = bottom;
position = "{846, 0}";
},
{
name = top;
position = "{846, 1400}";
}
);
hints = (
{
horizontal = 1;
origin = "{0, 12}";
target = up;
type = BottomGhost;
},
{
horizontal = 1;
origin = "{0, 11}";
target = down;
type = TopGhost;
}
);
layerId = "9AF1F7D9-E035-453E-B2A8-46DE370997D0";
paths = (
{
closed = 1;
nodes = (
"180 0 LINE",
"418 1228 LINE",
"830 138 LINE",
"860 138 LINE",
"1272 1228 LINE",
"1510 0 LINE",
"1572 0 LINE",
"1300 1400 LINE",
"1274 1400 LINE",
"846 268 LINE",
"416 1400 LINE",
"390 1400 LINE",
"120 0 LINE"
);
}
);
width = 1692;
}
);
leftKerningGroup = M;
rightKerningGroup = M;
unicode = 004D;
},
{
glyphname = N;
lastChange = "2021-08-26 03:05:31 +0000";
layers = (
{
anchors = (
{
name = bottom;
position = "{688, 0}";
},
{
name = top;
position = "{688, 1400}";
}
);
hints = (
{
horizontal = 1;
origin = "{0, 9}";
target = up;
type = BottomGhost;
},
{
horizontal = 1;
origin = "{0, 8}";
target = down;
type = TopGhost;
},
{
origin = "{0, 9}";
target = "{0, 0}";
type = Stem;
},
{
origin = "{0, 6}";
target = "{0, 3}";
type = Stem;
}
);
layerId = "10BC12B3-5274-42E3-B5BC-F74F362F0DF4";
paths = (
{
closed = 1;
nodes = (
"420 0 LINE",
"420 858 LINE",
"932 0 LINE",
"1256 0 LINE",
"1256 1400 LINE",
"956 1400 LINE",
"956 542 LINE",
"444 1400 LINE",
"120 1400 LINE",
"120 0 LINE"
);
}
);
width = 1376;
},
{
anchors = (
{
name = bottom;
position = "{609, 0}";
},
{
name = top;
position = "{609, 1400}";
}
);
hints = (
{
horizontal = 1;
origin = "{0, 9}";
target = up;
type = BottomGhost;
},
{
horizontal = 1;
origin = "{0, 8}";
target = down;
type = TopGhost;
},
{
origin = "{0, 9}";
target = "{0, 0}";
type = Stem;
},
{
origin = "{0, 6}";
target = "{0, 3}";
type = Stem;
}
);
layerId = "9AF1F7D9-E035-453E-B2A8-46DE370997D0";
paths = (
{
closed = 1;
nodes = (
"180 0 LINE",
"180 1292 LINE",
"1034 0 LINE",
"1098 0 LINE",
"1098 1400 LINE",
"1038 1400 LINE",
"1038 108 LINE",
"186 1400 LINE",
"120 1400 LINE",
"120 0 LINE"
);
}
);
width = 1218;
}
);
leftKerningGroup = H;
leftMetricsKey = H;
rightKerningGroup = H;
rightMetricsKey = H;
unicode = 004E;
},
{
glyphname = O;
lastChange = "2021-08-26 03:05:31 +0000";
layers = (
{
anchors = (
{
name = bottom;
position = "{770, 0}";
},
{
name = center;
position = "{770, 700}";
},
{
name = ogonek;
position = "{1386, 10}";
},
{
name = top;
position = "{770, 1400}";
},
{
name = topleft;
position = "{20, 1400}";
},
{
name = topright;
position = "{1520, 1400}";
}
);
hints = (
{
horizontal = 1;
origin = "{0, 11}";
target = "{1, 11}";
type = Stem;
},
{
horizontal = 1;
origin = "{0, 5}";
target = "{1, 5}";
type = Stem;
},
{
origin = "{0, 8}";
target = "{1, 2}";
type = Stem;
},
{
origin = "{1, 8}";
target = "{0, 2}";
type = Stem;
}
);
layerId = "10BC12B3-5274-42E3-B5BC-F74F362F0DF4";
paths = (
{
closed = 1;
nodes = (
"1150 -26 OFFCURVE",
"1460 300 OFFCURVE",
"1460 700 CURVE SMOOTH",
"1460 1100 OFFCURVE",
"1150 1426 OFFCURVE",
"770 1426 CURVE SMOOTH",
"390 1426 OFFCURVE",
"80 1100 OFFCURVE",
"80 700 CURVE SMOOTH",
"80 300 OFFCURVE",
"390 -26 OFFCURVE",
"770 -26 CURVE SMOOTH"
);
},
{
closed = 1;
nodes = (
"556 274 OFFCURVE",
"380 466 OFFCURVE",
"380 700 CURVE SMOOTH",
"380 934 OFFCURVE",
"556 1126 OFFCURVE",
"770 1126 CURVE SMOOTH",
"984 1126 OFFCURVE",
"1160 934 OFFCURVE",
"1160 700 CURVE SMOOTH",
"1160 466 OFFCURVE",
"984 274 OFFCURVE",
"770 274 CURVE SMOOTH"
);
}
);
width = 1540;
},
{
anchors = (
{
name = bottom;
position = "{770, 0}";
},
{
name = center;
position = "{770, 700}";
},
{
name = ogonek;
position = "{1386, 10}";
},
{
name = top;
position = "{770, 1400}";
},
{
name = topleft;
position = "{20, 1400}";
},
{
name = topright;
position = "{1520, 1400}";
}
);
hints = (
{
horizontal = 1;
origin = "{0, 11}";
target = "{1, 11}";
type = Stem;
},
{
horizontal = 1;
origin = "{0, 5}";
target = "{1, 5}";
type = Stem;
},
{
origin = "{0, 8}";
target = "{1, 2}";
type = Stem;
},
{
origin = "{1, 8}";
target = "{0, 2}";
type = Stem;
}
);
layerId = "9AF1F7D9-E035-453E-B2A8-46DE370997D0";
paths = (
{
closed = 1;
nodes = (
"1150 -26 OFFCURVE",
"1460 300 OFFCURVE",
"1460 700 CURVE SMOOTH",
"1460 1100 OFFCURVE",
"1150 1426 OFFCURVE",
"770 1426 CURVE SMOOTH",
"390 1426 OFFCURVE",
"80 1100 OFFCURVE",
"80 700 CURVE SMOOTH",
"80 300 OFFCURVE",
"390 -26 OFFCURVE",
"770 -26 CURVE SMOOTH"
);
},
{
closed = 1;
nodes = (
"422 34 OFFCURVE",
"140 334 OFFCURVE",
"140 700 CURVE SMOOTH",
"140 1060 OFFCURVE",
"418 1366 OFFCURVE",
"770 1366 CURVE SMOOTH",
"1118 1366 OFFCURVE",
"1400 1064 OFFCURVE",
"1400 700 CURVE SMOOTH",
"1400 340 OFFCURVE",
"1122 34 OFFCURVE",
"770 34 CURVE SMOOTH"
);
}
);
width = 1540;
}
);
leftKerningGroup = O;
rightKerningGroup = O;
unicode = 004F;
},
{
glyphname = Oslash;
lastChange = "2021-08-26 03:05:31 +0000";
layers = (
{
anchors = (
{
name = bottom;
position = "{770, 0}";
},
{
name = top;
position = "{770, 1400}";
}
);
hints = (
{
horizontal = 1;
origin = "{0, 3}";
target = "{2, 9}";
type = Stem;
},
{
horizontal = 1;
origin = "{0, 15}";
target = "{1, 5}";
type = Stem;
},
{
origin = "{0, 18}";
target = "{1, 2}";
type = Stem;
},
{
origin = "{2, 6}";
target = "{0, 6}";
type = Stem;
}
);
layerId = "10BC12B3-5274-42E3-B5BC-F74F362F0DF4";
paths = (
{
closed = 1;
nodes = (
"548 14 LINE",
"618 -12 OFFCURVE",
"692 -26 OFFCURVE",
"770 -26 CURVE SMOOTH",
"1150 -26 OFFCURVE",
"1460 300 OFFCURVE",
"1460 700 CURVE SMOOTH",
"1460 906 OFFCURVE",
"1378 1092 OFFCURVE",
"1246 1226 CURVE",
"1332 1372 LINE",
"1072 1522 LINE",
"994 1388 LINE",
"924 1412 OFFCURVE",
"850 1426 OFFCURVE",
"770 1426 CURVE SMOOTH",
"390 1426 OFFCURVE",
"80 1100 OFFCURVE",
"80 700 CURVE SMOOTH",
"80 494 OFFCURVE",
"164 308 OFFCURVE",
"294 176 CURVE",
"210 28 LINE",
"470 -122 LINE"
);
},
{
closed = 1;
nodes = (
"408 522 OFFCURVE",
"380 608 OFFCURVE",
"380 700 CURVE SMOOTH",
"380 934 OFFCURVE",
"556 1126 OFFCURVE",
"770 1126 CURVE SMOOTH",
"794 1126 OFFCURVE",
"818 1124 OFFCURVE",
"840 1120 CURVE",
"454 452 LINE"
);
},
{
closed = 1;
nodes = (
"748 274 OFFCURVE",
"724 276 OFFCURVE",
"702 282 CURVE",
"1088 948 LINE",
"1134 878 OFFCURVE",
"1160 792 OFFCURVE",
"1160 700 CURVE SMOOTH",
"1160 466 OFFCURVE",
"984 274 OFFCURVE",
"770 274 CURVE SMOOTH"
);
}
);
width = 1540;
},
{
anchors = (
{
name = bottom;
position = "{770, 0}";
},
{
name = top;
position = "{770, 1400}";
}
);
hints = (
{
horizontal = 1;
origin = "{0, 3}";
target = "{2, 9}";
type = Stem;
},
{
horizontal = 1;
origin = "{0, 15}";
target = "{1, 5}";
type = Stem;
},
{
origin = "{0, 18}";
target = "{1, 2}";
type = Stem;
},
{
origin = "{2, 6}";
target = "{0, 6}";
type = Stem;
}
);
layerId = "9AF1F7D9-E035-453E-B2A8-46DE370997D0";
paths = (
{
closed = 1;
nodes = (
"438 64 LINE",
"538 8 OFFCURVE",
"650 -26 OFFCURVE",
"770 -26 CURVE SMOOTH",
"1150 -26 OFFCURVE",
"1460 300 OFFCURVE",
"1460 700 CURVE SMOOTH",
"1460 952 OFFCURVE",
"1338 1174 OFFCURVE",
"1154 1304 CURVE",
"1228 1432 LINE",
"1176 1462 LINE",
"1104 1336 LINE",
"1004 1394 OFFCURVE",
"892 1426 OFFCURVE",
"770 1426 CURVE SMOOTH",
"390 1426 OFFCURVE",
"80 1100 OFFCURVE",
"80 700 CURVE SMOOTH",
"80 450 OFFCURVE",
"204 228 OFFCURVE",
"388 96 CURVE",
"314 -32 LINE",
"366 -62 LINE"
);
},
{
closed = 1;
nodes = (
"250 270 OFFCURVE",
"140 472 OFFCURVE",
"140 700 CURVE SMOOTH",
"140 1060 OFFCURVE",
"418 1366 OFFCURVE",
"770 1366 CURVE SMOOTH",
"880 1366 OFFCURVE",
"984 1336 OFFCURVE",
"1074 1284 CURVE",
"418 150 LINE"
);
},
{
closed = 1;
nodes = (
"662 34 OFFCURVE",
"558 64 OFFCURVE",
"468 116 CURVE",
"1124 1252 LINE",
"1290 1130 OFFCURVE",
"1400 928 OFFCURVE",
"1400 700 CURVE SMOOTH",
"1400 340 OFFCURVE",
"1122 34 OFFCURVE",
"770 34 CURVE SMOOTH"
);
}
);
width = 1540;
}
);
leftKerningGroup = O;
leftMetricsKey = O;
rightKerningGroup = O;
rightMetricsKey = O;
unicode = 00D8;
},
{
glyphname = OE;
lastChange = "2021-08-26 03:05:31 +0000";
layers = (
{
anchors = (
{
name = bottom;
position = "{1048, 0}";
},
{
name = top;
position = "{1048, 1400}";
}
);
hints = (
{
horizontal = 1;
origin = "{0, 24}";
target = "{1, 11}";
type = Stem;
},
{
horizontal = 1;
origin = "{0, 7}";
target = "{0, 10}";
type = Stem;
},
{
horizontal = 1;
origin = "{0, 14}";
target = "{0, 11}";
type = Stem;
},
{
horizontal = 1;
origin = "{0, 3}";
target = "{0, 6}";
type = Stem;
},
{
horizontal = 1;
origin = "{0, 18}";
target = "{1, 5}";
type = Stem;
},
{
origin = "{0, 21}";
target = "{1, 2}";
type = Stem;
},
{
origin = "{1, 8}";
target = "{0, 6}";
type = Stem;
}
);
layerId = "10BC12B3-5274-42E3-B5BC-F74F362F0DF4";
paths = (
{
closed = 1;
nodes = (
"916 -26 OFFCURVE",
"1052 22 OFFCURVE",
"1164 104 CURVE",
"1164 0 LINE",
"1996 0 LINE",
"1996 300 LINE",
"1464 300 LINE",
"1464 550 LINE",
"1900 550 LINE",
"1900 850 LINE",
"1464 850 LINE",
"1464 1100 LINE",
"1996 1100 LINE",
"1996 1400 LINE",
"1164 1400 LINE",
"1164 1296 LINE",
"1052 1378 OFFCURVE",
"916 1426 OFFCURVE",
"770 1426 CURVE SMOOTH",
"390 1426 OFFCURVE",
"80 1100 OFFCURVE",
"80 700 CURVE SMOOTH",
"80 300 OFFCURVE",
"390 -26 OFFCURVE",
"770 -26 CURVE SMOOTH"
);
},
{
closed = 1;
nodes = (
"556 274 OFFCURVE",
"380 466 OFFCURVE",
"380 700 CURVE SMOOTH",
"380 934 OFFCURVE",
"556 1126 OFFCURVE",
"770 1126 CURVE SMOOTH",
"984 1126 OFFCURVE",
"1160 934 OFFCURVE",
"1160 700 CURVE SMOOTH",
"1160 466 OFFCURVE",
"984 274 OFFCURVE",
"770 274 CURVE SMOOTH"
);
}
);
width = 2096;
},
{
anchors = (
{
name = bottom;
position = "{1103, 0}";
},
{
name = top;
position = "{1103, 1400}";
}
);
hints = (
{
horizontal = 1;
origin = "{0, 24}";
target = "{1, 11}";
type = Stem;
},
{
horizontal = 1;
origin = "{0, 7}";
target = "{0, 10}";
type = Stem;
},
{
horizontal = 1;
origin = "{0, 14}";
target = "{0, 11}";
type = Stem;
},
{
horizontal = 1;
origin = "{0, 3}";
target = "{0, 6}";
type = Stem;
},
{
horizontal = 1;
origin = "{0, 18}";
target = "{1, 5}";
type = Stem;
},
{
origin = "{0, 21}";
target = "{1, 2}";
type = Stem;
},
{
origin = "{0, 3}";
target = "{0, 6}";
type = Stem;
}
);
layerId = "9AF1F7D9-E035-453E-B2A8-46DE370997D0";
paths = (
{
closed = 1;
nodes = (
"1050 -26 OFFCURVE",
"1292 152 OFFCURVE",
"1400 404 CURVE",
"1400 0 LINE",
"2106 0 LINE",
"2106 60 LINE",
"1460 60 LINE",
"1460 670 LINE",
"2010 670 LINE",
"2010 730 LINE",
"1460 730 LINE",
"1460 1340 LINE",
"2106 1340 LINE",
"2106 1400 LINE",
"1400 1400 LINE",
"1400 996 LINE",
"1292 1248 OFFCURVE",
"1050 1426 OFFCURVE",
"770 1426 CURVE SMOOTH",
"390 1426 OFFCURVE",
"80 1100 OFFCURVE",
"80 700 CURVE SMOOTH",
"80 300 OFFCURVE",
"390 -26 OFFCURVE",
"770 -26 CURVE SMOOTH"
);
},
{
closed = 1;
nodes = (
"422 34 OFFCURVE",
"140 334 OFFCURVE",
"140 700 CURVE SMOOTH",
"140 1060 OFFCURVE",
"418 1366 OFFCURVE",
"770 1366 CURVE SMOOTH",
"1118 1366 OFFCURVE",
"1400 1064 OFFCURVE",
"1400 700 CURVE SMOOTH",
"1400 340 OFFCURVE",
"1122 34 OFFCURVE",
"770 34 CURVE SMOOTH"
);
}
);
width = 2206;
}
);
leftKerningGroup = O;
leftMetricsKey = O;
rightKerningGroup = E;
rightMetricsKey = E;
unicode = 0152;
},
{
glyphname = P;
lastChange = "2021-08-26 03:05:31 +0000";
layers = (
{
anchors = (
{
name = bottom;
position = "{570, 0}";
},
{
name = top;
position = "{570, 1400}";
}
);
hints = (
{
horizontal = 1;
origin = "{0, 10}";
target = up;
type = BottomGhost;
},
{
horizontal = 1;
origin = "{0, 1}";
target = "{1, 8}";
type = Stem;
},
{
horizontal = 1;
origin = "{0, 9}";
target = "{1, 0}";
type = Stem;
},
{
origin = "{0, 10}";
target = "{0, 0}";
type = Stem;
},
{
origin = "{1, 4}";
target = "{0, 5}";
type = Stem;
}
);
layerId = "10BC12B3-5274-42E3-B5BC-F74F362F0DF4";
paths = (
{
closed = 1;
nodes = (
"420 0 LINE",
"420 544 LINE",
"648 544 LINE SMOOTH",
"870 544 OFFCURVE",
"1060 736 OFFCURVE",
"1060 972 CURVE SMOOTH",
"1060 1204 OFFCURVE",
"878 1400 OFFCURVE",
"648 1400 CURVE SMOOTH",
"120 1400 LINE",
"120 0 LINE"
);
},
{
closed = 1;
nodes = (
"420 1144 LINE",
"614 1144 LINE SMOOTH",
"694 1144 OFFCURVE",
"760 1076 OFFCURVE",
"760 994 CURVE SMOOTH",
"760 912 OFFCURVE",
"694 844 OFFCURVE",
"614 844 CURVE SMOOTH",
"420 844 LINE"
);
}
);
width = 1140;
},
{
anchors = (
{
name = bottom;
position = "{500, 0}";
},
{
name = top;
position = "{500, 1400}";
}
);
hints = (
{
horizontal = 1;
origin = "{0, 10}";
target = up;
type = BottomGhost;
},
{
horizontal = 1;
origin = "{0, 1}";
target = "{1, 8}";
type = Stem;
},
{
horizontal = 1;
origin = "{0, 9}";
target = "{1, 0}";
type = Stem;
},
{
origin = "{0, 10}";
target = "{0, 0}";
type = Stem;
},
{
origin = "{1, 4}";
target = "{0, 5}";
type = Stem;
}
);
layerId = "9AF1F7D9-E035-453E-B2A8-46DE370997D0";
paths = (
{
closed = 1;
nodes = (
"180 0 LINE",
"180 600 LINE",
"528 600 LINE SMOOTH",
"742 600 OFFCURVE",
"920 770 OFFCURVE",
"920 1000 CURVE SMOOTH",
"920 1228 OFFCURVE",
"748 1400 OFFCURVE",
"528 1400 CURVE SMOOTH",
"120 1400 LINE",
"120 0 LINE"
);
},
{
closed = 1;
nodes = (
"180 1340 LINE",
"528 1340 LINE SMOOTH",
"710 1340 OFFCURVE",
"860 1196 OFFCURVE",
"860 1000 CURVE SMOOTH",
"860 804 OFFCURVE",
"710 660 OFFCURVE",
"528 660 CURVE SMOOTH",
"180 660 LINE"
);
}
);
width = 1000;
}
);
leftKerningGroup = H;
leftMetricsKey = H;
rightKerningGroup = P;
unicode = 0050;
},
{
glyphname = Thorn;
lastChange = "2021-08-26 03:05:31 +0000";
layers = (
{
anchors = (
{
name = bottom;
position = "{570, 0}";
},
{
name = top;
position = "{570, 1400}";
}
);
hints = (
{
horizontal = 1;
origin = "{0, 12}";
target = up;
type = BottomGhost;
},
{
horizontal = 1;
origin = "{0, 1}";
target = "{1, 8}";
type = Stem;
},
{
horizontal = 1;
origin = "{1, 0}";
target = "{0, 9}";
type = Stem;
},
{
horizontal = 1;
origin = "{0, 11}";
target = down;
type = TopGhost;
},
{
origin = "{0, 12}";
target = "{0, 0}";
type = Stem;
},
{
origin = "{1, 4}";
target = "{0, 5}";
type = Stem;
}
);
layerId = "10BC12B3-5274-42E3-B5BC-F74F362F0DF4";
paths = (
{
closed = 1;
nodes = (
"420 0 LINE",
"420 272 LINE",
"648 272 LINE SMOOTH",
"870 272 OFFCURVE",
"1060 464 OFFCURVE",
"1060 700 CURVE SMOOTH",
"1060 932 OFFCURVE",
"878 1128 OFFCURVE",
"648 1128 CURVE SMOOTH",
"420 1128 LINE",
"420 1400 LINE",
"120 1400 LINE",
"120 0 LINE"
);
},
{
closed = 1;
nodes = (
"420 872 LINE",
"614 872 LINE SMOOTH",
"694 872 OFFCURVE",
"760 804 OFFCURVE",
"760 722 CURVE SMOOTH",
"760 640 OFFCURVE",
"694 572 OFFCURVE",
"614 572 CURVE SMOOTH",
"420 572 LINE"
);
}
);
width = 1120;
},
{
anchors = (
{
name = bottom;
position = "{500, 0}";
},
{
name = top;
position = "{500, 1400}";
}
);
hints = (
{
horizontal = 1;
origin = "{0, 12}";
target = up;
type = BottomGhost;
},
{
horizontal = 1;
origin = "{0, 1}";
target = "{1, 8}";
type = Stem;
},
{
horizontal = 1;
origin = "{1, 0}";
target = "{0, 9}";
type = Stem;
},
{
horizontal = 1;
origin = "{0, 11}";
target = down;
type = TopGhost;
},
{
origin = "{0, 12}";
target = "{0, 0}";
type = Stem;
},
{
origin = "{1, 4}";
target = "{0, 5}";
type = Stem;
}
);
layerId = "9AF1F7D9-E035-453E-B2A8-46DE370997D0";
paths = (
{
closed = 1;
nodes = (
"180 0 LINE",
"180 300 LINE",
"528 300 LINE SMOOTH",
"742 300 OFFCURVE",
"920 470 OFFCURVE",
"920 700 CURVE SMOOTH",
"920 928 OFFCURVE",
"748 1100 OFFCURVE",
"528 1100 CURVE SMOOTH",
"180 1100 LINE",
"180 1400 LINE",
"120 1400 LINE",
"120 0 LINE"
);
},
{
closed = 1;
nodes = (
"180 1040 LINE",
"528 1040 LINE SMOOTH",
"710 1040 OFFCURVE",
"860 896 OFFCURVE",
"860 700 CURVE SMOOTH",
"860 504 OFFCURVE",
"710 360 OFFCURVE",
"528 360 CURVE SMOOTH",
"180 360 LINE"
);
}
);
width = 980;
}
);
leftKerningGroup = l;
leftMetricsKey = l;
rightKerningGroup = o;
rightMetricsKey = p;
unicode = 00DE;
},
{
glyphname = Q;
lastChange = "2021-08-26 03:05:31 +0000";
layers = (
{
anchors = (
{
name = bottom;
position = "{792, 0}";
},
{
name = top;
position = "{792, 1400}";
}
);
hints = (
{
horizontal = 1;
origin = "{0, 13}";
target = "{1, 17}";
type = Stem;
},
{
horizontal = 1;
origin = "{1, 5}";
target = "{0, 7}";
type = Stem;
},
{
origin = "{0, 10}";
target = "{1, 2}";
type = Stem;
},
{
origin = "{1, 8}";
target = "{0, 4}";
type = Stem;
}
);
layerId = "10BC12B3-5274-42E3-B5BC-F74F362F0DF4";
paths = (
{
closed = 1;
nodes = (
"1504 160 LINE",
"1350 314 LINE",
"1418 428 OFFCURVE",
"1460 562 OFFCURVE",
"1460 708 CURVE SMOOTH",
"1460 1108 OFFCURVE",
"1150 1434 OFFCURVE",
"770 1434 CURVE SMOOTH",
"390 1434 OFFCURVE",
"80 1108 OFFCURVE",
"80 708 CURVE SMOOTH",
"80 306 OFFCURVE",
"390 -18 OFFCURVE",
"770 -18 CURVE SMOOTH",
"908 -18 OFFCURVE",
"1036 24 OFFCURVE",
"1142 96 CURVE",
"1292 -52 LINE"
);
},
{
closed = 1;
nodes = (
"556 282 OFFCURVE",
"380 472 OFFCURVE",
"380 708 CURVE SMOOTH",
"380 942 OFFCURVE",
"556 1134 OFFCURVE",
"770 1134 CURVE SMOOTH",
"984 1134 OFFCURVE",
"1160 942 OFFCURVE",
"1160 708 CURVE SMOOTH",
"1160 648 OFFCURVE",
"1148 590 OFFCURVE",
"1126 538 CURVE",
"1052 612 LINE",
"840 400 LINE",
"924 316 LINE",
"876 294 OFFCURVE",
"824 282 OFFCURVE",
"770 282 CURVE SMOOTH"
);
}
);
width = 1584;
},
{
anchors = (
{
name = bottom;
position = "{769, 0}";
},
{
name = top;
position = "{769, 1400}";
}
);
hints = (
{
horizontal = 1;
origin = "{0, 17}";
target = up;
type = BottomGhost;
},
{
horizontal = 1;
origin = "{0, 7}";
target = "{1, 5}";
type = Stem;
},
{
horizontal = 1;
origin = "{0, 13}";
target = "{1, 17}";
type = Stem;
},
{
origin = "{0, 10}";
target = "{1, 2}";
type = Stem;
},
{
origin = "{1, 8}";
target = "{0, 4}";
type = Stem;
}
);
layerId = "9AF1F7D9-E035-453E-B2A8-46DE370997D0";
paths = (
{
closed = 1;
nodes = (
"1454 32 LINE",
"1276 208 LINE",
"1390 338 OFFCURVE",
"1458 510 OFFCURVE",
"1458 700 CURVE SMOOTH",
"1458 1100 OFFCURVE",
"1150 1426 OFFCURVE",
"770 1426 CURVE SMOOTH",
"388 1426 OFFCURVE",
"80 1100 OFFCURVE",
"80 700 CURVE SMOOTH",
"80 300 OFFCURVE",
"388 -26 OFFCURVE",
"770 -26 CURVE SMOOTH",
"948 -26 OFFCURVE",
"1112 46 OFFCURVE",
"1236 166 CURVE",
"1412 -10 LINE"
);
},
{
closed = 1;
nodes = (
"424 34 OFFCURVE",
"140 334 OFFCURVE",
"140 700 CURVE SMOOTH",
"140 1058 OFFCURVE",
"418 1366 OFFCURVE",
"770 1366 CURVE SMOOTH",
"1114 1366 OFFCURVE",
"1398 1066 OFFCURVE",
"1398 700 CURVE SMOOTH",
"1398 536 OFFCURVE",
"1340 376 OFFCURVE",
"1234 252 CURVE",
"966 520 LINE",
"924 476 LINE",
"1192 208 LINE",
"1082 98 OFFCURVE",
"924 34 OFFCURVE",
"770 34 CURVE SMOOTH"
);
}
);
width = 1538;
}
);
leftKerningGroup = O;
rightKerningGroup = O;
unicode = 0051;
},
{
glyphname = R;
lastChange = "2021-08-26 03:05:31 +0000";
layers = (
{
anchors = (
{
name = bottom;
position = "{633, 0}";
},
{
name = top;
position = "{524, 1400}";
}
);
hints = (
{
horizontal = 1;
origin = "{0, 13}";
target = up;
type = BottomGhost;
},
{
horizontal = 1;
origin = "{0, 1}";
target = "{1, 8}";
type = Stem;
},
{
horizontal = 1;
origin = "{0, 12}";
target = "{1, 0}";
type = Stem;
},
{
origin = "{0, 13}";
target = "{0, 0}";
type = Stem;
},
{
origin = "{1, 4}";
target = "{0, 8}";
type = Stem;
}
);
layerId = "10BC12B3-5274-42E3-B5BC-F74F362F0DF4";
paths = (
{
closed = 1;
nodes = (
"420 0 LINE",
"420 544 LINE",
"524 544 LINE",
"840 0 LINE",
"1186 0 LINE",
"854 572 LINE",
"1004 644 OFFCURVE",
"1100 792 OFFCURVE",
"1100 972 CURVE SMOOTH",
"1100 1206 OFFCURVE",
"920 1400 OFFCURVE",
"690 1400 CURVE SMOOTH",
"120 1400 LINE",
"120 0 LINE"
);
},
{
closed = 1;
nodes = (
"420 1144 LINE",
"654 1144 LINE SMOOTH",
"734 1144 OFFCURVE",
"800 1076 OFFCURVE",
"800 994 CURVE SMOOTH",
"800 912 OFFCURVE",
"734 844 OFFCURVE",
"654 844 CURVE SMOOTH",
"420 844 LINE"
);
}
);
width = 1266;
},
{
anchors = (
{
name = bottom;
position = "{505, 0}";
},
{
name = top;
position = "{394, 1400}";
}
);
hints = (
{
horizontal = 1;
origin = "{0, 13}";
target = up;
type = BottomGhost;
},
{
horizontal = 1;
origin = "{0, 1}";
target = "{1, 8}";
type = Stem;
},
{
horizontal = 1;
origin = "{0, 12}";
target = "{1, 0}";
type = Stem;
},
{
horizontal = 1;
origin = "{0, 5}";
target = "{1, 8}";
type = Stem;
},
{
origin = "{0, 13}";
target = "{0, 0}";
type = Stem;
},
{
origin = "{1, 4}";
target = "{0, 8}";
type = Stem;
}
);
layerId = "9AF1F7D9-E035-453E-B2A8-46DE370997D0";
paths = (
{
closed = 1;
nodes = (
"180 0 LINE",
"180 600 LINE",
"512 600 LINE",
"860 0 LINE",
"930 0 LINE",
"582 602 LINE",
"780 618 OFFCURVE",
"940 782 OFFCURVE",
"940 1000 CURVE SMOOTH",
"940 1228 OFFCURVE",
"768 1400 OFFCURVE",
"548 1400 CURVE SMOOTH",
"120 1400 LINE",
"120 0 LINE"
);
},
{
closed = 1;
nodes = (
"180 1340 LINE",
"548 1340 LINE SMOOTH",
"730 1340 OFFCURVE",
"880 1196 OFFCURVE",
"880 1000 CURVE SMOOTH",
"880 804 OFFCURVE",
"730 660 OFFCURVE",
"548 660 CURVE SMOOTH",
"180 660 LINE"
);
}
);
width = 1040;
}
);
leftKerningGroup = H;
leftMetricsKey = H;
rightKerningGroup = R;
unicode = 0052;
},
{
glyphname = S;
lastChange = "2021-08-26 03:05:31 +0000";
layers = (
{
anchors = (
{
name = bottom;
position = "{715, 0}";
},
{
name = top;
position = "{632, 1400}";
}
);
hints = (
{
horizontal = 1;
origin = "{0, 37}";
target = "{0, 30}";
type = Stem;
},
{
horizontal = 1;
origin = "{0, 18}";
target = "{0, 11}";
type = Stem;
},
{
origin = "{0, 34}";
target = "{0, 8}";
type = Stem;
},
{
origin = "{0, 27}";
target = "{0, 2}";
type = Stem;
}
);
layerId = "10BC12B3-5274-42E3-B5BC-F74F362F0DF4";
paths = (
{
closed = 1;
nodes = (
"918 -26 OFFCURVE",
"1164 150 OFFCURVE",
"1164 412 CURVE SMOOTH",
"1164 670 OFFCURVE",
"920 808 OFFCURVE",
"632 850 CURVE SMOOTH",
"506 868 OFFCURVE",
"400 880 OFFCURVE",
"400 988 CURVE SMOOTH",
"400 1066 OFFCURVE",
"516 1126 OFFCURVE",
"632 1124 CURVE SMOOTH",
"762 1124 OFFCURVE",
"862 1066 OFFCURVE",
"882 1008 CURVE",
"1164 1110 LINE",
"1094 1308 OFFCURVE",
"868 1426 OFFCURVE",
"632 1426 CURVE SMOOTH",
"350 1426 OFFCURVE",
"100 1250 OFFCURVE",
"100 988 CURVE SMOOTH",
"100 714 OFFCURVE",
"328 594 OFFCURVE",
"632 550 CURVE SMOOTH",
"744 534 OFFCURVE",
"864 496 OFFCURVE",
"864 412 CURVE SMOOTH",
"864 330 OFFCURVE",
"752 274 OFFCURVE",
"632 274 CURVE SMOOTH",
"502 274 OFFCURVE",
"402 334 OFFCURVE",
"382 392 CURVE",
"100 288 LINE",
"172 92 OFFCURVE",
"396 -26 OFFCURVE",
"632 -26 CURVE SMOOTH"
);
}
);
width = 1264;
},
{
anchors = (
{
name = bottom;
position = "{663, 0}";
},
{
name = top;
position = "{599, 1400}";
}
);
hints = (
{
horizontal = 1;
origin = "{0, 37}";
target = "{0, 30}";
type = Stem;
},
{
horizontal = 1;
origin = "{0, 18}";
target = "{0, 11}";
type = Stem;
},
{
origin = "{0, 21}";
target = "{0, 8}";
type = Stem;
},
{
origin = "{0, 27}";
target = "{0, 2}";
type = Stem;
}
);
layerId = "9AF1F7D9-E035-453E-B2A8-46DE370997D0";
paths = (
{
closed = 1;
nodes = (
"858 -26 OFFCURVE",
"1088 120 OFFCURVE",
"1088 350 CURVE SMOOTH",
"1088 576 OFFCURVE",
"856 682 OFFCURVE",
"598 730 CURVE SMOOTH",
"352 776 OFFCURVE",
"170 826 OFFCURVE",
"170 1042 CURVE SMOOTH",
"170 1232 OFFCURVE",
"370 1358 OFFCURVE",
"598 1358 CURVE SMOOTH",
"780 1358 OFFCURVE",
"984 1276 OFFCURVE",
"1040 1118 CURVE",
"1098 1138 LINE",
"1028 1320 OFFCURVE",
"806 1418 OFFCURVE",
"598 1418 CURVE SMOOTH",
"340 1418 OFFCURVE",
"110 1272 OFFCURVE",
"110 1042 CURVE SMOOTH",
"110 790 OFFCURVE",
"320 718 OFFCURVE",
"598 666 CURVE SMOOTH",
"814 626 OFFCURVE",
"1028 546 OFFCURVE",
"1028 350 CURVE SMOOTH",
"1028 158 OFFCURVE",
"824 34 OFFCURVE",
"598 34 CURVE SMOOTH",
"416 34 OFFCURVE",
"212 116 OFFCURVE",
"156 274 CURVE",
"100 252 LINE",
"160 78 OFFCURVE",
"380 -26 OFFCURVE",
"598 -26 CURVE SMOOTH"
);
}
);
width = 1198;
}
);
leftKerningGroup = S;
rightKerningGroup = S;
unicode = 0053;
},
{
glyphname = Germandbls;
lastChange = "2021-08-26 03:05:31 +0000";
layers = (
{
anchors = (
{
name = bottom;
position = "{623, 0}";
},
{
name = top;
position = "{623, 1400}";
}
);
hints = (
{
horizontal = 1;
origin = "{0, 37}";
target = "{0, 19}";
type = Stem;
},
{
horizontal = 1;
place = "{594, 144}";
type = Stem;
},
{
horizontal = 1;
origin = "{0, 33}";
target = "{0, 4}";
type = Stem;
},
{
origin = "{0, 37}";
target = "{0, 0}";
type = Stem;
},
{
origin = "{0, 7}";
target = "{0, 30}";
type = Stem;
},
{
origin = "{0, 15}";
target = "{0, 24}";
type = Stem;
}
);
layerId = "10BC12B3-5274-42E3-B5BC-F74F362F0DF4";
paths = (
{
closed = 1;
nodes = (
"420 0 LINE",
"420 950 LINE SMOOTH",
"420 1058 OFFCURVE",
"508 1144 OFFCURVE",
"594 1144 CURVE SMOOTH",
"680 1144 OFFCURVE",
"758 1148 OFFCURVE",
"758 1074 CURVE SMOOTH",
"758 1040 OFFCURVE",
"590 858 OFFCURVE",
"590 704 CURVE SMOOTH",
"590 594 LINE",
"672 594 LINE SMOOTH",
"776 594 OFFCURVE",
"920 556 OFFCURVE",
"920 424 CURVE SMOOTH",
"920 292 OFFCURVE",
"776 254 OFFCURVE",
"672 254 CURVE SMOOTH",
"590 254 LINE",
"650 0 LINE",
"704 0 LINE SMOOTH",
"936 0 OFFCURVE",
"1186 150 OFFCURVE",
"1186 422 CURVE SMOOTH",
"1186 586 OFFCURVE",
"1010 770 OFFCURVE",
"832 734 CURVE",
"974 906 OFFCURVE",
"1058 972 OFFCURVE",
"1058 1068 CURVE SMOOTH",
"1058 1248 OFFCURVE",
"858 1400 OFFCURVE",
"650 1400 CURVE SMOOTH",
"358 1400 OFFCURVE",
"120 1162 OFFCURVE",
"120 870 CURVE SMOOTH",
"120 0 LINE"
);
}
);
width = 1246;
},
{
anchors = (
{
name = bottom;
position = "{535, 0}";
},
{
name = top;
position = "{535, 1400}";
}
);
hints = (
{
horizontal = 1;
origin = "{0, 37}";
target = "{0, 19}";
type = Stem;
},
{
horizontal = 1;
origin = "{0, 11}";
target = "{0, 27}";
type = Stem;
},
{
horizontal = 1;
origin = "{0, 4}";
target = "{0, 33}";
type = Stem;
},
{
origin = "{0, 37}";
target = "{0, 0}";
type = Stem;
},
{
origin = "{0, 7}";
target = "{0, 30}";
type = Stem;
},
{
origin = "{0, 15}";
target = "{0, 24}";
type = Stem;
}
);
layerId = "9AF1F7D9-E035-453E-B2A8-46DE370997D0";
paths = (
{
closed = 1;
nodes = (
"180 0 LINE",
"180 994 LINE SMOOTH",
"180 1184 OFFCURVE",
"332 1338 OFFCURVE",
"522 1338 CURVE SMOOTH",
"672 1338 OFFCURVE",
"804 1282 OFFCURVE",
"806 1152 CURVE SMOOTH",
"808 1032 OFFCURVE",
"510 754 OFFCURVE",
"518 694 CURVE SMOOTH",
"522 662 LINE",
"588 662 LINE SMOOTH",
"754 662 OFFCURVE",
"950 568 OFFCURVE",
"950 364 CURVE SMOOTH",
"950 156 OFFCURVE",
"756 60 OFFCURVE",
"590 60 CURVE SMOOTH",
"496 60 LINE",
"516 0 LINE",
"590 0 LINE SMOOTH",
"788 0 OFFCURVE",
"1010 122 OFFCURVE",
"1010 362 CURVE SMOOTH",
"1010 588 OFFCURVE",
"802 740 OFFCURVE",
"602 720 CURVE",
"800 992 OFFCURVE",
"876 1070 OFFCURVE",
"876 1152 CURVE SMOOTH",
"876 1320 OFFCURVE",
"716 1398 OFFCURVE",
"526 1398 CURVE SMOOTH",
"302 1398 OFFCURVE",
"120 1216 OFFCURVE",
"120 992 CURVE SMOOTH",
"120 0 LINE"
);
}
);
width = 1070;
}
);
leftKerningGroup = Germandbls;
rightKerningGroup = Germandbls;
unicode = 1E9E;
},
{
glyphname = T;
lastChange = "2021-08-26 16:39:42 +0000";
layers = (
{
anchors = (
{
name = bottom;
position = "{630, 0}";
},
{
name = center;
position = "{630, 700}";
},
{
name = top;
position = "{630, 1400}";
}
);
hints = (
{
horizontal = 1;
origin = "{0, 3}";
target = up;
type = BottomGhost;
},
{
horizontal = 1;
origin = "{0, 0}";
target = "{0, 1}";
type = Stem;
},
{
origin = "{0, 3}";
target = "{0, 4}";
type = Stem;
}
);
layerId = "10BC12B3-5274-42E3-B5BC-F74F362F0DF4";
paths = (
{
closed = 1;
nodes = (
"80 1400 LINE",
"80 1100 LINE",
"480 1100 LINE",
"480 0 LINE",
"780 0 LINE",
"780 1100 LINE",
"1180 1100 LINE",
"1180 1400 LINE"
);
}
);
width = 1260;
},
{
anchors = (
{
name = bottom;
position = "{628, 0}";
},
{
name = center;
position = "{629, 700}";
},
{
name = top;
position = "{629, 1400}";
}
);
hints = (
{
horizontal = 1;
origin = "{0, 3}";
target = up;
type = BottomGhost;
},
{
horizontal = 1;
origin = "{0, 0}";
target = "{0, 1}";
type = Stem;
},
{
origin = "{0, 3}";
target = "{0, 4}";
type = Stem;
}
);
layerId = "9AF1F7D9-E035-453E-B2A8-46DE370997D0";
paths = (
{
closed = 1;
nodes = (
"80 1400 LINE",
"80 1340 LINE",
"598 1340 LINE",
"598 0 LINE",
"658 0 LINE",
"658 1340 LINE",
"1178 1340 LINE",
"1178 1400 LINE"
);
}
);
width = 1258;
}
);
leftKerningGroup = T;
rightKerningGroup = T;
unicode = 0054;
},
{
glyphname = U;
lastChange = "2021-08-26 03:05:31 +0000";
layers = (
{
anchors = (
{
name = bottom;
position = "{689, 0}";
},
{
name = ogonek;
position = "{862, 0}";
},
{
name = top;
position = "{689, 1400}";
},
{
name = topright;
position = "{1358, 1400}";
}
);
hints = (
{
horizontal = 1;
origin = "{0, 17}";
target = "{0, 8}";
type = Stem;
},
{
horizontal = 1;
origin = "{0, 13}";
target = down;
type = TopGhost;
},
{
origin = "{0, 14}";
target = "{0, 11}";
type = Stem;
},
{
origin = "{0, 5}";
target = "{0, 2}";
type = Stem;
}
);
layerId = "10BC12B3-5274-42E3-B5BC-F74F362F0DF4";
paths = (
{
closed = 1;
nodes = (
"1026 -26 OFFCURVE",
"1258 246 OFFCURVE",
"1258 584 CURVE SMOOTH",
"1258 1400 LINE",
"958 1400 LINE",
"958 584 LINE SMOOTH",
"958 412 OFFCURVE",
"862 274 OFFCURVE",
"690 274 CURVE SMOOTH",
"520 274 OFFCURVE",
"420 414 OFFCURVE",
"420 584 CURVE SMOOTH",
"420 1400 LINE",
"120 1400 LINE",
"120 584 LINE SMOOTH",
"120 246 OFFCURVE",
"354 -26 OFFCURVE",
"690 -26 CURVE SMOOTH"
);
}
);
width = 1378;
},
{
anchors = (
{
name = bottom;
position = "{650, 0}";
},
{
name = ogonek;
position = "{739, -16}";
},
{
name = top;
position = "{650, 1400}";
},
{
name = topright;
position = "{1280, 1400}";
}
);
hints = (
{
horizontal = 1;
origin = "{0, 17}";
target = "{0, 8}";
type = Stem;
},
{
horizontal = 1;
origin = "{0, 13}";
target = down;
type = TopGhost;
},
{
origin = "{0, 14}";
target = "{0, 11}";
type = Stem;
},
{
origin = "{0, 5}";
target = "{0, 2}";
type = Stem;
}
);
layerId = "9AF1F7D9-E035-453E-B2A8-46DE370997D0";
paths = (
{
closed = 1;
nodes = (
"986 -26 OFFCURVE",
"1180 246 OFFCURVE",
"1180 584 CURVE SMOOTH",
"1180 1400 LINE",
"1120 1400 LINE",
"1120 584 LINE SMOOTH",
"1120 288 OFFCURVE",
"958 34 OFFCURVE",
"650 34 CURVE SMOOTH",
"346 34 OFFCURVE",
"180 284 OFFCURVE",
"180 584 CURVE SMOOTH",
"180 1400 LINE",
"120 1400 LINE",
"120 584 LINE SMOOTH",
"120 246 OFFCURVE",
"314 -26 OFFCURVE",
"650 -26 CURVE SMOOTH"
);
}
);
width = 1300;
}
);
leftKerningGroup = U;
rightKerningGroup = U;
unicode = 0055;
},
{
glyphname = V;
lastChange = "2021-08-26 03:05:31 +0000";
layers = (
{
anchors = (
{
name = bottom;
position = "{802, 0}";
},
{
name = top;
position = "{802, 1400}";
}
);
hints = (
{
horizontal = 1;
origin = "{0, 6}";
target = up;
type = BottomGhost;
},
{
horizontal = 1;
origin = "{0, 5}";
target = down;
type = TopGhost;
}
);
layerId = "10BC12B3-5274-42E3-B5BC-F74F362F0DF4";
paths = (
{
closed = 1;
nodes = (
"996 0 LINE",
"1504 1400 LINE",
"1186 1400 LINE",
"802 344 LINE",
"418 1400 LINE",
"100 1400 LINE",
"608 0 LINE"
);
}
);
width = 1604;
},
{
anchors = (
{
name = bottom;
position = "{559, 0}";
},
{
name = top;
position = "{559, 1400}";
}
);
hints = (
{
horizontal = 1;
origin = "{0, 6}";
target = up;
type = BottomGhost;
},
{
horizontal = 1;
origin = "{0, 5}";
target = down;
type = TopGhost;
}
);
layerId = "9AF1F7D9-E035-453E-B2A8-46DE370997D0";
paths = (
{
closed = 1;
nodes = (
"588 0 LINE",
"1098 1400 LINE",
"1034 1400 LINE",
"558 92 LINE",
"84 1400 LINE",
"20 1400 LINE",
"528 0 LINE"
);
}
);
width = 1118;
}
);
leftKerningGroup = W;
leftMetricsKey = W;
rightKerningGroup = W;
rightMetricsKey = W;
unicode = 0056;
},
{
glyphname = W;
lastChange = "2021-08-26 03:05:31 +0000";
layers = (
{
anchors = (
{
name = bottom;
position = "{980, 0}";
},
{
name = top;
position = "{980, 1400}";
}
);
hints = (
{
horizontal = 1;
origin = "{0, 12}";
target = up;
type = BottomGhost;
},
{
horizontal = 1;
origin = "{0, 11}";
target = down;
type = TopGhost;
}
);
layerId = "10BC12B3-5274-42E3-B5BC-F74F362F0DF4";
paths = (
{
closed = 1;
nodes = (
"796 0 LINE",
"980 726 LINE",
"1166 0 LINE",
"1504 0 LINE",
"1860 1400 LINE",
"1550 1400 LINE",
"1334 552 LINE",
"1118 1400 LINE",
"842 1400 LINE",
"626 552 LINE",
"410 1400 LINE",
"100 1400 LINE",
"458 0 LINE"
);
}
);
width = 1960;
},
{
anchors = (
{
name = bottom;
position = "{776, 0}";
},
{
name = top;
position = "{776, 1400}";
}
);
hints = (
{
horizontal = 1;
origin = "{0, 12}";
target = "{0, 9}";
type = Stem;
},
{
horizontal = 1;
origin = "{0, 11}";
target = down;
type = TopGhost;
}
);
layerId = "9AF1F7D9-E035-453E-B2A8-46DE370997D0";
paths = (
{
closed = 1;
nodes = (
"456 0 LINE",
"776 1250 LINE",
"1096 0 LINE",
"1176 0 LINE",
"1532 1400 LINE",
"1470 1400 LINE",
"1136 86 LINE",
"800 1400 LINE",
"752 1400 LINE",
"418 86 LINE",
"82 1400 LINE",
"20 1400 LINE",
"378 0 LINE"
);
}
);
width = 1552;
}
);
leftKerningGroup = W;
rightKerningGroup = W;
unicode = 0057;
},
{
glyphname = X;
lastChange = "2021-08-26 03:05:31 +0000";
layers = (
{
anchors = (
{
name = bottom;
position = "{758, 0}";
},
{
name = top;
position = "{758, 1400}";
}
);
hints = (
{
horizontal = 1;
origin = "{0, 11}";
target = up;
type = BottomGhost;
},
{
horizontal = 1;
origin = "{0, 9}";
target = down;
type = TopGhost;
}
);
layerId = "10BC12B3-5274-42E3-B5BC-F74F362F0DF4";
paths = (
{
closed = 1;
nodes = (
"432 0 LINE",
"758 448 LINE",
"1084 0 LINE",
"1456 0 LINE",
"944 704 LINE",
"1450 1400 LINE",
"1080 1400 LINE",
"758 958 LINE",
"436 1400 LINE",
"66 1400 LINE",
"572 704 LINE",
"60 0 LINE"
);
}
);
width = 1516;
},
{
anchors = (
{
name = bottom;
position = "{610, 0}";
},
{
name = top;
position = "{610, 1400}";
}
);
hints = (
{
horizontal = 1;
origin = "{0, 11}";
target = up;
type = BottomGhost;
},
{
horizontal = 1;
origin = "{0, 9}";
target = down;
type = TopGhost;
}
);
layerId = "9AF1F7D9-E035-453E-B2A8-46DE370997D0";
paths = (
{
closed = 1;
nodes = (
"136 0 LINE",
"610 652 LINE",
"1086 0 LINE",
"1160 0 LINE",
"648 704 LINE",
"1154 1400 LINE",
"1080 1400 LINE",
"610 754 LINE",
"140 1400 LINE",
"66 1400 LINE",
"574 704 LINE",
"60 0 LINE"
);
}
);
width = 1220;
}
);
leftKerningGroup = X;
rightKerningGroup = X;
unicode = 0058;
},
{
glyphname = Y;
lastChange = "2021-08-26 03:05:31 +0000";
layers = (
{
anchors = (
{
name = bottom;
position = "{696, 0}";
},
{
name = top;
position = "{696, 1400}";
},
{
name = topleft;
position = "{20, 1400}";
}
);
hints = (
{
horizontal = 1;
origin = "{0, 4}";
target = up;
type = BottomGhost;
},
{
horizontal = 1;
origin = "{0, 2}";
target = down;
type = TopGhost;
},
{
origin = "{0, 4}";
target = "{0, 5}";
type = Stem;
}
);
layerId = "10BC12B3-5274-42E3-B5BC-F74F362F0DF4";
paths = (
{
closed = 1;
nodes = (
"696 956 LINE",
"414 1400 LINE",
"60 1400 LINE",
"546 630 LINE",
"546 0 LINE",
"846 0 LINE",
"846 630 LINE",
"1332 1400 LINE",
"978 1400 LINE"
);
}
);
width = 1392;
},
{
anchors = (
{
name = bottom;
position = "{554, 0}";
},
{
name = top;
position = "{554, 1400}";
},
{
name = topleft;
position = "{20, 1400}";
}
);
hints = (
{
horizontal = 1;
origin = "{0, 4}";
target = up;
type = BottomGhost;
},
{
horizontal = 1;
origin = "{0, 2}";
target = down;
type = TopGhost;
},
{
origin = "{0, 4}";
target = "{0, 5}";
type = Stem;
}
);
layerId = "9AF1F7D9-E035-453E-B2A8-46DE370997D0";
paths = (
{
closed = 1;
nodes = (
"554 702 LINE",
"130 1400 LINE",
"60 1400 LINE",
"524 636 LINE",
"524 0 LINE",
"584 0 LINE",
"584 636 LINE",
"1048 1400 LINE",
"978 1400 LINE"
);
}
);
width = 1108;
}
);
leftKerningGroup = Y;
rightKerningGroup = Y;
unicode = 0059;
},
{
glyphname = Z;
lastChange = "2021-08-26 03:05:31 +0000";
layers = (
{
anchors = (
{
name = bottom;
position = "{686, 0}";
},
{
name = center;
position = "{686, 700}";
},
{
name = top;
position = "{686, 1400}";
}
);
hints = (
{
horizontal = 1;
origin = "{0, 9}";
target = "{0, 8}";
type = Stem;
},
{
horizontal = 1;
origin = "{0, 5}";
target = "{0, 6}";
type = Stem;
}
);
layerId = "10BC12B3-5274-42E3-B5BC-F74F362F0DF4";
paths = (
{
closed = 1;
nodes = (
"1252 0 LINE",
"1252 300 LINE",
"526 300 LINE",
"1252 1100 LINE",
"1252 1400 LINE",
"120 1400 LINE",
"120 1100 LINE",
"846 1100 LINE",
"120 300 LINE",
"120 0 LINE"
);
}
);
width = 1372;
},
{
anchors = (
{
name = bottom;
position = "{686, 0}";
},
{
name = center;
position = "{686, 700}";
},
{
name = top;
position = "{686, 1400}";
}
);
hints = (
{
horizontal = 1;
origin = "{0, 9}";
target = "{0, 8}";
type = Stem;
},
{
horizontal = 1;
origin = "{0, 5}";
target = "{0, 6}";
type = Stem;
}
);
layerId = "9AF1F7D9-E035-453E-B2A8-46DE370997D0";
paths = (
{
closed = 1;
nodes = (
"1252 0 LINE",
"1252 60 LINE",
"198 60 LINE",
"1252 1340 LINE",
"1252 1400 LINE",
"120 1400 LINE",
"120 1340 LINE",
"1174 1340 LINE",
"120 60 LINE",
"120 0 LINE"
);
}
);
width = 1372;
}
);
leftKerningGroup = Z;
rightKerningGroup = Z;
unicode = 005A;
},
{
glyphname = a;
lastChange = "2021-08-26 17:00:01 +0000";
layers = (
{
anchors = (
{
name = bottom;
position = "{623, 0}";
},
{
name = ogonek;
position = "{1138, 0}";
},
{
name = top;
position = "{623, 1000}";
}
);
hints = (
{
horizontal = 1;
origin = "{0, 9}";
target = "{0, 12}";
type = Stem;
},
{
horizontal = 1;
origin = "{0, 16}";
target = down;
type = TopGhost;
},
{
horizontal = 1;
origin = "{0, 3}";
target = "{0, 0}";
type = Stem;
},
{
horizontal = 1;
origin = "{0, 13}";
target = up;
type = BottomGhost;
},
{
origin = "{0, 16}";
target = "{0, 14}";
type = Stem;
}
);
layerId = "10BC12B3-5274-42E3-B5BC-F74F362F0DF4";
paths = (
{
closed = 1;
nodes = (
"852 904 LINE",
"778 974 OFFCURVE",
"685 1028 OFFCURVE",
"570 1028 CURVE SMOOTH",
"287 1028 OFFCURVE",
"59 798 OFFCURVE",
"60 514 CURVE SMOOTH",
"59 216 OFFCURVE",
"300 -26 OFFCURVE",
"598 -26 CURVE SMOOTH",
"698 -26 OFFCURVE",
"773 20 OFFCURVE",
"823 90 CURVE",
"837 0 LINE",
"1138 0 LINE",
"1138 1000 LINE",
"838 1000 LINE"
);
},
{
closed = 1;
nodes = (
"468 262 OFFCURVE",
"368 368 OFFCURVE",
"368 500 CURVE SMOOTH",
"368 632 OFFCURVE",
"465 738 OFFCURVE",
"590 738 CURVE SMOOTH",
"714 738 OFFCURVE",
"814 632 OFFCURVE",
"814 500 CURVE SMOOTH",
"814 368 OFFCURVE",
"714 262 OFFCURVE",
"590 262 CURVE SMOOTH"
);
}
);
width = 1218;
},
{
anchors = (
{
name = bottom;
position = "{582, 0}";
},
{
name = ogonek;
position = "{1054, 0}";
},
{
name = top;
position = "{582, 1000}";
}
);
hints = (
{
horizontal = 1;
origin = "{0, 9}";
target = "{1, 11}";
type = Stem;
},
{
horizontal = 1;
origin = "{0, 16}";
target = down;
type = TopGhost;
},
{
horizontal = 1;
origin = "{0, 3}";
target = "{1, 5}";
type = Stem;
},
{
horizontal = 1;
origin = "{0, 13}";
target = up;
type = BottomGhost;
},
{
origin = "{0, 6}";
target = "{1, 2}";
type = Stem;
},
{
origin = "{0, 13}";
target = "{0, 14}";
type = Stem;
},
{
origin = "{1, 8}";
target = "{0, 14}";
type = Stem;
}
);
layerId = "9AF1F7D9-E035-453E-B2A8-46DE370997D0";
paths = (
{
closed = 1;
nodes = (
"994 768 LINE",
"922 924 OFFCURVE",
"780 1028 OFFCURVE",
"586 1028 CURVE SMOOTH",
"296 1028 OFFCURVE",
"60 792 OFFCURVE",
"60 500 CURVE SMOOTH",
"60 210 OFFCURVE",
"296 -26 OFFCURVE",
"586 -26 CURVE SMOOTH",
"780 -26 OFFCURVE",
"922 78 OFFCURVE",
"994 234 CURVE",
"994 0 LINE",
"1054 0 LINE",
"1054 1000 LINE",
"994 1000 LINE"
);
},
{
closed = 1;
nodes = (
"336 34 OFFCURVE",
"120 238 OFFCURVE",
"120 500 CURVE SMOOTH",
"120 758 OFFCURVE",
"328 968 OFFCURVE",
"586 968 CURVE SMOOTH",
"840 968 OFFCURVE",
"990 762 OFFCURVE",
"990 500 CURVE SMOOTH",
"990 244 OFFCURVE",
"844 34 OFFCURVE",
"586 34 CURVE SMOOTH"
);
}
);
width = 1134;
}
);
leftKerningGroup = o;
leftMetricsKey = o;
rightKerningGroup = n;
rightMetricsKey = n;
unicode = 0061;
},
{
glyphname = ae;
lastChange = "2021-08-26 03:05:31 +0000";
layers = (
{
anchors = (
{
name = bottom;
position = "{909, 0}";
},
{
name = top;
position = "{909, 1000}";
}
);
hints = (
{
horizontal = 1;
origin = "{0, 43}";
target = "{1, 10}";
type = Stem;
},
{
horizontal = 1;
origin = "{1, 5}";
target = "{0, 37}";
type = Stem;
},
{
horizontal = 1;
origin = "{0, 26}";
target = "{0, 33}";
type = Stem;
},
{
horizontal = 1;
origin = "{0, 26}";
target = "{2, 2}";
type = Stem;
},
{
origin = "{0, 40}";
target = "{1, 2}";
type = Stem;
}
);
layerId = "10BC12B3-5274-42E3-B5BC-F74F362F0DF4";
paths = (
{
closed = 1;
nodes = (
"630 -26 LINE SMOOTH",
"764 -26 OFFCURVE",
"844 14 OFFCURVE",
"930 102 CURVE",
"1018 22 OFFCURVE",
"1132 -26 OFFCURVE",
"1258 -26 CURVE SMOOTH",
"1458 -26 OFFCURVE",
"1630 98 OFFCURVE",
"1710 276 CURVE",
"1404 348 LINE",
"1368 302 OFFCURVE",
"1316 274 OFFCURVE",
"1258 274 CURVE SMOOTH",
"1164 276 OFFCURVE",
"1110 330 OFFCURVE",
"1082 402 CURVE",
"1748 402 LINE",
"1808 722 OFFCURVE",
"1576 1028 OFFCURVE",
"1258 1028 CURVE SMOOTH",
"1134 1028 OFFCURVE",
"1022 982 OFFCURVE",
"934 904 CURVE",
"846 990 OFFCURVE",
"714 1028 OFFCURVE",
"552 1028 CURVE SMOOTH",
"356 1028 OFFCURVE",
"214 1004 OFFCURVE",
"118 838 CURVE",
"376 686 LINE",
"394 716 OFFCURVE",
"416 756 OFFCURVE",
"552 756 CURVE SMOOTH",
"664 756 OFFCURVE",
"746 708 OFFCURVE",
"762 622 CURVE",
"358 622 LINE SMOOTH",
"198 622 OFFCURVE",
"80 502 OFFCURVE",
"80 344 CURVE SMOOTH",
"80 118 OFFCURVE",
"220 -26 OFFCURVE",
"504 -26 CURVE SMOOTH"
);
},
{
closed = 1;
nodes = (
"438 154 OFFCURVE",
"370 214 OFFCURVE",
"370 310 CURVE SMOOTH",
"370 392 OFFCURVE",
"442 402 OFFCURVE",
"530 402 CURVE SMOOTH",
"752 402 LINE",
"752 344 LINE SMOOTH",
"752 246 OFFCURVE",
"662 154 OFFCURVE",
"550 154 CURVE SMOOTH"
);
},
{
closed = 1;
nodes = (
"1098 708 OFFCURVE",
"1172 768 OFFCURVE",
"1258 768 CURVE SMOOTH",
"1344 768 OFFCURVE",
"1416 708 OFFCURVE",
"1444 622 CURVE",
"1070 622 LINE"
);
}
);
width = 1818;
},
{
anchors = (
{
name = bottom;
position = "{954, 0}";
},
{
name = top;
position = "{954, 1000}";
}
);
hints = (
{
horizontal = 1;
origin = "{0, 43}";
target = "{1, 10}";
type = Stem;
},
{
horizontal = 1;
origin = "{1, 5}";
target = "{0, 37}";
type = Stem;
},
{
horizontal = 1;
origin = "{0, 33}";
target = "{0, 26}";
type = Stem;
},
{
origin = "{0, 40}";
target = "{1, 2}";
type = Stem;
},
{
origin = "{1, 7}";
target = "{0, 16}";
type = Stem;
},
{
origin = "{2, 5}";
target = "{0, 17}";
type = Stem;
},
{
origin = "{0, 36}";
target = "{0, 16}";
type = Stem;
}
);
layerId = "9AF1F7D9-E035-453E-B2A8-46DE370997D0";
paths = (
{
closed = 1;
nodes = (
"572 0 LINE SMOOTH",
"740 0 OFFCURVE",
"880 122 OFFCURVE",
"904 284 CURVE",
"988 116 OFFCURVE",
"1154 0 OFFCURVE",
"1348 0 CURVE SMOOTH",
"1548 0 OFFCURVE",
"1720 124 OFFCURVE",
"1800 302 CURVE",
"1740 316 LINE",
"1660 156 OFFCURVE",
"1518 60 OFFCURVE",
"1348 60 CURVE SMOOTH",
"1118 60 OFFCURVE",
"928 246 OFFCURVE",
"908 496 CURVE",
"1846 496 LINE",
"1840 830 OFFCURVE",
"1634 1054 OFFCURVE",
"1348 1054 CURVE SMOOTH",
"1142 1054 OFFCURVE",
"964 922 OFFCURVE",
"888 734 CURVE",
"858 914 OFFCURVE",
"778 1054 OFFCURVE",
"530 1054 CURVE SMOOTH",
"398 1054 OFFCURVE",
"234 1014 OFFCURVE",
"160 888 CURVE",
"212 858 LINE",
"276 964 OFFCURVE",
"420 994 OFFCURVE",
"530 994 CURVE SMOOTH",
"826 994 OFFCURVE",
"830 796 OFFCURVE",
"846 556 CURVE",
"426 556 LINE SMOOTH",
"246 556 OFFCURVE",
"80 516 OFFCURVE",
"70 318 CURVE",
"74 92 OFFCURVE",
"280 0 OFFCURVE",
"460 0 CURVE SMOOTH"
);
},
{
closed = 1;
nodes = (
"312 60 OFFCURVE",
"134 112 OFFCURVE",
"130 318 CURVE",
"136 458 OFFCURVE",
"250 496 OFFCURVE",
"426 496 CURVE SMOOTH",
"848 496 LINE",
"848 384 LINE SMOOTH",
"848 330 OFFCURVE",
"858 60 OFFCURVE",
"518 60 CURVE SMOOTH"
);
},
{
closed = 1;
nodes = (
"924 798 OFFCURVE",
"1110 994 OFFCURVE",
"1348 994 CURVE SMOOTH",
"1584 994 OFFCURVE",
"1778 790 OFFCURVE",
"1786 556 CURVE",
"908 556 LINE"
);
}
);
width = 1907;
}
);
leftKerningGroup = o;
rightKerningGroup = e;
unicode = 00E6;
},
{
glyphname = b;
lastChange = "2021-08-26 03:05:31 +0000";
layers = (
{
anchors = (
{
name = bottom;
position = "{630, 0}";
},
{
name = top;
position = "{630, 1900}";
}
);
hints = (
{
horizontal = 1;
origin = "{0, 10}";
target = "{0, 7}";
type = Stem;
},
{
horizontal = 1;
origin = "{0, 16}";
target = "{0, 2}";
type = Stem;
},
{
horizontal = 1;
origin = "{0, 5}";
target = up;
type = BottomGhost;
},
{
origin = "{0, 5}";
target = "{0, 6}";
type = Stem;
},
{
origin = "{0, 16}";
target = "{0, 13}";
type = Stem;
},
{
origin = "{0, 5}";
target = "{0, 2}";
type = Stem;
}
);
layerId = "10BC12B3-5274-42E3-B5BC-F74F362F0DF4";
paths = (
{
closed = 1;
nodes = (
"566 1028 OFFCURVE",
"482 978 OFFCURVE",
"420 908 CURVE",
"420 1500 LINE",
"120 1500 LINE",
"120 0 LINE",
"420 0 LINE",
"420 94 LINE",
"482 24 OFFCURVE",
"566 -26 OFFCURVE",
"672 -26 CURVE SMOOTH",
"964 -26 OFFCURVE",
"1200 210 OFFCURVE",
"1200 502 CURVE SMOOTH",
"1200 792 OFFCURVE",
"964 1028 OFFCURVE",
"672 1028 CURVE SMOOTH"
);
},
{
closed = 1;
nodes = (
"546 264 OFFCURVE",
"446 370 OFFCURVE",
"446 502 CURVE SMOOTH",
"446 632 OFFCURVE",
"546 740 OFFCURVE",
"668 740 CURVE SMOOTH",
"792 740 OFFCURVE",
"892 632 OFFCURVE",
"892 502 CURVE SMOOTH",
"892 370 OFFCURVE",
"792 264 OFFCURVE",
"668 264 CURVE SMOOTH"
);
}
);
width = 1260;
},
{
anchors = (
{
name = bottom;
position = "{587, 0}";
},
{
name = top;
position = "{587, 1900}";
}
);
hints = (
{
horizontal = 1;
origin = "{0, 10}";
target = "{1, 11}";
type = Stem;
},
{
horizontal = 1;
origin = "{0, 16}";
target = "{1, 5}";
type = Stem;
},
{
horizontal = 1;
origin = "{0, 5}";
target = up;
type = BottomGhost;
},
{
origin = "{0, 5}";
target = "{0, 6}";
type = Stem;
},
{
origin = "{1, 8}";
target = "{0, 13}";
type = Stem;
},
{
origin = "{0, 5}";
target = "{1, 2}";
type = Stem;
}
);
layerId = "9AF1F7D9-E035-453E-B2A8-46DE370997D0";
paths = (
{
closed = 1;
nodes = (
"394 1028 OFFCURVE",
"252 924 OFFCURVE",
"180 768 CURVE",
"180 1500 LINE",
"120 1500 LINE",
"120 0 LINE",
"180 0 LINE",
"180 234 LINE",
"252 78 OFFCURVE",
"394 -26 OFFCURVE",
"588 -26 CURVE SMOOTH",
"878 -26 OFFCURVE",
"1114 210 OFFCURVE",
"1114 500 CURVE SMOOTH",
"1114 792 OFFCURVE",
"878 1028 OFFCURVE",
"588 1028 CURVE SMOOTH"
);
},
{
closed = 1;
nodes = (
"334 34 OFFCURVE",
"184 240 OFFCURVE",
"184 500 CURVE SMOOTH",
"184 756 OFFCURVE",
"330 968 OFFCURVE",
"588 968 CURVE SMOOTH",
"838 968 OFFCURVE",
"1054 764 OFFCURVE",
"1054 500 CURVE SMOOTH",
"1054 244 OFFCURVE",
"846 34 OFFCURVE",
"588 34 CURVE SMOOTH"
);
}
);
width = 1174;
}
);
leftKerningGroup = l;
leftMetricsKey = l;
rightKerningGroup = o;
rightMetricsKey = o;
unicode = 0062;
},
{
glyphname = c;
lastChange = "2021-08-26 03:05:31 +0000";
layers = (
{
anchors = (
{
name = bottom;
position = "{560, 0}";
},
{
name = top;
position = "{560, 1000}";
}
);
hints = (
{
horizontal = 1;
origin = "{0, 21}";
target = "{0, 2}";
type = Stem;
},
{
horizontal = 1;
origin = "{0, 15}";
target = "{0, 8}";
type = Stem;
},
{
origin = "{0, 18}";
target = "{0, 5}";
type = Stem;
}
);
layerId = "10BC12B3-5274-42E3-B5BC-F74F362F0DF4";
paths = (
{
closed = 1;
nodes = (
"654 294 OFFCURVE",
"608 274 OFFCURVE",
"560 274 CURVE SMOOTH",
"446 274 OFFCURVE",
"360 382 OFFCURVE",
"360 500 CURVE SMOOTH",
"360 620 OFFCURVE",
"446 728 OFFCURVE",
"560 728 CURVE SMOOTH",
"608 728 OFFCURVE",
"654 708 OFFCURVE",
"690 672 CURVE",
"960 818 LINE",
"868 946 OFFCURVE",
"724 1028 OFFCURVE",
"560 1028 CURVE SMOOTH",
"284 1028 OFFCURVE",
"60 792 OFFCURVE",
"60 500 CURVE SMOOTH",
"60 210 OFFCURVE",
"284 -26 OFFCURVE",
"560 -26 CURVE SMOOTH",
"724 -26 OFFCURVE",
"868 56 OFFCURVE",
"960 182 CURVE",
"690 328 LINE"
);
}
);
width = 1020;
},
{
anchors = (
{
name = bottom;
position = "{560, 0}";
},
{
name = top;
position = "{560, 1000}";
}
);
hints = (
{
horizontal = 1;
origin = "{0, 21}";
target = "{0, 2}";
type = Stem;
},
{
horizontal = 1;
origin = "{0, 15}";
target = "{0, 8}";
type = Stem;
},
{
origin = "{0, 18}";
target = "{0, 5}";
type = Stem;
}
);
layerId = "9AF1F7D9-E035-453E-B2A8-46DE370997D0";
paths = (
{
closed = 1;
nodes = (
"828 108 OFFCURVE",
"700 34 OFFCURVE",
"560 34 CURVE SMOOTH",
"318 34 OFFCURVE",
"120 242 OFFCURVE",
"120 500 CURVE SMOOTH",
"120 754 OFFCURVE",
"312 968 OFFCURVE",
"560 968 CURVE SMOOTH",
"688 968 OFFCURVE",
"820 904 OFFCURVE",
"906 790 CURVE",
"958 818 LINE",
"868 946 OFFCURVE",
"722 1028 OFFCURVE",
"560 1028 CURVE SMOOTH",
"284 1028 OFFCURVE",
"60 792 OFFCURVE",
"60 500 CURVE SMOOTH",
"60 210 OFFCURVE",
"284 -26 OFFCURVE",
"560 -26 CURVE SMOOTH",
"722 -26 OFFCURVE",
"868 56 OFFCURVE",
"958 184 CURVE",
"906 212 LINE"
);
}
);
width = 1018;
}
);
leftKerningGroup = o;
leftMetricsKey = o;
rightKerningGroup = c;
unicode = 0063;
},
{
glyphname = d;
lastChange = "2021-08-26 16:38:39 +0000";
layers = (
{
anchors = (
{
name = bottom;
position = "{620, 0}";
},
{
name = center;
position = "{620, 500}";
},
{
name = top;
position = "{620, 1900}";
},
{
name = topright;
position = "{1220, 1000}";
}
);
hints = (
{
horizontal = 1;
origin = "{0, 9}";
target = "{1, 11}";
type = Stem;
},
{
horizontal = 1;
origin = "{0, 3}";
target = "{1, 5}";
type = Stem;
},
{
horizontal = 1;
origin = "{0, 13}";
target = up;
type = BottomGhost;
},
{
origin = "{0, 6}";
target = "{1, 2}";
type = Stem;
},
{
origin = "{0, 13}";
target = "{0, 14}";
type = Stem;
},
{
origin = "{1, 8}";
target = "{0, 14}";
type = Stem;
}
);
layerId = "10BC12B3-5274-42E3-B5BC-F74F362F0DF4";
paths = (
{
closed = 1;
nodes = (
"840 908 LINE",
"778 978 OFFCURVE",
"694 1026 OFFCURVE",
"586 1026 CURVE SMOOTH",
"296 1026 OFFCURVE",
"60 790 OFFCURVE",
"60 500 CURVE SMOOTH",
"60 210 OFFCURVE",
"296 -26 OFFCURVE",
"586 -26 CURVE SMOOTH",
"694 -26 OFFCURVE",
"778 22 OFFCURVE",
"840 92 CURVE",
"840 0 LINE",
"1140 0 LINE",
"1140 1500 LINE",
"840 1500 LINE"
);
},
{
closed = 1;
nodes = (
"468 262 OFFCURVE",
"368 368 OFFCURVE",
"368 500 CURVE SMOOTH",
"368 632 OFFCURVE",
"465 738 OFFCURVE",
"590 738 CURVE SMOOTH",
"714 738 OFFCURVE",
"814 632 OFFCURVE",
"814 500 CURVE SMOOTH",
"814 368 OFFCURVE",
"714 262 OFFCURVE",
"590 262 CURVE SMOOTH"
);
}
);
width = 1260;
},
{
anchors = (
{
name = bottom;
position = "{602, 0}";
},
{
name = center;
position = "{602, 500}";
},
{
name = top;
position = "{602, 1900}";
},
{
name = topright;
position = "{1184, 1000}";
}
);
hints = (
{
horizontal = 1;
origin = "{0, 9}";
target = "{1, 11}";
type = Stem;
},
{
horizontal = 1;
origin = "{0, 3}";
target = "{1, 5}";
type = Stem;
},
{
horizontal = 1;
origin = "{0, 13}";
target = up;
type = BottomGhost;
},
{
origin = "{0, 6}";
target = "{1, 2}";
type = Stem;
},
{
origin = "{0, 13}";
target = "{0, 14}";
type = Stem;
},
{
origin = "{1, 8}";
target = "{0, 14}";
type = Stem;
}
);
layerId = "9AF1F7D9-E035-453E-B2A8-46DE370997D0";
paths = (
{
closed = 1;
nodes = (
"994 768 LINE",
"922 924 OFFCURVE",
"780 1028 OFFCURVE",
"586 1028 CURVE SMOOTH",
"296 1028 OFFCURVE",
"60 792 OFFCURVE",
"60 500 CURVE SMOOTH",
"60 210 OFFCURVE",
"296 -26 OFFCURVE",
"586 -26 CURVE SMOOTH",
"780 -26 OFFCURVE",
"922 78 OFFCURVE",
"994 234 CURVE",
"994 0 LINE",
"1054 0 LINE",
"1054 1500 LINE",
"994 1500 LINE"
);
},
{
closed = 1;
nodes = (
"336 34 OFFCURVE",
"120 238 OFFCURVE",
"120 500 CURVE SMOOTH",
"120 758 OFFCURVE",
"330 968 OFFCURVE",
"586 968 CURVE SMOOTH",
"840 968 OFFCURVE",
"990 762 OFFCURVE",
"990 500 CURVE SMOOTH",
"990 244 OFFCURVE",
"844 34 OFFCURVE",
"586 34 CURVE SMOOTH"
);
}
);
width = 1174;
}
);
leftKerningGroup = o;
leftMetricsKey = o;
rightKerningGroup = l;
rightMetricsKey = l;
unicode = 0064;
},
{
glyphname = eth;
lastChange = "2021-08-26 03:05:31 +0000";
layers = (
{
components = (
{
name = partialdiff;
}
);
hints = (
{
horizontal = 1;
origin = "{0, 3}";
target = "{0, 1}";
type = Stem;
},
{
origin = "{0, 2}";
target = "{0, 0}";
type = Stem;
}
);
layerId = "10BC12B3-5274-42E3-B5BC-F74F362F0DF4";
paths = (
{
closed = 1;
nodes = (
"876 1450 LINE",
"736 1592 LINE",
"298 1160 LINE",
"440 1018 LINE"
);
}
);
width = 1126;
},
{
components = (
{
name = partialdiff;
}
);
layerId = "9AF1F7D9-E035-453E-B2A8-46DE370997D0";
paths = (
{
closed = 1;
nodes = (
"866 1500 LINE",
"824 1542 LINE",
"384 1114 LINE",
"428 1070 LINE"
);
}
);
width = 1124;
}
);
leftKerningGroup = o;
rightKerningGroup = eth;
unicode = 00F0;
},
{
glyphname = e;
lastChange = "2021-08-26 03:06:03 +0000";
layers = (
{
anchors = (
{
name = bottom;
position = "{560, 0}";
},
{
name = ogonek;
position = "{715, 0}";
},
{
name = top;
position = "{560, 1000}";
}
);
hints = (
{
horizontal = 1;
origin = "{0, 19}";
target = "{0, 6}";
type = Stem;
},
{
horizontal = 1;
origin = "{0, 9}";
target = "{1, 6}";
type = Stem;
},
{
horizontal = 1;
origin = "{0, 13}";
target = "{1, 2}";
type = Stem;
}
);
layerId = "10BC12B3-5274-42E3-B5BC-F74F362F0DF4";
paths = (
{
closed = 1;
nodes = (
"760 -26 OFFCURVE",
"932 98 OFFCURVE",
"1013 276 CURVE",
"707 347 LINE",
"670 302 OFFCURVE",
"618 273 OFFCURVE",
"560 274 CURVE SMOOTH",
"467 276 OFFCURVE",
"412 330 OFFCURVE",
"384 401 CURVE",
"1051 401 LINE",
"1111 719 OFFCURVE",
"879 1028 OFFCURVE",
"560 1028 CURVE SMOOTH",
"284 1028 OFFCURVE",
"60 792 OFFCURVE",
"60 501 CURVE SMOOTH",
"60 210 OFFCURVE",
"284 -26 OFFCURVE",
"560 -26 CURVE SMOOTH"
);
},
{
closed = 1;
nodes = (
"402 707 OFFCURVE",
"475 768 OFFCURVE",
"560 768 CURVE SMOOTH",
"646 768 OFFCURVE",
"719 707 OFFCURVE",
"748 621 CURVE",
"373 621 LINE"
);
}
);
width = 1120;
},
{
anchors = (
{
name = bottom;
position = "{559, 0}";
},
{
name = ogonek;
position = "{716, 0}";
},
{
name = top;
position = "{559, 1000}";
}
);
hints = (
{
horizontal = 1;
origin = "{0, 19}";
target = "{0, 6}";
type = Stem;
},
{
horizontal = 1;
origin = "{0, 9}";
target = "{1, 6}";
type = Stem;
},
{
horizontal = 1;
origin = "{0, 13}";
target = "{1, 2}";
type = Stem;
},
{
origin = "{0, 16}";
target = "{0, 9}";
type = Stem;
},
{
origin = "{1, 5}";
target = "{0, 10}";
type = Stem;
}
);
layerId = "9AF1F7D9-E035-453E-B2A8-46DE370997D0";
paths = (
{
closed = 1;
nodes = (
"760 -26 OFFCURVE",
"932 98 OFFCURVE",
"1012 276 CURVE",
"952 290 LINE",
"872 130 OFFCURVE",
"730 34 OFFCURVE",
"560 34 CURVE SMOOTH",
"330 34 OFFCURVE",
"140 220 OFFCURVE",
"120 470 CURVE",
"1058 470 LINE",
"1052 804 OFFCURVE",
"846 1028 OFFCURVE",
"560 1028 CURVE SMOOTH",
"284 1028 OFFCURVE",
"60 792 OFFCURVE",
"60 500 CURVE SMOOTH",
"60 210 OFFCURVE",
"284 -26 OFFCURVE",
"560 -26 CURVE SMOOTH"
);
},
{
closed = 1;
nodes = (
"136 772 OFFCURVE",
"322 968 OFFCURVE",
"560 968 CURVE SMOOTH",
"796 968 OFFCURVE",
"990 764 OFFCURVE",
"998 530 CURVE",
"120 530 LINE"
);
}
);
width = 1118;
}
);
leftKerningGroup = o;
leftMetricsKey = o;
rightKerningGroup = o;
rightMetricsKey = o;
unicode = 0065;
},
{
glyphname = f;
lastChange = "2021-08-26 03:05:31 +0000";
layers = (
{
anchors = (
{
name = bottom;
position = "{381, 0}";
},
{
name = top;
position = "{381, 1900}";
}
);
hints = (
{
horizontal = 1;
origin = "{0, 17}";
target = up;
type = BottomGhost;
},
{
horizontal = 1;
origin = "{0, 14}";
target = "{0, 15}";
type = Stem;
},
{
horizontal = 1;
origin = "{0, 2}";
target = "{0, 9}";
type = Stem;
},
{
horizontal = 1;
origin = "{0, 6}";
target = down;
type = TopGhost;
},
{
origin = "{0, 17}";
target = "{0, 18}";
type = Stem;
}
);
layerId = "10BC12B3-5274-42E3-B5BC-F74F362F0DF4";
paths = (
{
closed = 1;
nodes = (
"444 1206 OFFCURVE",
"464 1224 OFFCURVE",
"488 1224 CURVE SMOOTH",
"504 1224 OFFCURVE",
"523 1214 OFFCURVE",
"530 1194 CURVE",
"746 1406 LINE",
"675 1487 OFFCURVE",
"580 1524 OFFCURVE",
"488 1524 CURVE SMOOTH",
"298 1524 OFFCURVE",
"144 1370 OFFCURVE",
"144 1182 CURVE SMOOTH",
"144 1000 LINE",
"50 1000 LINE",
"50 700 LINE",
"144 700 LINE",
"144 0 LINE",
"444 0 LINE",
"444 700 LINE",
"702 700 LINE",
"702 1000 LINE",
"444 1000 LINE",
"444 1182 LINE SMOOTH"
);
}
);
width = 762;
},
{
anchors = (
{
name = bottom;
position = "{310, 0}";
},
{
name = top;
position = "{310, 1900}";
}
);
hints = (
{
horizontal = 1;
origin = "{0, 17}";
target = up;
type = BottomGhost;
},
{
horizontal = 1;
origin = "{0, 14}";
target = "{0, 15}";
type = Stem;
},
{
horizontal = 1;
origin = "{0, 2}";
target = "{0, 9}";
type = Stem;
},
{
origin = "{0, 17}";
target = "{0, 18}";
type = Stem;
}
);
layerId = "9AF1F7D9-E035-453E-B2A8-46DE370997D0";
paths = (
{
closed = 1;
nodes = (
"268 1390 OFFCURVE",
"342 1464 OFFCURVE",
"432 1464 CURVE SMOOTH",
"476 1464 OFFCURVE",
"518 1446 OFFCURVE",
"548 1416 CURVE",
"590 1458 LINE",
"548 1500 OFFCURVE",
"492 1524 OFFCURVE",
"432 1524 CURVE SMOOTH",
"308 1524 OFFCURVE",
"208 1424 OFFCURVE",
"208 1300 CURVE SMOOTH",
"208 1000 LINE",
"50 1000 LINE",
"50 940 LINE",
"208 940 LINE",
"208 0 LINE",
"268 0 LINE",
"268 940 LINE",
"590 940 LINE",
"590 1000 LINE",
"268 1000 LINE",
"268 1300 LINE SMOOTH"
);
}
);
width = 620;
}
);
leftKerningGroup = f;
rightKerningGroup = f;
unicode = 0066;
},
{
glyphname = g;
lastChange = "2021-08-26 16:38:04 +0000";
layers = (
{
anchors = (
{
name = bottom;
position = "{627, -500}";
},
{
name = top;
position = "{627, 1000}";
}
);
hints = (
{
horizontal = 1;
origin = "{0, 23}";
target = "{0, 16}";
type = Stem;
},
{
horizontal = 1;
origin = "{0, 9}";
target = "{1, 11}";
type = Stem;
},
{
horizontal = 1;
origin = "{0, 28}";
target = down;
type = TopGhost;
},
{
horizontal = 1;
origin = "{0, 3}";
target = "{1, 5}";
type = Stem;
},
{
origin = "{0, 6}";
target = "{1, 2}";
type = Stem;
},
{
origin = "{0, 13}";
target = "{0, 26}";
type = Stem;
},
{
origin = "{1, 8}";
target = "{0, 26}";
type = Stem;
}
);
layerId = "10BC12B3-5274-42E3-B5BC-F74F362F0DF4";
paths = (
{
closed = 1;
nodes = (
"834 912 LINE",
"774 980 OFFCURVE",
"692 1026 OFFCURVE",
"586 1026 CURVE SMOOTH",
"296 1026 OFFCURVE",
"60 790 OFFCURVE",
"60 500 CURVE SMOOTH",
"60 210 OFFCURVE",
"296 -26 OFFCURVE",
"586 -26 CURVE SMOOTH",
"692 -26 OFFCURVE",
"774 20 OFFCURVE",
"834 88 CURVE",
"834 -10 LINE SMOOTH",
"834 -140 OFFCURVE",
"704 -198 OFFCURVE",
"566 -198 CURVE SMOOTH",
"472 -198 OFFCURVE",
"386 -146 OFFCURVE",
"344 -56 CURVE",
"70 -180 LINE",
"158 -370 OFFCURVE",
"354 -500 OFFCURVE",
"566 -500 CURVE SMOOTH",
"870 -500 OFFCURVE",
"1134 -314 OFFCURVE",
"1134 -10 CURVE SMOOTH",
"1134 1000 LINE",
"834 1000 LINE"
);
},
{
closed = 1;
nodes = (
"468 262 OFFCURVE",
"368 368 OFFCURVE",
"368 500 CURVE SMOOTH",
"368 632 OFFCURVE",
"468 738 OFFCURVE",
"590 738 CURVE SMOOTH",
"714 738 OFFCURVE",
"814 632 OFFCURVE",
"814 500 CURVE SMOOTH",
"814 368 OFFCURVE",
"714 262 OFFCURVE",
"590 262 CURVE SMOOTH"
);
}
);
width = 1254;
},
{
anchors = (
{
name = bottom;
position = "{568, -500}";
},
{
name = top;
position = "{568, 1000}";
}
);
hints = (
{
horizontal = 1;
origin = "{0, 23}";
target = "{0, 16}";
type = Stem;
},
{
horizontal = 1;
origin = "{0, 9}";
target = "{1, 11}";
type = Stem;
},
{
horizontal = 1;
origin = "{0, 28}";
target = down;
type = TopGhost;
},
{
horizontal = 1;
origin = "{0, 3}";
target = "{1, 5}";
type = Stem;
},
{
origin = "{0, 6}";
target = "{1, 2}";
type = Stem;
},
{
origin = "{0, 13}";
target = "{0, 26}";
type = Stem;
},
{
origin = "{1, 8}";
target = "{0, 26}";
type = Stem;
}
);
layerId = "9AF1F7D9-E035-453E-B2A8-46DE370997D0";
paths = (
{
closed = 1;
nodes = (
"956 770 LINE",
"882 924 OFFCURVE",
"742 1028 OFFCURVE",
"560 1028 CURVE SMOOTH",
"284 1028 OFFCURVE",
"60 792 OFFCURVE",
"60 500 CURVE SMOOTH",
"60 210 OFFCURVE",
"284 -26 OFFCURVE",
"560 -26 CURVE SMOOTH",
"742 -26 OFFCURVE",
"882 78 OFFCURVE",
"956 232 CURVE",
"956 -50 LINE SMOOTH",
"956 -250 OFFCURVE",
"754 -440 OFFCURVE",
"548 -440 CURVE SMOOTH",
"370 -440 OFFCURVE",
"180 -290 OFFCURVE",
"146 -110 CURVE",
"90 -136 LINE",
"136 -330 OFFCURVE",
"340 -500 OFFCURVE",
"548 -500 CURVE SMOOTH",
"784 -500 OFFCURVE",
"1016 -282 OFFCURVE",
"1016 -50 CURVE SMOOTH",
"1016 1000 LINE",
"956 1000 LINE"
);
},
{
closed = 1;
nodes = (
"320 34 OFFCURVE",
"120 240 OFFCURVE",
"120 500 CURVE SMOOTH",
"120 758 OFFCURVE",
"314 968 OFFCURVE",
"560 968 CURVE SMOOTH",
"804 968 OFFCURVE",
"954 754 OFFCURVE",
"954 500 CURVE SMOOTH",
"954 252 OFFCURVE",
"808 34 OFFCURVE",
"560 34 CURVE SMOOTH"
);
}
);
width = 1136;
}
);
leftKerningGroup = o;
rightKerningGroup = g;
unicode = 0067;
},
{
glyphname = h;
lastChange = "2021-08-26 16:55:19 +0000";
layers = (
{
anchors = (
{
name = bottom;
position = "{589, 0}";
},
{
name = center;
position = "{589, 950}";
},
{
name = top;
position = "{589, 1425}";
}
);
hints = (
{
horizontal = 1;
place = "{0, 21}";
target = up;
type = BottomGhost;
},
{
horizontal = 1;
place = "{1026, 288}";
type = Stem;
},
{
place = "{120, 300}";
type = Stem;
},
{
place = "{798, 300}";
type = Stem;
},
{
place = "{120, 302}";
type = Stem;
}
);
layerId = "10BC12B3-5274-42E3-B5BC-F74F362F0DF4";
paths = (
{
closed = 1;
nodes = (
"1136 856 OFFCURVE",
"1020 1000 OFFCURVE",
"672 1000 CURVE SMOOTH",
"544 1000 OFFCURVE",
"472 960 OFFCURVE",
"420 880 CURVE",
"420 1500 LINE",
"120 1500 LINE",
"120 -28 LINE",
"420 -28 LINE",
"420 472 LINE SMOOTH",
"420 604 OFFCURVE",
"488 710 OFFCURVE",
"618 710 CURVE SMOOTH",
"760 710 OFFCURVE",
"836 674 OFFCURVE",
"836 472 CURVE SMOOTH",
"836 -28 LINE",
"1136 -28 LINE",
"1136 566 LINE SMOOTH"
);
}
);
width = 1216;
},
{
anchors = (
{
name = bottom;
position = "{519, 0}";
},
{
name = center;
position = "{519, 950}";
},
{
name = top;
position = "{519, 1425}";
}
);
hints = (
{
horizontal = 1;
origin = "{0, 8}";
target = up;
type = BottomGhost;
},
{
horizontal = 1;
origin = "{0, 2}";
target = "{0, 13}";
type = Stem;
},
{
origin = "{0, 8}";
target = "{0, 9}";
type = Stem;
},
{
origin = "{0, 17}";
target = "{0, 18}";
type = Stem;
}
);
layerId = "9AF1F7D9-E035-453E-B2A8-46DE370997D0";
paths = (
{
closed = 1;
nodes = (
"958 874 OFFCURVE",
"798 1026 OFFCURVE",
"538 1026 CURVE SMOOTH",
"390 1026 OFFCURVE",
"262 940 OFFCURVE",
"180 794 CURVE",
"180 1500 LINE",
"120 1500 LINE",
"120 0 LINE",
"180 0 LINE",
"180 548 LINE SMOOTH",
"180 778 OFFCURVE",
"342 966 OFFCURVE",
"538 966 CURVE SMOOTH",
"756 966 OFFCURVE",
"898 848 OFFCURVE",
"898 618 CURVE SMOOTH",
"898 0 LINE",
"958 0 LINE",
"958 622 LINE SMOOTH"
);
}
);
width = 1038;
}
);
leftKerningGroup = h;
leftMetricsKey = H;
rightKerningGroup = n;
rightMetricsKey = n;
unicode = 0068;
},
{
glyphname = idotless;
lastChange = "2021-08-26 03:05:31 +0000";
layers = (
{
anchors = (
{
name = bottom;
position = "{270, 0}";
},
{
name = ogonek;
position = "{420, 0}";
},
{
name = top;
position = "{270, 1000}";
}
);
hints = (
{
horizontal = 1;
origin = "{0, 0}";
target = up;
type = BottomGhost;
},
{
horizontal = 1;
origin = "{0, 3}";
target = down;
type = TopGhost;
},
{
origin = "{0, 0}";
target = "{0, 1}";
type = Stem;
}
);
layerId = "10BC12B3-5274-42E3-B5BC-F74F362F0DF4";
paths = (
{
closed = 1;
nodes = (
"120 0 LINE",
"420 0 LINE",
"420 1000 LINE",
"120 1000 LINE"
);
}
);
width = 540;
},
{
anchors = (
{
name = bottom;
position = "{150, 0}";
},
{
name = ogonek;
position = "{180, 0}";
},
{
name = top;
position = "{150, 1000}";
}
);
hints = (
{
horizontal = 1;
origin = "{0, 0}";
target = up;
type = BottomGhost;
},
{
horizontal = 1;
origin = "{0, 3}";
target = down;
type = TopGhost;
},
{
origin = "{0, 0}";
target = "{0, 1}";
type = Stem;
}
);
layerId = "9AF1F7D9-E035-453E-B2A8-46DE370997D0";
paths = (
{
closed = 1;
nodes = (
"120 0 LINE",
"180 0 LINE",
"180 1000 LINE",
"120 1000 LINE"
);
}
);
width = 300;
}
);
leftKerningGroup = i;
rightKerningGroup = i;
unicode = 0131;
},
{
glyphname = jdotless;
lastChange = "2021-08-26 17:42:45 +0000";
layers = (
{
anchors = (
{
name = top;
position = "{256, 1000}";
}
);
layerId = "9AF1F7D9-E035-453E-B2A8-46DE370997D0";
paths = (
{
closed = 1;
nodes = (
"132 -500 OFFCURVE",
"286 -344 OFFCURVE",
"286 -148 CURVE SMOOTH",
"286 1000 LINE",
"226 1000 LINE",
"226 -148 LINE SMOOTH",
"226 -314 OFFCURVE",
"96 -440 OFFCURVE",
"-80 -440 CURVE",
"-80 -500 LINE"
);
}
);
width = 406;
},
{
anchors = (
{
name = top;
position = "{242, 1000}";
}
);
layerId = "10BC12B3-5274-42E3-B5BC-F74F362F0DF4";
paths = (
{
closed = 1;
nodes = (
"182 -500 OFFCURVE",
"392 -288 OFFCURVE",
"392 -28 CURVE SMOOTH",
"392 1000 LINE",
"92 1000 LINE",
"92 -28 LINE SMOOTH",
"92 -124 OFFCURVE",
"14 -200 OFFCURVE",
"-80 -200 CURVE",
"-80 -500 LINE"
);
}
);
width = 512;
}
);
leftKerningGroup = j;
rightKerningGroup = g;
rightMetricsKey = g;
unicode = 0237;
},
{
glyphname = k;
lastChange = "2021-08-26 03:05:31 +0000";
layers = (
{
anchors = (
{
name = bottom;
position = "{559, 0}";
},
{
name = top;
position = "{589, 1425}";
}
);
hints = (
{
horizontal = 1;
origin = "{0, 6}";
target = up;
type = BottomGhost;
},
{
horizontal = 1;
origin = "{0, 2}";
target = down;
type = TopGhost;
},
{
origin = "{0, 6}";
target = "{0, 7}";
type = Stem;
}
);
layerId = "10BC12B3-5274-42E3-B5BC-F74F362F0DF4";
paths = (
{
closed = 1;
nodes = (
"734 588 LINE",
"1078 1000 LINE",
"686 1000 LINE",
"420 682 LINE",
"420 1500 LINE",
"120 1500 LINE",
"120 0 LINE",
"420 0 LINE",
"420 216 LINE",
"528 344 LINE",
"728 0 LINE",
"1074 0 LINE"
);
}
);
width = 1118;
},
{
anchors = (
{
name = bottom;
position = "{442, 0}";
},
{
name = top;
position = "{489, 1425}";
}
);
hints = (
{
horizontal = 1;
origin = "{0, 6}";
target = up;
type = BottomGhost;
},
{
horizontal = 1;
origin = "{0, 2}";
target = down;
type = TopGhost;
},
{
origin = "{0, 6}";
target = "{0, 7}";
type = Stem;
}
);
layerId = "9AF1F7D9-E035-453E-B2A8-46DE370997D0";
paths = (
{
closed = 1;
nodes = (
"466 602 LINE",
"802 1000 LINE",
"724 1000 LINE",
"180 352 LINE",
"180 1500 LINE",
"120 1500 LINE",
"120 0 LINE",
"180 0 LINE",
"180 258 LINE",
"426 552 LINE",
"746 0 LINE",
"814 0 LINE"
);
}
);
width = 914;
}
);
leftKerningGroup = h;
leftMetricsKey = h;
rightKerningGroup = k;
unicode = 006B;
},
{
glyphname = l;
lastChange = "2021-08-26 03:05:31 +0000";
layers = (
{
anchors = (
{
name = bottom;
position = "{270, 0}";
},
{
name = center;
position = "{270, 950}";
},
{
name = top;
position = "{270, 1500}";
},
{
name = topright;
position = "{520, 1900}";
}
);
hints = (
{
horizontal = 1;
origin = "{0, 3}";
target = up;
type = BottomGhost;
},
{
origin = "{0, 3}";
target = "{0, 0}";
type = Stem;
}
);
layerId = "10BC12B3-5274-42E3-B5BC-F74F362F0DF4";
paths = (
{
closed = 1;
nodes = (
"420 0 LINE",
"420 1500 LINE",
"120 1500 LINE",
"120 0 LINE"
);
}
);
width = 540;
},
{
anchors = (
{
name = bottom;
position = "{150, 0}";
},
{
name = center;
position = "{150, 950}";
},
{
name = top;
position = "{150, 1500}";
},
{
name = topright;
position = "{310, 1900}";
}
);
hints = (
{
origin = "{0, 3}";
target = "{0, 0}";
type = Stem;
}
);
layerId = "9AF1F7D9-E035-453E-B2A8-46DE370997D0";
paths = (
{
closed = 1;
nodes = (
"180 0 LINE",
"180 1500 LINE",
"120 1500 LINE",
"120 0 LINE"
);
}
);
width = 300;
}
);
leftKerningGroup = h;
rightKerningGroup = l;
unicode = 006C;
},
{
glyphname = m;
lastChange = "2021-08-26 16:49:31 +0000";
layers = (
{
anchors = (
{
name = bottom;
position = "{913, 0}";
},
{
name = top;
position = "{913, 1000}";
}
);
hints = (
{
horizontal = 1;
origin = "{0, 34}";
target = up;
type = BottomGhost;
},
{
horizontal = 1;
origin = "{0, 28}";
target = "{0, 4}";
type = Stem;
},
{
horizontal = 1;
origin = "{0, 33}";
target = down;
type = TopGhost;
},
{
origin = "{0, 34}";
target = "{0, 0}";
type = Stem;
},
{
origin = "{0, 8}";
target = "{0, 9}";
type = Stem;
},
{
origin = "{0, 17}";
target = "{0, 18}";
type = Stem;
}
);
layerId = "10BC12B3-5274-42E3-B5BC-F74F362F0DF4";
paths = (
{
closed = 1;
nodes = (
"420 0 LINE",
"420 532 LINE SMOOTH",
"420 627 OFFCURVE",
"497 703 OFFCURVE",
"592 703 CURVE SMOOTH",
"686 703 OFFCURVE",
"763 627 OFFCURVE",
"763 532 CURVE SMOOTH",
"763 0 LINE",
"1063 0 LINE",
"1063 532 LINE SMOOTH",
"1063 627 OFFCURVE",
"1140 703 OFFCURVE",
"1234 703 CURVE SMOOTH",
"1329 703 OFFCURVE",
"1406 657 OFFCURVE",
"1406 562 CURVE SMOOTH",
"1406 0 LINE",
"1706 0 LINE",
"1706 612 LINE SMOOTH",
"1706 942 OFFCURVE",
"1485 1003 OFFCURVE",
"1214 1003 CURVE SMOOTH",
"1094 1003 OFFCURVE",
"1001 959 OFFCURVE",
"913 877 CURVE",
"826 959 OFFCURVE",
"752 1003 OFFCURVE",
"632 1003 CURVE SMOOTH",
"522 1003 OFFCURVE",
"474 973 OFFCURVE",
"420 932 CURVE",
"420 1000 LINE",
"120 1000 LINE",
"120 0 LINE"
);
}
);
width = 1786;
},
{
anchors = (
{
name = bottom;
position = "{866, 0}";
},
{
name = top;
position = "{866, 1000}";
}
);
hints = (
{
horizontal = 1;
origin = "{0, 34}";
target = up;
type = BottomGhost;
},
{
horizontal = 1;
origin = "{0, 28}";
target = "{0, 4}";
type = Stem;
},
{
horizontal = 1;
origin = "{0, 33}";
target = down;
type = TopGhost;
},
{
origin = "{0, 34}";
target = "{0, 0}";
type = Stem;
},
{
origin = "{0, 8}";
target = "{0, 9}";
type = Stem;
},
{
origin = "{0, 17}";
target = "{0, 18}";
type = Stem;
}
);
layerId = "9AF1F7D9-E035-453E-B2A8-46DE370997D0";
paths = (
{
closed = 1;
nodes = (
"180 0 LINE",
"180 530 LINE SMOOTH",
"180 760 OFFCURVE",
"308 968 OFFCURVE",
"498 968 CURVE SMOOTH",
"706 968 OFFCURVE",
"836 780 OFFCURVE",
"836 550 CURVE SMOOTH",
"836 0 LINE",
"896 0 LINE",
"896 550 LINE SMOOTH",
"896 780 OFFCURVE",
"1026 968 OFFCURVE",
"1234 968 CURVE SMOOTH",
"1442 968 OFFCURVE",
"1552 780 OFFCURVE",
"1552 550 CURVE SMOOTH",
"1552 0 LINE",
"1612 0 LINE",
"1612 550 LINE SMOOTH",
"1612 806 OFFCURVE",
"1482 1028 OFFCURVE",
"1234 1028 CURVE SMOOTH",
"1050 1028 OFFCURVE",
"928 920 OFFCURVE",
"866 744 CURVE",
"804 916 OFFCURVE",
"688 1028 OFFCURVE",
"498 1028 CURVE SMOOTH",
"338 1028 OFFCURVE",
"256 934 OFFCURVE",
"180 792 CURVE",
"180 1000 LINE",
"120 1000 LINE",
"120 0 LINE"
);
}
);
width = 1692;
}
);
leftKerningGroup = n;
leftMetricsKey = n;
rightKerningGroup = n;
rightMetricsKey = n;
unicode = 006D;
},
{
glyphname = n;
lastChange = "2021-08-26 16:57:22 +0000";
layers = (
{
anchors = (
{
name = bottom;
position = "{608, 0}";
},
{
name = top;
position = "{608, 1000}";
}
);
hints = (
{
horizontal = 1;
place = "{0, 21}";
target = up;
type = BottomGhost;
},
{
horizontal = 1;
place = "{1000, -20}";
target = down;
type = TopGhost;
},
{
horizontal = 1;
place = "{1028, 288}";
type = Stem;
},
{
place = "{100, 300}";
type = Stem;
},
{
place = "{816, 300}";
type = Stem;
}
);
layerId = "10BC12B3-5274-42E3-B5BC-F74F362F0DF4";
paths = (
{
closed = 1;
nodes = (
"1136 856 OFFCURVE",
"1020 1000 OFFCURVE",
"672 1000 CURVE SMOOTH",
"564 1000 OFFCURVE",
"482 950 OFFCURVE",
"420 880 CURVE",
"420 972 LINE",
"120 972 LINE",
"120 -28 LINE",
"420 -28 LINE",
"420 472 LINE SMOOTH",
"420 604 OFFCURVE",
"488 710 OFFCURVE",
"618 710 CURVE SMOOTH",
"720 710 OFFCURVE",
"836 684 OFFCURVE",
"836 552 CURVE SMOOTH",
"836 -28 LINE",
"1136 -28 LINE",
"1136 566 LINE SMOOTH"
);
}
);
width = 1216;
},
{
anchors = (
{
name = bottom;
position = "{519, 0}";
},
{
name = top;
position = "{519, 1000}";
}
);
hints = (
{
horizontal = 1;
place = "{0, 21}";
target = up;
type = BottomGhost;
},
{
horizontal = 1;
place = "{1028, 60}";
type = Stem;
},
{
horizontal = 1;
place = "{1000, -20}";
target = down;
type = TopGhost;
},
{
place = "{100, 60}";
type = Stem;
},
{
place = "{878, 60}";
type = Stem;
}
);
layerId = "9AF1F7D9-E035-453E-B2A8-46DE370997D0";
paths = (
{
closed = 1;
nodes = (
"958 848 OFFCURVE",
"798 1000 OFFCURVE",
"538 1000 CURVE SMOOTH",
"390 1000 OFFCURVE",
"262 914 OFFCURVE",
"180 768 CURVE",
"180 974 LINE",
"120 974 LINE",
"120 -26 LINE",
"180 -26 LINE",
"180 522 LINE SMOOTH",
"180 752 OFFCURVE",
"342 940 OFFCURVE",
"538 940 CURVE SMOOTH",
"756 940 OFFCURVE",
"898 822 OFFCURVE",
"898 592 CURVE SMOOTH",
"898 -26 LINE",
"958 -26 LINE",
"958 596 LINE SMOOTH"
);
}
);
width = 1038;
}
);
leftKerningGroup = n;
rightKerningGroup = n;
unicode = 006E;
},
{
glyphname = o;
lastChange = "2021-08-26 03:05:31 +0000";
layers = (
{
anchors = (
{
name = bottom;
position = "{560, 0}";
},
{
name = center;
position = "{560, 500}";
},
{
name = ogonek;
position = "{1008, 10}";
},
{
name = top;
position = "{560, 1000}";
},
{
name = topright;
position = "{1100, 1000}";
}
);
hints = (
{
horizontal = 1;
origin = "{0, 11}";
target = "{1, 11}";
type = Stem;
},
{
horizontal = 1;
origin = "{0, 5}";
target = "{1, 5}";
type = Stem;
},
{
origin = "{0, 8}";
target = "{1, 2}";
type = Stem;
},
{
origin = "{1, 8}";
target = "{0, 2}";
type = Stem;
}
);
layerId = "10BC12B3-5274-42E3-B5BC-F74F362F0DF4";
paths = (
{
closed = 1;
nodes = (
"836 -26 OFFCURVE",
"1060 210 OFFCURVE",
"1060 500 CURVE SMOOTH",
"1060 792 OFFCURVE",
"836 1028 OFFCURVE",
"560 1028 CURVE SMOOTH",
"284 1028 OFFCURVE",
"60 792 OFFCURVE",
"60 500 CURVE SMOOTH",
"60 210 OFFCURVE",
"284 -26 OFFCURVE",
"560 -26 CURVE SMOOTH"
);
},
{
closed = 1;
nodes = (
"452 274 OFFCURVE",
"360 372 OFFCURVE",
"360 500 CURVE SMOOTH",
"360 622 OFFCURVE",
"448 728 OFFCURVE",
"560 728 CURVE SMOOTH",
"668 728 OFFCURVE",
"760 626 OFFCURVE",
"760 500 CURVE SMOOTH",
"760 378 OFFCURVE",
"674 274 OFFCURVE",
"560 274 CURVE SMOOTH"
);
}
);
width = 1120;
},
{
anchors = (
{
name = bottom;
position = "{560, 0}";
},
{
name = center;
position = "{560, 500}";
},
{
name = ogonek;
position = "{1008, 10}";
},
{
name = top;
position = "{560, 1000}";
},
{
name = topright;
position = "{1100, 1000}";
}
);
hints = (
{
horizontal = 1;
origin = "{0, 11}";
target = "{1, 11}";
type = Stem;
},
{
horizontal = 1;
origin = "{0, 5}";
target = "{1, 5}";
type = Stem;
},
{
origin = "{0, 8}";
target = "{1, 2}";
type = Stem;
},
{
origin = "{1, 8}";
target = "{0, 2}";
type = Stem;
}
);
layerId = "9AF1F7D9-E035-453E-B2A8-46DE370997D0";
paths = (
{
closed = 1;
nodes = (
"836 -26 OFFCURVE",
"1060 210 OFFCURVE",
"1060 500 CURVE SMOOTH",
"1060 792 OFFCURVE",
"836 1028 OFFCURVE",
"560 1028 CURVE SMOOTH",
"284 1028 OFFCURVE",
"60 792 OFFCURVE",
"60 500 CURVE SMOOTH",
"60 210 OFFCURVE",
"284 -26 OFFCURVE",
"560 -26 CURVE SMOOTH"
);
},
{
closed = 1;
nodes = (
"320 34 OFFCURVE",
"120 240 OFFCURVE",
"120 500 CURVE SMOOTH",
"120 752 OFFCURVE",
"310 968 OFFCURVE",
"560 968 CURVE SMOOTH",
"808 968 OFFCURVE",
"1000 752 OFFCURVE",
"1000 500 CURVE SMOOTH",
"1000 250 OFFCURVE",
"808 34 OFFCURVE",
"560 34 CURVE SMOOTH"
);
}
);
width = 1120;
}
);
leftKerningGroup = o;
rightKerningGroup = o;
unicode = 006F;
},
{
glyphname = oslash;
lastChange = "2021-08-26 03:05:31 +0000";
layers = (
{
anchors = (
{
name = top;
position = "{560, 1000}";
}
);
hints = (
{
horizontal = 1;
origin = "{0, 0}";
target = up;
type = BottomGhost;
},
{
horizontal = 1;
origin = "{0, 12}";
target = down;
type = TopGhost;
},
{
horizontal = 1;
origin = "{0, 3}";
target = "{2, 6}";
type = Stem;
},
{
horizontal = 1;
origin = "{0, 15}";
target = "{1, 5}";
type = Stem;
},
{
origin = "{0, 18}";
target = "{1, 2}";
type = Stem;
},
{
origin = "{2, 3}";
target = "{0, 6}";
type = Stem;
}
);
layerId = "10BC12B3-5274-42E3-B5BC-F74F362F0DF4";
paths = (
{
closed = 1;
nodes = (
"408 -2 LINE",
"456 -18 OFFCURVE",
"506 -26 OFFCURVE",
"560 -26 CURVE SMOOTH",
"836 -26 OFFCURVE",
"1060 210 OFFCURVE",
"1060 500 CURVE SMOOTH",
"1060 646 OFFCURVE",
"1004 778 OFFCURVE",
"914 874 CURVE",
"968 968 LINE",
"760 1088 LINE",
"710 1004 LINE",
"664 1020 OFFCURVE",
"612 1028 OFFCURVE",
"560 1028 CURVE SMOOTH",
"284 1028 OFFCURVE",
"60 792 OFFCURVE",
"60 500 CURVE SMOOTH",
"60 356 OFFCURVE",
"116 224 OFFCURVE",
"206 128 CURVE",
"152 34 LINE",
"360 -86 LINE"
);
},
{
closed = 1;
nodes = (
"342 412 OFFCURVE",
"336 444 OFFCURVE",
"336 482 CURVE SMOOTH",
"336 632 OFFCURVE",
"442 762 OFFCURVE",
"576 766 CURVE",
"354 380 LINE"
);
},
{
closed = 1;
nodes = (
"766 622 LINE",
"776 590 OFFCURVE",
"784 556 OFFCURVE",
"784 518 CURVE SMOOTH",
"784 368 OFFCURVE",
"682 240 OFFCURVE",
"544 236 CURVE"
);
}
);
width = 1120;
},
{
anchors = (
{
name = top;
position = "{560, 1000}";
}
);
hints = (
{
horizontal = 1;
place = "{-26, 59}";
type = Stem;
},
{
horizontal = 1;
place = "{969, 59}";
type = Stem;
},
{
horizontal = 1;
origin = "{0, 10}";
target = down;
type = TopGhost;
},
{
horizontal = 1;
origin = "{0, 22}";
target = up;
type = BottomGhost;
},
{
origin = "{0, 18}";
target = "{1, 2}";
type = Stem;
},
{
origin = "{2, 3}";
target = "{0, 6}";
type = Stem;
}
);
layerId = "9AF1F7D9-E035-453E-B2A8-46DE370997D0";
paths = (
{
closed = 1;
nodes = (
"326 36 LINE",
"394 0 OFFCURVE",
"476 -26 OFFCURVE",
"560 -26 CURVE SMOOTH",
"836 -26 OFFCURVE",
"1060 210 OFFCURVE",
"1060 500 CURVE SMOOTH",
"1060 682 OFFCURVE",
"976 840 OFFCURVE",
"846 936 CURVE",
"892 1014 LINE",
"840 1044 LINE",
"794 968 LINE",
"726 1006 OFFCURVE",
"646 1028 OFFCURVE",
"560 1028 CURVE SMOOTH",
"284 1028 OFFCURVE",
"60 792 OFFCURVE",
"60 500 CURVE SMOOTH",
"60 322 OFFCURVE",
"146 164 OFFCURVE",
"276 68 CURVE",
"230 -10 LINE",
"282 -40 LINE"
);
},
{
closed = 1;
nodes = (
"194 206 OFFCURVE",
"120 344 OFFCURVE",
"120 500 CURVE SMOOTH",
"120 846 OFFCURVE",
"472 1080 OFFCURVE",
"764 916 CURVE",
"306 122 LINE"
);
},
{
closed = 1;
nodes = (
"816 882 LINE",
"928 796 OFFCURVE",
"1000 656 OFFCURVE",
"1000 500 CURVE SMOOTH",
"1000 162 OFFCURVE",
"660 -80 OFFCURVE",
"356 88 CURVE"
);
}
);
width = 1120;
}
);
leftKerningGroup = o;
leftMetricsKey = o;
rightKerningGroup = o;
rightMetricsKey = o;
unicode = 00F8;
},
{
glyphname = oe;
lastChange = "2021-08-26 03:06:23 +0000";
layers = (
{
anchors = (
{
name = bottom;
position = "{910, 0}";
},
{
name = top;
position = "{910, 1000}";
}
);
hints = (
{
horizontal = 1;
origin = "{0, 31}";
target = "{1, 11}";
type = Stem;
},
{
horizontal = 1;
origin = "{0, 15}";
target = "{2, 6}";
type = Stem;
},
{
horizontal = 1;
origin = "{0, 25}";
target = "{2, 2}";
type = Stem;
},
{
horizontal = 1;
origin = "{0, 25}";
target = "{1, 5}";
type = Stem;
},
{
origin = "{0, 28}";
target = "{1, 2}";
type = Stem;
}
);
layerId = "10BC12B3-5274-42E3-B5BC-F74F362F0DF4";
paths = (
{
closed = 1;
nodes = (
"696 -26 OFFCURVE",
"820 32 OFFCURVE",
"910 124 CURVE",
"1000 32 OFFCURVE",
"1124 -26 OFFCURVE",
"1260 -26 CURVE SMOOTH",
"1460 -26 OFFCURVE",
"1632 98 OFFCURVE",
"1712 276 CURVE",
"1406 348 LINE",
"1370 302 OFFCURVE",
"1318 274 OFFCURVE",
"1260 274 CURVE SMOOTH",
"1166 276 OFFCURVE",
"1112 330 OFFCURVE",
"1084 402 CURVE",
"1750 402 LINE",
"1810 722 OFFCURVE",
"1578 1028 OFFCURVE",
"1260 1028 CURVE SMOOTH",
"1124 1028 OFFCURVE",
"1000 970 OFFCURVE",
"910 878 CURVE",
"820 970 OFFCURVE",
"696 1028 OFFCURVE",
"560 1028 CURVE SMOOTH",
"284 1028 OFFCURVE",
"60 792 OFFCURVE",
"60 500 CURVE SMOOTH",
"60 210 OFFCURVE",
"284 -26 OFFCURVE",
"560 -26 CURVE SMOOTH"
);
},
{
closed = 1;
nodes = (
"452 274 OFFCURVE",
"360 372 OFFCURVE",
"360 500 CURVE SMOOTH",
"360 622 OFFCURVE",
"448 728 OFFCURVE",
"560 728 CURVE SMOOTH",
"668 728 OFFCURVE",
"760 626 OFFCURVE",
"760 500 CURVE SMOOTH",
"760 378 OFFCURVE",
"674 274 OFFCURVE",
"560 274 CURVE SMOOTH"
);
},
{
closed = 1;
nodes = (
"1100 708 OFFCURVE",
"1174 768 OFFCURVE",
"1260 768 CURVE SMOOTH",
"1346 768 OFFCURVE",
"1418 708 OFFCURVE",
"1446 622 CURVE",
"1072 622 LINE"
);
}
);
width = 1819;
},
{
anchors = (
{
name = bottom;
position = "{1029, 0}";
},
{
name = top;
position = "{1029, 1000}";
}
);
hints = (
{
horizontal = 1;
origin = "{0, 31}";
target = "{1, 11}";
type = Stem;
},
{
horizontal = 1;
origin = "{0, 15}";
target = "{2, 6}";
type = Stem;
},
{
horizontal = 1;
origin = "{0, 25}";
target = "{1, 5}";
type = Stem;
},
{
origin = "{0, 28}";
target = "{1, 2}";
type = Stem;
},
{
origin = "{1, 8}";
target = "{0, 15}";
type = Stem;
},
{
origin = "{2, 5}";
target = "{0, 16}";
type = Stem;
}
);
layerId = "9AF1F7D9-E035-453E-B2A8-46DE370997D0";
paths = (
{
closed = 1;
nodes = (
"776 -26 OFFCURVE",
"960 118 OFFCURVE",
"1030 320 CURVE",
"1100 118 OFFCURVE",
"1284 -26 OFFCURVE",
"1500 -26 CURVE SMOOTH",
"1700 -26 OFFCURVE",
"1872 98 OFFCURVE",
"1952 276 CURVE",
"1892 290 LINE",
"1812 130 OFFCURVE",
"1670 34 OFFCURVE",
"1500 34 CURVE SMOOTH",
"1270 34 OFFCURVE",
"1080 220 OFFCURVE",
"1060 470 CURVE",
"1998 470 LINE",
"1992 804 OFFCURVE",
"1786 1028 OFFCURVE",
"1500 1028 CURVE SMOOTH",
"1284 1028 OFFCURVE",
"1100 884 OFFCURVE",
"1030 680 CURVE",
"960 884 OFFCURVE",
"776 1028 OFFCURVE",
"560 1028 CURVE SMOOTH",
"284 1028 OFFCURVE",
"60 792 OFFCURVE",
"60 500 CURVE SMOOTH",
"60 210 OFFCURVE",
"284 -26 OFFCURVE",
"560 -26 CURVE SMOOTH"
);
},
{
closed = 1;
nodes = (
"320 34 OFFCURVE",
"120 240 OFFCURVE",
"120 500 CURVE SMOOTH",
"120 752 OFFCURVE",
"310 968 OFFCURVE",
"560 968 CURVE SMOOTH",
"808 968 OFFCURVE",
"1000 752 OFFCURVE",
"1000 500 CURVE SMOOTH",
"1000 250 OFFCURVE",
"808 34 OFFCURVE",
"560 34 CURVE SMOOTH"
);
},
{
closed = 1;
nodes = (
"1076 772 OFFCURVE",
"1262 968 OFFCURVE",
"1500 968 CURVE SMOOTH",
"1736 968 OFFCURVE",
"1930 764 OFFCURVE",
"1938 530 CURVE",
"1060 530 LINE"
);
}
);
width = 2058;
}
);
leftKerningGroup = o;
leftMetricsKey = o;
rightKerningGroup = e;
rightMetricsKey = e;
unicode = 0153;
},
{
glyphname = p;
lastChange = "2021-08-26 03:05:31 +0000";
layers = (
{
anchors = (
{
name = bottom;
position = "{639, 0}";
},
{
name = top;
position = "{639, 1000}";
}
);
hints = (
{
horizontal = 1;
origin = "{0, 15}";
target = up;
type = BottomGhost;
},
{
horizontal = 1;
origin = "{0, 3}";
target = "{1, 5}";
type = Stem;
},
{
horizontal = 1;
origin = "{0, 9}";
target = "{1, 11}";
type = Stem;
},
{
horizontal = 1;
origin = "{0, 14}";
target = down;
type = TopGhost;
},
{
origin = "{0, 15}";
target = "{0, 16}";
type = Stem;
},
{
origin = "{1, 2}";
target = "{0, 6}";
type = Stem;
},
{
origin = "{0, 15}";
target = "{1, 8}";
type = Stem;
}
);
layerId = "10BC12B3-5274-42E3-B5BC-F74F362F0DF4";
paths = (
{
closed = 1;
nodes = (
"420 92 LINE",
"482 22 OFFCURVE",
"564 -28 OFFCURVE",
"672 -28 CURVE SMOOTH",
"964 -28 OFFCURVE",
"1198 208 OFFCURVE",
"1198 500 CURVE SMOOTH",
"1198 790 OFFCURVE",
"964 1026 OFFCURVE",
"672 1026 CURVE SMOOTH",
"564 1026 OFFCURVE",
"482 976 OFFCURVE",
"420 906 CURVE",
"420 1000 LINE",
"120 1000 LINE",
"120 -500 LINE",
"420 -500 LINE"
);
},
{
closed = 1;
nodes = (
"792 738 OFFCURVE",
"892 630 OFFCURVE",
"892 500 CURVE SMOOTH",
"892 368 OFFCURVE",
"792 262 OFFCURVE",
"668 262 CURVE SMOOTH",
"546 262 OFFCURVE",
"446 368 OFFCURVE",
"446 500 CURVE SMOOTH",
"446 630 OFFCURVE",
"546 738 OFFCURVE",
"668 738 CURVE SMOOTH"
);
}
);
width = 1258;
},
{
anchors = (
{
name = bottom;
position = "{597, 0}";
},
{
name = top;
position = "{597, 1000}";
}
);
hints = (
{
horizontal = 1;
origin = "{0, 15}";
target = up;
type = BottomGhost;
},
{
horizontal = 1;
origin = "{0, 3}";
target = "{1, 5}";
type = Stem;
},
{
horizontal = 1;
origin = "{0, 9}";
target = "{1, 11}";
type = Stem;
},
{
horizontal = 1;
origin = "{0, 14}";
target = down;
type = TopGhost;
},
{
origin = "{0, 15}";
target = "{0, 16}";
type = Stem;
},
{
origin = "{1, 2}";
target = "{0, 6}";
type = Stem;
},
{
origin = "{0, 15}";
target = "{1, 8}";
type = Stem;
}
);
layerId = "9AF1F7D9-E035-453E-B2A8-46DE370997D0";
paths = (
{
closed = 1;
nodes = (
"180 232 LINE",
"252 76 OFFCURVE",
"394 -28 OFFCURVE",
"588 -28 CURVE SMOOTH",
"878 -28 OFFCURVE",
"1114 208 OFFCURVE",
"1114 500 CURVE SMOOTH",
"1114 790 OFFCURVE",
"878 1026 OFFCURVE",
"588 1026 CURVE SMOOTH",
"394 1026 OFFCURVE",
"252 922 OFFCURVE",
"180 766 CURVE",
"180 1000 LINE",
"120 1000 LINE",
"120 -500 LINE",
"180 -500 LINE"
);
},
{
closed = 1;
nodes = (
"846 966 OFFCURVE",
"1054 756 OFFCURVE",
"1054 500 CURVE SMOOTH",
"1054 236 OFFCURVE",
"838 32 OFFCURVE",
"588 32 CURVE SMOOTH",
"330 32 OFFCURVE",
"184 244 OFFCURVE",
"184 500 CURVE SMOOTH",
"184 760 OFFCURVE",
"334 966 OFFCURVE",
"588 966 CURVE SMOOTH"
);
}
);
width = 1174;
}
);
leftKerningGroup = p;
rightKerningGroup = o;
rightMetricsKey = o;
unicode = 0070;
},
{
glyphname = thorn;
lastChange = "2021-08-26 03:05:31 +0000";
layers = (
{
anchors = (
{
name = bottom;
position = "{639, 0}";
},
{
name = top;
position = "{639, 1000}";
}
);
hints = (
{
horizontal = 1;
origin = "{0, 16}";
target = up;
type = BottomGhost;
},
{
horizontal = 1;
origin = "{0, 4}";
target = "{1, 11}";
type = Stem;
},
{
horizontal = 1;
origin = "{0, 10}";
target = "{1, 5}";
type = Stem;
},
{
horizontal = 1;
origin = "{0, 15}";
target = down;
type = TopGhost;
},
{
origin = "{0, 16}";
target = "{0, 0}";
type = Stem;
},
{
origin = "{1, 8}";
target = "{0, 7}";
type = Stem;
},
{
origin = "{0, 16}";
target = "{1, 2}";
type = Stem;
}
);
layerId = "10BC12B3-5274-42E3-B5BC-F74F362F0DF4";
paths = (
{
closed = 1;
nodes = (
"420 -500 LINE",
"420 92 LINE",
"482 22 OFFCURVE",
"564 -28 OFFCURVE",
"672 -28 CURVE SMOOTH",
"964 -28 OFFCURVE",
"1198 208 OFFCURVE",
"1198 500 CURVE SMOOTH",
"1198 790 OFFCURVE",
"964 1026 OFFCURVE",
"672 1026 CURVE SMOOTH",
"564 1026 OFFCURVE",
"482 976 OFFCURVE",
"420 906 CURVE",
"420 1400 LINE",
"120 1400 LINE",
"120 -500 LINE"
);
},
{
closed = 1;
nodes = (
"546 262 OFFCURVE",
"446 368 OFFCURVE",
"446 500 CURVE SMOOTH",
"446 630 OFFCURVE",
"546 738 OFFCURVE",
"668 738 CURVE SMOOTH",
"792 738 OFFCURVE",
"892 630 OFFCURVE",
"892 500 CURVE SMOOTH",
"892 368 OFFCURVE",
"792 262 OFFCURVE",
"668 262 CURVE SMOOTH"
);
}
);
width = 1258;
},
{
anchors = (
{
name = bottom;
position = "{597, 0}";
},
{
name = top;
position = "{597, 1000}";
}
);
hints = (
{
horizontal = 1;
origin = "{0, 16}";
target = up;
type = BottomGhost;
},
{
horizontal = 1;
origin = "{0, 4}";
target = "{1, 11}";
type = Stem;
},
{
horizontal = 1;
origin = "{0, 10}";
target = "{1, 5}";
type = Stem;
},
{
horizontal = 1;
origin = "{0, 15}";
target = down;
type = TopGhost;
},
{
origin = "{0, 16}";
target = "{0, 0}";
type = Stem;
},
{
origin = "{1, 8}";
target = "{0, 7}";
type = Stem;
},
{
origin = "{0, 16}";
target = "{1, 2}";
type = Stem;
}
);
layerId = "9AF1F7D9-E035-453E-B2A8-46DE370997D0";
paths = (
{
closed = 1;
nodes = (
"180 -500 LINE",
"180 232 LINE",
"252 76 OFFCURVE",
"394 -28 OFFCURVE",
"588 -28 CURVE SMOOTH",
"878 -28 OFFCURVE",
"1114 208 OFFCURVE",
"1114 500 CURVE SMOOTH",
"1114 790 OFFCURVE",
"878 1026 OFFCURVE",
"588 1026 CURVE SMOOTH",
"394 1026 OFFCURVE",
"252 922 OFFCURVE",
"180 766 CURVE",
"180 1400 LINE",
"120 1400 LINE",
"120 -500 LINE"
);
},
{
closed = 1;
nodes = (
"330 32 OFFCURVE",
"184 244 OFFCURVE",
"184 500 CURVE SMOOTH",
"184 760 OFFCURVE",
"334 966 OFFCURVE",
"588 966 CURVE SMOOTH",
"846 966 OFFCURVE",
"1054 756 OFFCURVE",
"1054 500 CURVE SMOOTH",
"1054 236 OFFCURVE",
"838 32 OFFCURVE",
"588 32 CURVE SMOOTH"
);
}
);
width = 1174;
}
);
leftKerningGroup = h;
leftMetricsKey = h;
rightKerningGroup = o;
rightMetricsKey = o;
unicode = 00FE;
},
{
glyphname = q;
lastChange = "2021-08-26 17:45:46 +0000";
layers = (
{
anchors = (
{
name = bottom;
position = "{619, 0}";
},
{
name = top;
position = "{619, 1000}";
}
);
hints = (
{
horizontal = 1;
origin = "{0, 3}";
target = up;
type = BottomGhost;
},
{
horizontal = 1;
origin = "{0, 16}";
target = "{1, 5}";
type = Stem;
},
{
horizontal = 1;
origin = "{0, 10}";
target = "{1, 11}";
type = Stem;
},
{
horizontal = 1;
origin = "{0, 6}";
target = down;
type = TopGhost;
},
{
origin = "{0, 13}";
target = "{1, 8}";
type = Stem;
},
{
origin = "{0, 3}";
target = "{0, 4}";
type = Stem;
},
{
origin = "{1, 2}";
target = "{0, 4}";
type = Stem;
}
);
layerId = "10BC12B3-5274-42E3-B5BC-F74F362F0DF4";
paths = (
{
closed = 1;
nodes = (
"694 -28 OFFCURVE",
"776 22 OFFCURVE",
"838 92 CURVE",
"838 -500 LINE",
"1138 -500 LINE",
"1138 1000 LINE",
"838 1000 LINE",
"838 906 LINE",
"776 976 OFFCURVE",
"694 1026 OFFCURVE",
"586 1026 CURVE SMOOTH",
"296 1026 OFFCURVE",
"60 790 OFFCURVE",
"60 500 CURVE SMOOTH",
"60 208 OFFCURVE",
"296 -28 OFFCURVE",
"586 -28 CURVE SMOOTH"
);
},
{
closed = 1;
nodes = (
"714 738 OFFCURVE",
"812 630 OFFCURVE",
"812 500 CURVE SMOOTH",
"812 368 OFFCURVE",
"714 262 OFFCURVE",
"590 262 CURVE SMOOTH",
"466 262 OFFCURVE",
"368 368 OFFCURVE",
"368 500 CURVE SMOOTH",
"368 630 OFFCURVE",
"466 738 OFFCURVE",
"590 738 CURVE SMOOTH"
);
}
);
width = 1258;
},
{
anchors = (
{
name = bottom;
position = "{577, 0}";
},
{
name = top;
position = "{577, 1000}";
}
);
hints = (
{
horizontal = 1;
origin = "{0, 3}";
target = up;
type = BottomGhost;
},
{
horizontal = 1;
origin = "{0, 16}";
target = "{1, 5}";
type = Stem;
},
{
horizontal = 1;
origin = "{0, 10}";
target = "{1, 11}";
type = Stem;
},
{
horizontal = 1;
origin = "{0, 6}";
target = down;
type = TopGhost;
},
{
origin = "{0, 13}";
target = "{1, 8}";
type = Stem;
},
{
origin = "{0, 3}";
target = "{0, 4}";
type = Stem;
},
{
origin = "{1, 2}";
target = "{0, 4}";
type = Stem;
}
);
layerId = "9AF1F7D9-E035-453E-B2A8-46DE370997D0";
paths = (
{
closed = 1;
nodes = (
"780 -28 OFFCURVE",
"922 76 OFFCURVE",
"994 232 CURVE",
"994 -500 LINE",
"1054 -500 LINE",
"1054 1000 LINE",
"994 1000 LINE",
"994 766 LINE",
"922 922 OFFCURVE",
"780 1026 OFFCURVE",
"586 1026 CURVE SMOOTH",
"296 1026 OFFCURVE",
"60 790 OFFCURVE",
"60 500 CURVE SMOOTH",
"60 208 OFFCURVE",
"296 -28 OFFCURVE",
"586 -28 CURVE SMOOTH"
);
},
{
closed = 1;
nodes = (
"840 966 OFFCURVE",
"990 760 OFFCURVE",
"990 500 CURVE SMOOTH",
"990 244 OFFCURVE",
"844 32 OFFCURVE",
"586 32 CURVE SMOOTH",
"336 32 OFFCURVE",
"120 236 OFFCURVE",
"120 500 CURVE SMOOTH",
"120 756 OFFCURVE",
"328 966 OFFCURVE",
"586 966 CURVE SMOOTH"
);
}
);
width = 1174;
}
);
leftKerningGroup = o;
leftMetricsKey = o;
rightKerningGroup = g;
unicode = 0071;
},
{
glyphname = r;
lastChange = "2021-08-26 03:06:25 +0000";
layers = (
{
anchors = (
{
name = bottom;
position = "{271, 0}";
},
{
name = top;
position = "{416, 1000}";
}
);
hints = (
{
horizontal = 1;
origin = "{0, 9}";
target = up;
type = BottomGhost;
},
{
horizontal = 1;
origin = "{0, 3}";
target = "{0, 14}";
type = Stem;
},
{
horizontal = 1;
origin = "{0, 0}";
target = down;
type = TopGhost;
},
{
horizontal = 1;
origin = "{0, 14}";
target = "{0, 8}";
type = Stem;
},
{
origin = "{0, 9}";
target = "{0, 6}";
type = Stem;
},
{
origin = "{0, 9}";
target = "{0, 10}";
type = Stem;
}
);
layerId = "10BC12B3-5274-42E3-B5BC-F74F362F0DF4";
paths = (
{
closed = 1;
nodes = (
"802 1014 LINE",
"762 1026 OFFCURVE",
"718 1026 OFFCURVE",
"672 1026 CURVE SMOOTH",
"564 1026 OFFCURVE",
"482 978 OFFCURVE",
"420 908 CURVE",
"420 1000 LINE",
"120 1000 LINE",
"120 0 LINE",
"422 0 LINE",
"422 500 LINE SMOOTH",
"422 632 OFFCURVE",
"488 738 OFFCURVE",
"618 738 CURVE SMOOTH",
"672 738 OFFCURVE",
"718 720 OFFCURVE",
"754 692 CURVE"
);
}
);
width = 832;
},
{
anchors = (
{
name = bottom;
position = "{150, 0}";
},
{
name = top;
position = "{341, 1000}";
}
);
hints = (
{
horizontal = 1;
origin = "{0, 9}";
target = up;
type = BottomGhost;
},
{
horizontal = 1;
origin = "{0, 3}";
target = "{0, 14}";
type = Stem;
},
{
horizontal = 1;
origin = "{0, 3}";
target = down;
type = TopGhost;
},
{
horizontal = 1;
origin = "{0, 8}";
target = down;
type = TopGhost;
},
{
origin = "{0, 9}";
target = "{0, 10}";
type = Stem;
}
);
layerId = "9AF1F7D9-E035-453E-B2A8-46DE370997D0";
paths = (
{
closed = 1;
nodes = (
"652 1010 LINE",
"618 1022 OFFCURVE",
"580 1028 OFFCURVE",
"540 1028 CURVE SMOOTH",
"392 1028 OFFCURVE",
"262 942 OFFCURVE",
"180 796 CURVE",
"180 1000 LINE",
"120 1000 LINE",
"120 0 LINE",
"180 0 LINE",
"180 550 LINE SMOOTH",
"180 780 OFFCURVE",
"342 968 OFFCURVE",
"540 968 CURVE SMOOTH",
"576 968 OFFCURVE",
"610 962 OFFCURVE",
"642 950 CURVE"
);
}
);
width = 682;
}
);
leftKerningGroup = n;
leftMetricsKey = n;
rightKerningGroup = r;
unicode = 0072;
},
{
glyphname = s;
lastChange = "2021-08-26 03:05:31 +0000";
layers = (
{
anchors = (
{
name = bottom;
position = "{504, 0}";
},
{
name = top;
position = "{447, 1000}";
}
);
hints = (
{
horizontal = 1;
origin = "{0, 37}";
target = up;
type = BottomGhost;
},
{
horizontal = 1;
origin = "{0, 11}";
target = "{0, 18}";
type = Stem;
},
{
origin = "{0, 21}";
target = "{0, 8}";
type = Stem;
},
{
origin = "{0, 27}";
target = "{0, 2}";
type = Stem;
}
);
layerId = "10BC12B3-5274-42E3-B5BC-F74F362F0DF4";
paths = (
{
closed = 1;
nodes = (
"630 -38 OFFCURVE",
"834 102 OFFCURVE",
"834 302 CURVE SMOOTH",
"840 474 OFFCURVE",
"678 578 OFFCURVE",
"506 634 CURVE SMOOTH",
"462 648 OFFCURVE",
"358 650 OFFCURVE",
"358 708 CURVE SMOOTH",
"358 770 OFFCURVE",
"410 786 OFFCURVE",
"480 780 CURVE SMOOTH",
"532 774 OFFCURVE",
"574 738 OFFCURVE",
"598 708 CURVE",
"834 848 LINE",
"748 968 OFFCURVE",
"610 1034 OFFCURVE",
"454 1034 CURVE SMOOTH",
"256 1034 OFFCURVE",
"78 906 OFFCURVE",
"78 700 CURVE SMOOTH",
"78 516 OFFCURVE",
"256 400 OFFCURVE",
"434 372 CURVE SMOOTH",
"484 364 OFFCURVE",
"558 354 OFFCURVE",
"558 298 CURVE SMOOTH",
"558 248 OFFCURVE",
"504 234 OFFCURVE",
"452 234 CURVE SMOOTH",
"374 234 OFFCURVE",
"332 282 OFFCURVE",
"312 304 CURVE",
"60 196 LINE",
"124 66 OFFCURVE",
"266 -4 OFFCURVE",
"418 -18 CURVE SMOOTH"
);
}
);
width = 895;
},
{
anchors = (
{
name = bottom;
position = "{498, 0}";
},
{
name = top;
position = "{436, 1000}";
}
);
hints = (
{
horizontal = 1;
origin = "{0, 37}";
target = "{0, 30}";
type = Stem;
},
{
horizontal = 1;
origin = "{0, 11}";
target = "{0, 18}";
type = Stem;
},
{
origin = "{0, 21}";
target = "{0, 8}";
type = Stem;
},
{
origin = "{0, 27}";
target = "{0, 2}";
type = Stem;
}
);
layerId = "9AF1F7D9-E035-453E-B2A8-46DE370997D0";
paths = (
{
closed = 1;
nodes = (
"636 -20 OFFCURVE",
"808 88 OFFCURVE",
"808 258 CURVE SMOOTH",
"808 424 OFFCURVE",
"638 478 OFFCURVE",
"450 538 CURVE SMOOTH",
"260 598 OFFCURVE",
"150 618 OFFCURVE",
"150 756 CURVE SMOOTH",
"150 890 OFFCURVE",
"292 974 OFFCURVE",
"450 974 CURVE SMOOTH",
"576 974 OFFCURVE",
"718 912 OFFCURVE",
"760 806 CURVE",
"812 836 LINE",
"764 952 OFFCURVE",
"616 1034 OFFCURVE",
"450 1034 CURVE SMOOTH",
"262 1034 OFFCURVE",
"90 926 OFFCURVE",
"90 756 CURVE SMOOTH",
"90 590 OFFCURVE",
"220 550 OFFCURVE",
"450 478 CURVE SMOOTH",
"598 432 OFFCURVE",
"748 394 OFFCURVE",
"748 258 CURVE SMOOTH",
"748 128 OFFCURVE",
"606 40 OFFCURVE",
"450 40 CURVE SMOOTH",
"324 40 OFFCURVE",
"154 112 OFFCURVE",
"116 220 CURVE",
"60 196 LINE",
"102 76 OFFCURVE",
"278 -20 OFFCURVE",
"450 -20 CURVE SMOOTH"
);
}
);
width = 872;
}
);
leftKerningGroup = s;
rightKerningGroup = s;
unicode = 0073;
},
{
glyphname = germandbls;
lastChange = "2021-08-26 03:05:31 +0000";
layers = (
{
anchors = (
{
name = bottom;
position = "{593, 0}";
},
{
name = top;
position = "{593, 1000}";
}
);
hints = (
{
horizontal = 1;
origin = "{0, 38}";
target = "{0, 20}";
type = Stem;
},
{
horizontal = 1;
origin = "{0, 4}";
target = "{0, 34}";
type = Stem;
},
{
origin = "{0, 38}";
target = "{0, 0}";
type = Stem;
},
{
origin = "{0, 7}";
target = "{0, 31}";
type = Stem;
},
{
origin = "{0, 16}";
target = "{0, 25}";
type = Stem;
}
);
layerId = "10BC12B3-5274-42E3-B5BC-F74F362F0DF4";
paths = (
{
closed = 1;
nodes = (
"420 0 LINE",
"420 950 LINE SMOOTH",
"420 1058 OFFCURVE",
"506 1144 OFFCURVE",
"614 1144 CURVE SMOOTH",
"694 1144 OFFCURVE",
"760 1076 OFFCURVE",
"760 994 CURVE SMOOTH",
"760 912 OFFCURVE",
"694 857 OFFCURVE",
"614 844 CURVE SMOOTH",
"590 840 LINE",
"590 598 LINE",
"672 594 LINE SMOOTH",
"776 589 OFFCURVE",
"860 516 OFFCURVE",
"860 424 CURVE SMOOTH",
"860 332 OFFCURVE",
"776 254 OFFCURVE",
"672 254 CURVE SMOOTH",
"590 254 LINE",
"630 0 LINE",
"704 0 LINE SMOOTH",
"936 0 OFFCURVE",
"1126 170 OFFCURVE",
"1126 402 CURVE SMOOTH",
"1126 526 OFFCURVE",
"1108 710 OFFCURVE",
"930 734 CURVE",
"1034 782 OFFCURVE",
"1060 906 OFFCURVE",
"1060 994 CURVE SMOOTH",
"1060 1228 OFFCURVE",
"880 1400 OFFCURVE",
"650 1400 CURVE SMOOTH",
"356 1400 OFFCURVE",
"120 1162 OFFCURVE",
"120 870 CURVE SMOOTH",
"120 0 LINE"
);
}
);
width = 1186;
},
{
anchors = (
{
name = bottom;
position = "{505, 0}";
},
{
name = top;
position = "{505, 1000}";
}
);
hints = (
{
horizontal = 1;
origin = "{0, 38}";
target = "{0, 20}";
type = Stem;
},
{
horizontal = 1;
origin = "{0, 12}";
target = "{0, 11}";
type = Stem;
},
{
horizontal = 1;
origin = "{0, 4}";
target = "{0, 34}";
type = Stem;
},
{
origin = "{0, 38}";
target = "{0, 0}";
type = Stem;
},
{
origin = "{0, 16}";
target = "{0, 25}";
type = Stem;
},
{
origin = "{0, 7}";
target = "{0, 31}";
type = Stem;
}
);
layerId = "9AF1F7D9-E035-453E-B2A8-46DE370997D0";
paths = (
{
closed = 1;
nodes = (
"180 0 LINE",
"180 994 LINE SMOOTH",
"180 1184 OFFCURVE",
"334 1340 OFFCURVE",
"524 1340 CURVE SMOOTH",
"682 1340 OFFCURVE",
"812 1200 OFFCURVE",
"812 1030 CURVE SMOOTH",
"812 860 OFFCURVE",
"682 722 OFFCURVE",
"524 722 CURVE SMOOTH",
"496 722 LINE",
"496 662 LINE",
"590 662 LINE SMOOTH",
"756 662 OFFCURVE",
"890 528 OFFCURVE",
"890 362 CURVE SMOOTH",
"890 196 OFFCURVE",
"756 60 OFFCURVE",
"590 60 CURVE SMOOTH",
"496 60 LINE",
"516 0 LINE",
"590 0 LINE SMOOTH",
"788 0 OFFCURVE",
"950 162 OFFCURVE",
"950 362 CURVE SMOOTH",
"950 526 OFFCURVE",
"842 664 OFFCURVE",
"692 708 CURVE",
"798 770 OFFCURVE",
"872 892 OFFCURVE",
"872 1030 CURVE SMOOTH",
"872 1232 OFFCURVE",
"716 1400 OFFCURVE",
"524 1400 CURVE SMOOTH",
"300 1400 OFFCURVE",
"120 1216 OFFCURVE",
"120 994 CURVE SMOOTH",
"120 0 LINE"
);
}
);
width = 1010;
}
);
leftKerningGroup = h;
rightKerningGroup = B;
unicode = 00DF;
},
{
glyphname = t;
lastChange = "2021-08-26 16:45:21 +0000";
layers = (
{
anchors = (
{
name = bottom;
position = "{350, 0}";
},
{
name = center;
position = "{365, 500}";
},
{
name = top;
position = "{350, 1314}";
},
{
name = topright;
position = "{710, 1000}";
}
);
hints = (
{
horizontal = 1;
origin = "{0, 8}";
target = up;
type = BottomGhost;
},
{
horizontal = 1;
origin = "{0, 5}";
target = "{0, 6}";
type = Stem;
},
{
origin = "{0, 8}";
target = "{0, 9}";
type = Stem;
},
{
origin = "{0, 6}";
target = "{0, 9}";
type = Stem;
}
);
layerId = "10BC12B3-5274-42E3-B5BC-F74F362F0DF4";
paths = (
{
closed = 1;
nodes = (
"670 1000 LINE",
"500 1000 LINE",
"500 1314 LINE",
"200 1314 LINE",
"200 1000 LINE",
"70 1000 LINE",
"70 700 LINE",
"200 700 LINE",
"200 0 LINE",
"500 0 LINE",
"500 700 LINE",
"670 700 LINE"
);
}
);
width = 730;
},
{
anchors = (
{
name = bottom;
position = "{306, 0}";
},
{
name = center;
position = "{335, 500}";
},
{
name = top;
position = "{306, 1314}";
},
{
name = topright;
position = "{650, 1000}";
}
);
hints = (
{
horizontal = 1;
origin = "{0, 8}";
target = up;
type = BottomGhost;
},
{
horizontal = 1;
origin = "{0, 5}";
target = "{0, 6}";
type = Stem;
},
{
place = "{277, 60}";
type = Stem;
}
);
layerId = "9AF1F7D9-E035-453E-B2A8-46DE370997D0";
paths = (
{
closed = 1;
nodes = (
"612 1000 LINE",
"338 1000 LINE",
"336 1314 LINE",
"276 1314 LINE",
"278 1000 LINE",
"72 1000 LINE",
"72 940 LINE",
"278 940 LINE",
"276 0 LINE",
"336 0 LINE",
"338 940 LINE",
"612 940 LINE"
);
}
);
width = 670;
}
);
leftKerningGroup = t;
rightKerningGroup = t;
unicode = 0074;
},
{
glyphname = u;
lastChange = "2021-08-26 16:53:15 +0000";
layers = (
{
anchors = (
{
name = bottom;
position = "{628, 0}";
},
{
name = ogonek;
position = "{1136, 0}";
},
{
name = top;
position = "{628, 1000}";
},
{
name = topright;
position = "{1236, 1000}";
}
);
hints = (
{
horizontal = 1;
origin = "{0, 6}";
target = up;
type = BottomGhost;
},
{
horizontal = 1;
origin = "{0, 18}";
target = down;
type = TopGhost;
},
{
horizontal = 1;
origin = "{0, 2}";
target = "{0, 13}";
type = Stem;
},
{
origin = "{0, 19}";
target = "{0, 16}";
type = Stem;
},
{
origin = "{0, 6}";
target = "{0, 7}";
type = Stem;
}
);
layerId = "10BC12B3-5274-42E3-B5BC-F74F362F0DF4";
paths = (
{
closed = 1;
nodes = (
"120 116 OFFCURVE",
"236 -28 OFFCURVE",
"584 -28 CURVE SMOOTH",
"692 -28 OFFCURVE",
"774 22 OFFCURVE",
"836 92 CURVE",
"836 0 LINE",
"1136 0 LINE",
"1136 1000 LINE",
"836 1000 LINE",
"836 500 LINE SMOOTH",
"836 368 OFFCURVE",
"768 262 OFFCURVE",
"638 262 CURVE SMOOTH",
"536 262 OFFCURVE",
"420 278 OFFCURVE",
"420 410 CURVE SMOOTH",
"420 1000 LINE",
"120 1000 LINE",
"120 406 LINE SMOOTH"
);
}
);
width = 1256;
},
{
anchors = (
{
name = bottom;
position = "{539, 0}";
},
{
name = ogonek;
position = "{958, 0}";
},
{
name = top;
position = "{539, 1000}";
},
{
name = topright;
position = "{1058, 1000}";
}
);
hints = (
{
horizontal = 1;
origin = "{0, 2}";
target = "{0, 13}";
type = Stem;
},
{
horizontal = 1;
origin = "{0, 18}";
target = down;
type = TopGhost;
},
{
horizontal = 1;
origin = "{0, 6}";
target = up;
type = BottomGhost;
},
{
origin = "{0, 19}";
target = "{0, 16}";
type = Stem;
},
{
origin = "{0, 6}";
target = "{0, 7}";
type = Stem;
}
);
layerId = "9AF1F7D9-E035-453E-B2A8-46DE370997D0";
paths = (
{
closed = 1;
nodes = (
"120 126 OFFCURVE",
"280 -26 OFFCURVE",
"540 -26 CURVE SMOOTH",
"688 -26 OFFCURVE",
"816 60 OFFCURVE",
"898 206 CURVE",
"898 0 LINE",
"958 0 LINE",
"958 1000 LINE",
"898 1000 LINE",
"898 452 LINE SMOOTH",
"898 222 OFFCURVE",
"736 34 OFFCURVE",
"540 34 CURVE SMOOTH",
"322 34 OFFCURVE",
"180 152 OFFCURVE",
"180 382 CURVE SMOOTH",
"180 1000 LINE",
"120 1000 LINE",
"120 378 LINE SMOOTH"
);
}
);
width = 1078;
}
);
leftKerningGroup = u;
rightKerningGroup = u;
unicode = 0075;
},
{
glyphname = v;
lastChange = "2021-08-26 03:06:27 +0000";
layers = (
{
anchors = (
{
name = bottom;
position = "{618, 0}";
},
{
name = top;
position = "{618, 1000}";
}
);
hints = (
{
horizontal = 1;
origin = "{0, 5}";
target = up;
type = BottomGhost;
},
{
horizontal = 1;
origin = "{0, 4}";
target = down;
type = TopGhost;
}
);
layerId = "10BC12B3-5274-42E3-B5BC-F74F362F0DF4";
paths = (
{
closed = 1;
nodes = (
"1176 1000 LINE",
"856 1000 LINE",
"618 344 LINE",
"380 1000 LINE",
"60 1000 LINE",
"424 0 LINE",
"812 0 LINE"
);
}
);
width = 1236;
},
{
anchors = (
{
name = bottom;
position = "{462, 0}";
},
{
name = top;
position = "{462, 1000}";
}
);
hints = (
{
horizontal = 1;
origin = "{0, 5}";
target = up;
type = BottomGhost;
},
{
horizontal = 1;
origin = "{0, 4}";
target = down;
type = TopGhost;
},
{
horizontal = 1;
origin = "{0, 5}";
target = "{0, 2}";
type = Stem;
}
);
layerId = "9AF1F7D9-E035-453E-B2A8-46DE370997D0";
paths = (
{
closed = 1;
nodes = (
"864 1004 LINE",
"800 1004 LINE",
"462 74 LINE",
"124 1004 LINE",
"60 1004 LINE",
"426 0 LINE",
"498 0 LINE"
);
}
);
width = 924;
}
);
leftKerningGroup = w;
leftMetricsKey = w;
rightKerningGroup = w;
rightMetricsKey = w;
unicode = 0076;
},
{
glyphname = w;
lastChange = "2021-08-26 03:05:31 +0000";
layers = (
{
anchors = (
{
name = bottom;
position = "{874, 0}";
},
{
name = top;
position = "{874, 1000}";
}
);
hints = (
{
horizontal = 1;
origin = "{0, 11}";
target = up;
type = BottomGhost;
},
{
horizontal = 1;
origin = "{0, 10}";
target = down;
type = TopGhost;
}
);
layerId = "10BC12B3-5274-42E3-B5BC-F74F362F0DF4";
paths = (
{
closed = 1;
nodes = (
"874 562 LINE",
"1060 0 LINE",
"1354 0 LINE",
"1688 1000 LINE",
"1394 1000 LINE",
"1206 438 LINE",
"1020 1000 LINE",
"728 1000 LINE",
"542 438 LINE",
"354 1000 LINE",
"60 1000 LINE",
"394 0 LINE",
"688 0 LINE"
);
}
);
width = 1748;
},
{
anchors = (
{
name = bottom;
position = "{782, 0}";
},
{
name = top;
position = "{782, 1000}";
}
);
hints = (
{
horizontal = 1;
origin = "{0, 11}";
target = "{0, 8}";
type = Stem;
},
{
horizontal = 1;
origin = "{0, 10}";
target = down;
type = TopGhost;
},
{
horizontal = 1;
origin = "{0, 10}";
target = "{0, 0}";
type = Stem;
}
);
layerId = "9AF1F7D9-E035-453E-B2A8-46DE370997D0";
paths = (
{
closed = 1;
nodes = (
"780 940 LINE",
"1098 0 LINE",
"1168 0 LINE",
"1504 1000 LINE",
"1444 1000 LINE",
"1132 72 LINE",
"820 1000 LINE",
"744 1000 LINE",
"432 72 LINE",
"118 1000 LINE",
"60 1000 LINE",
"396 0 LINE",
"464 0 LINE"
);
}
);
width = 1564;
}
);
leftKerningGroup = w;
rightKerningGroup = w;
unicode = 0077;
},
{
glyphname = x;
lastChange = "2021-08-26 03:05:31 +0000";
layers = (
{
anchors = (
{
name = bottom;
position = "{631, 0}";
},
{
name = top;
position = "{631, 1000}";
}
);
hints = (
{
horizontal = 1;
origin = "{0, 11}";
target = up;
type = BottomGhost;
},
{
horizontal = 1;
origin = "{0, 9}";
target = down;
type = TopGhost;
}
);
layerId = "10BC12B3-5274-42E3-B5BC-F74F362F0DF4";
paths = (
{
closed = 1;
nodes = (
"450 0 LINE",
"630 248 LINE",
"812 0 LINE",
"1182 0 LINE",
"816 502 LINE",
"1178 1000 LINE",
"808 1000 LINE",
"630 758 LINE",
"454 1000 LINE",
"84 1000 LINE",
"446 502 LINE",
"80 0 LINE"
);
}
);
width = 1262;
},
{
anchors = (
{
name = bottom;
position = "{483, 0}";
},
{
name = top;
position = "{483, 1000}";
}
);
hints = (
{
horizontal = 1;
origin = "{0, 11}";
target = up;
type = BottomGhost;
},
{
horizontal = 1;
origin = "{0, 9}";
target = down;
type = TopGhost;
}
);
layerId = "9AF1F7D9-E035-453E-B2A8-46DE370997D0";
paths = (
{
closed = 1;
nodes = (
"154 0 LINE",
"484 452 LINE",
"812 0 LINE",
"886 0 LINE",
"520 502 LINE",
"886 1004 LINE",
"812 1004 LINE",
"484 554 LINE",
"154 1004 LINE",
"80 1004 LINE",
"446 502 LINE",
"80 0 LINE"
);
}
);
width = 966;
}
);
leftKerningGroup = x;
rightKerningGroup = x;
unicode = 0078;
},
{
glyphname = y;
lastChange = "2021-08-26 16:38:30 +0000";
layers = (
{
anchors = (
{
name = bottom;
position = "{865, 0}";
},
{
name = top;
position = "{603, 1000}";
}
);
hints = (
{
horizontal = 1;
origin = "{0, 4}";
target = up;
type = BottomGhost;
},
{
horizontal = 1;
origin = "{0, 2}";
target = down;
type = TopGhost;
}
);
layerId = "10BC12B3-5274-42E3-B5BC-F74F362F0DF4";
paths = (
{
closed = 1;
nodes = (
"590 410 LINE",
"408 1000 LINE",
"80 1000 LINE",
"440 0 LINE",
"260 -500 LINE",
"578 -500 LINE",
"1126 1000 LINE",
"806 1000 LINE"
);
}
);
width = 1206;
},
{
anchors = (
{
name = bottom;
position = "{630, 0}";
},
{
name = top;
position = "{473, 1000}";
}
);
hints = (
{
horizontal = 1;
origin = "{0, 4}";
target = up;
type = BottomGhost;
},
{
horizontal = 1;
origin = "{0, 2}";
target = down;
type = TopGhost;
}
);
layerId = "9AF1F7D9-E035-453E-B2A8-46DE370997D0";
paths = (
{
closed = 1;
nodes = (
"468 84 LINE",
"146 1000 LINE",
"80 1000 LINE",
"438 0 LINE",
"256 -500 LINE",
"320 -500 LINE",
"866 1000 LINE",
"804 1000 LINE"
);
}
);
width = 946;
}
);
leftKerningGroup = y;
rightKerningGroup = y;
unicode = 0079;
},
{
glyphname = z;
lastChange = "2021-08-26 03:05:31 +0000";
layers = (
{
anchors = (
{
name = bottom;
position = "{547, 0}";
},
{
name = center;
position = "{547, 500}";
},
{
name = top;
position = "{547, 1000}";
}
);
background = {
paths = (
{
closed = 1;
nodes = (
"974 1000 LINE",
"120 1000 LINE",
"120 700 LINE",
"540 700 LINE",
"120 300 LINE",
"120 0 LINE",
"974 0 LINE",
"974 300 LINE",
"554 300 LINE",
"974 700 LINE"
);
}
);
};
hints = (
{
horizontal = 1;
origin = "{0, 5}";
target = "{0, 4}";
type = Stem;
},
{
horizontal = 1;
origin = "{0, 1}";
target = "{0, 2}";
type = Stem;
},
{
origin = "{0, 5}";
target = "{0, 6}";
type = Stem;
}
);
layerId = "10BC12B3-5274-42E3-B5BC-F74F362F0DF4";
paths = (
{
closed = 1;
nodes = (
"974 1000 LINE",
"120 1000 LINE",
"120 700 LINE",
"540 700 LINE",
"120 300 LINE",
"120 0 LINE",
"974 0 LINE",
"974 300 LINE",
"554 300 LINE",
"974 700 LINE"
);
}
);
width = 1094;
},
{
anchors = (
{
name = bottom;
position = "{527, 0}";
},
{
name = center;
position = "{527, 500}";
},
{
name = top;
position = "{527, 1000}";
}
);
hints = (
{
horizontal = 1;
origin = "{0, 5}";
target = "{0, 4}";
type = Stem;
},
{
horizontal = 1;
origin = "{0, 1}";
target = "{0, 2}";
type = Stem;
}
);
layerId = "9AF1F7D9-E035-453E-B2A8-46DE370997D0";
paths = (
{
closed = 1;
nodes = (
"954 1000 LINE",
"100 1000 LINE",
"100 940 LINE",
"874 940 LINE",
"100 60 LINE",
"100 0 LINE",
"954 0 LINE",
"954 60 LINE",
"180 60 LINE",
"954 940 LINE"
);
}
);
width = 1054;
}
);
leftKerningGroup = z;
rightKerningGroup = z;
unicode = 007A;
},
{
glyphname = mu;
lastChange = "2021-08-26 03:05:31 +0000";
layers = (
{
hints = (
{
horizontal = 1;
origin = "{0, 1}";
target = up;
type = BottomGhost;
},
{
horizontal = 1;
origin = "{0, 20}";
target = down;
type = TopGhost;
},
{
horizontal = 1;
origin = "{0, 4}";
target = "{0, 15}";
type = Stem;
},
{
origin = "{0, 21}";
target = "{0, 0}";
type = Stem;
},
{
origin = "{0, 8}";
target = "{0, 9}";
type = Stem;
}
);
layerId = "10BC12B3-5274-42E3-B5BC-F74F362F0DF4";
paths = (
{
closed = 1;
nodes = (
"380 -432 LINE",
"380 0 LINE",
"430 -18 OFFCURVE",
"484 -28 OFFCURVE",
"544 -28 CURVE SMOOTH",
"652 -28 OFFCURVE",
"734 22 OFFCURVE",
"796 92 CURVE",
"796 0 LINE",
"1096 0 LINE",
"1096 1000 LINE",
"796 1000 LINE",
"796 500 LINE SMOOTH",
"796 368 OFFCURVE",
"728 262 OFFCURVE",
"598 262 CURVE SMOOTH",
"466 262 OFFCURVE",
"380 368 OFFCURVE",
"380 500 CURVE SMOOTH",
"380 1000 LINE",
"80 1000 LINE",
"80 -432 LINE"
);
}
);
width = 1176;
},
{
hints = (
{
horizontal = 1;
origin = "{0, 4}";
target = "{0, 15}";
type = Stem;
},
{
horizontal = 1;
origin = "{0, 20}";
target = down;
type = TopGhost;
},
{
horizontal = 1;
origin = "{0, 8}";
target = up;
type = BottomGhost;
},
{
origin = "{0, 21}";
target = "{0, 0}";
type = Stem;
},
{
origin = "{0, 8}";
target = "{0, 9}";
type = Stem;
}
);
layerId = "9AF1F7D9-E035-453E-B2A8-46DE370997D0";
paths = (
{
closed = 1;
nodes = (
"140 -432 LINE",
"140 208 LINE",
"212 70 OFFCURVE",
"342 -26 OFFCURVE",
"500 -26 CURVE SMOOTH",
"648 -26 OFFCURVE",
"776 60 OFFCURVE",
"858 206 CURVE",
"858 0 LINE",
"918 0 LINE",
"918 1000 LINE",
"858 1000 LINE",
"858 452 LINE SMOOTH",
"858 222 OFFCURVE",
"696 34 OFFCURVE",
"500 34 CURVE SMOOTH",
"302 34 OFFCURVE",
"140 222 OFFCURVE",
"140 452 CURVE SMOOTH",
"140 1000 LINE",
"80 1000 LINE",
"80 -432 LINE"
);
}
);
width = 998;
}
);
leftKerningGroup = p;
rightKerningGroup = u;
unicode = 03BC;
},
{
glyphname = zero;
lastChange = "2021-08-26 03:05:31 +0000";
layers = (
{
hints = (
{
horizontal = 1;
origin = "{0, 11}";
target = "{1, 11}";
type = Stem;
},
{
horizontal = 1;
origin = "{0, 5}";
target = "{1, 5}";
type = Stem;
},
{
origin = "{0, 8}";
target = "{1, 2}";
type = Stem;
},
{
origin = "{1, 8}";
target = "{0, 2}";
type = Stem;
}
);
layerId = "10BC12B3-5274-42E3-B5BC-F74F362F0DF4";
paths = (
{
closed = 1;
nodes = (
"930 -26 OFFCURVE",
"1158 300 OFFCURVE",
"1158 700 CURVE SMOOTH",
"1158 1100 OFFCURVE",
"930 1426 OFFCURVE",
"610 1426 CURVE SMOOTH",
"290 1426 OFFCURVE",
"60 1100 OFFCURVE",
"60 700 CURVE SMOOTH",
"60 300 OFFCURVE",
"290 -26 OFFCURVE",
"610 -26 CURVE SMOOTH"
);
},
{
closed = 1;
nodes = (
"426 274 OFFCURVE",
"340 484 OFFCURVE",
"340 700 CURVE SMOOTH",
"340 918 OFFCURVE",
"424 1126 OFFCURVE",
"610 1126 CURVE SMOOTH",
"788 1126 OFFCURVE",
"878 930 OFFCURVE",
"878 700 CURVE SMOOTH",
"878 482 OFFCURVE",
"796 274 OFFCURVE",
"610 274 CURVE SMOOTH"
);
}
);
width = 1218;
},
{
hints = (
{
horizontal = 1;
origin = "{0, 11}";
target = "{1, 11}";
type = Stem;
},
{
horizontal = 1;
origin = "{0, 5}";
target = "{1, 5}";
type = Stem;
},
{
origin = "{0, 8}";
target = "{1, 2}";
type = Stem;
},
{
origin = "{1, 8}";
target = "{0, 2}";
type = Stem;
}
);
layerId = "9AF1F7D9-E035-453E-B2A8-46DE370997D0";
paths = (
{
closed = 1;
nodes = (
"930 -26 OFFCURVE",
"1118 300 OFFCURVE",
"1118 700 CURVE SMOOTH",
"1118 1102 OFFCURVE",
"930 1426 OFFCURVE",
"590 1426 CURVE SMOOTH",
"248 1426 OFFCURVE",
"60 1102 OFFCURVE",
"60 700 CURVE SMOOTH",
"60 300 OFFCURVE",
"248 -26 OFFCURVE",
"590 -26 CURVE SMOOTH"
);
},
{
closed = 1;
nodes = (
"286 34 OFFCURVE",
"120 332 OFFCURVE",
"120 700 CURVE SMOOTH",
"120 1058 OFFCURVE",
"276 1366 OFFCURVE",
"590 1366 CURVE SMOOTH",
"888 1366 OFFCURVE",
"1058 1082 OFFCURVE",
"1058 700 CURVE SMOOTH",
"1058 336 OFFCURVE",
"894 34 OFFCURVE",
"590 34 CURVE SMOOTH"
);
}
);
width = 1178;
}
);
leftKerningGroup = zero;
rightKerningGroup = zero;
unicode = 0030;
},
{
glyphname = one;
lastChange = "2021-08-26 03:05:31 +0000";
layers = (
{
hints = (
{
horizontal = 1;
origin = "{0, 5}";
target = up;
type = BottomGhost;
},
{
horizontal = 1;
origin = "{0, 2}";
target = "{0, 3}";
type = Stem;
},
{
origin = "{0, 5}";
target = "{0, 0}";
type = Stem;
}
);
layerId = "10BC12B3-5274-42E3-B5BC-F74F362F0DF4";
paths = (
{
closed = 1;
nodes = (
"570 0 LINE",
"570 1400 LINE",
"160 1400 LINE",
"80 1100 LINE",
"270 1100 LINE",
"270 0 LINE"
);
}
);
width = 730;
},
{
hints = (
{
horizontal = 1;
origin = "{0, 5}";
target = up;
type = BottomGhost;
},
{
horizontal = 1;
origin = "{0, 2}";
target = "{0, 3}";
type = Stem;
},
{
origin = "{0, 5}";
target = "{0, 0}";
type = Stem;
}
);
layerId = "9AF1F7D9-E035-453E-B2A8-46DE370997D0";
paths = (
{
closed = 1;
nodes = (
"270 0 LINE",
"270 1400 LINE",
"100 1400 LINE",
"80 1340 LINE",
"210 1340 LINE",
"210 0 LINE"
);
}
);
width = 430;
}
);
leftKerningGroup = one;
rightKerningGroup = one;
unicode = 0031;
},
{
glyphname = two;
lastChange = "2021-08-26 03:05:31 +0000";
layers = (
{
hints = (
{
horizontal = 1;
origin = "{0, 22}";
target = "{0, 2}";
type = Stem;
},
{
horizontal = 1;
origin = "{0, 8}";
target = "{0, 15}";
type = Stem;
},
{
origin = "{0, 11}";
target = "{0, 12}";
type = Stem;
},
{
origin = "{0, 18}";
target = "{0, 0}";
type = Stem;
}
);
layerId = "10BC12B3-5274-42E3-B5BC-F74F362F0DF4";
paths = (
{
closed = 1;
nodes = (
"1052 0 LINE",
"1052 300 LINE",
"632 300 LINE",
"900 560 OFFCURVE",
"1052 718 OFFCURVE",
"1052 940 CURVE SMOOTH",
"1052 1210 OFFCURVE",
"834 1426 OFFCURVE",
"568 1426 CURVE SMOOTH",
"306 1426 OFFCURVE",
"82 1216 OFFCURVE",
"82 940 CURVE",
"382 940 LINE",
"382 1042 OFFCURVE",
"466 1126 OFFCURVE",
"568 1126 CURVE SMOOTH",
"670 1126 OFFCURVE",
"752 1042 OFFCURVE",
"752 940 CURVE SMOOTH",
"752 772 OFFCURVE",
"266 384 OFFCURVE",
"80 268 CURVE",
"80 0 LINE"
);
}
);
width = 1172;
},
{
hints = (
{
horizontal = 1;
origin = "{0, 22}";
target = "{0, 2}";
type = Stem;
},
{
horizontal = 1;
origin = "{0, 8}";
target = "{0, 15}";
type = Stem;
},
{
origin = "{0, 11}";
target = "{0, 12}";
type = Stem;
},
{
origin = "{0, 18}";
target = "{0, 5}";
type = Stem;
}
);
layerId = "9AF1F7D9-E035-453E-B2A8-46DE370997D0";
paths = (
{
closed = 1;
nodes = (
"928 0 LINE",
"928 60 LINE",
"178 60 LINE",
"454 314 OFFCURVE",
"896 780 OFFCURVE",
"896 1026 CURVE SMOOTH",
"896 1246 OFFCURVE",
"718 1426 OFFCURVE",
"500 1426 CURVE SMOOTH",
"280 1426 OFFCURVE",
"102 1246 OFFCURVE",
"102 1026 CURVE",
"162 1026 LINE",
"162 1212 OFFCURVE",
"314 1366 OFFCURVE",
"500 1366 CURVE SMOOTH",
"686 1366 OFFCURVE",
"836 1212 OFFCURVE",
"836 1026 CURVE SMOOTH",
"836 782 OFFCURVE",
"400 372 OFFCURVE",
"80 52 CURVE",
"80 0 LINE"
);
}
);
width = 1048;
}
);
leftKerningGroup = two;
rightKerningGroup = two;
unicode = 0032;
},
{
glyphname = three;
lastChange = "2021-08-26 03:05:31 +0000";
layers = (
{
hints = (
{
horizontal = 1;
origin = "{0, 38}";
target = "{0, 31}";
type = Stem;
},
{
horizontal = 1;
origin = "{0, 25}";
target = "{0, 24}";
type = Stem;
},
{
horizontal = 1;
origin = "{0, 18}";
target = "{0, 11}";
type = Stem;
},
{
horizontal = 1;
origin = "{0, 14}";
target = "{0, 11}";
type = Stem;
},
{
horizontal = 1;
origin = "{0, 38}";
target = "{0, 35}";
type = Stem;
},
{
origin = "{0, 35}";
target = "{0, 34}";
type = Stem;
},
{
origin = "{0, 28}";
target = "{0, 2}";
type = Stem;
},
{
origin = "{0, 21}";
target = "{0, 8}";
type = Stem;
}
);
layerId = "10BC12B3-5274-42E3-B5BC-F74F362F0DF4";
paths = (
{
closed = 1;
nodes = (
"776 -26 OFFCURVE",
"984 182 OFFCURVE",
"984 436 CURVE SMOOTH",
"984 556 OFFCURVE",
"930 704 OFFCURVE",
"826 744 CURVE",
"906 786 OFFCURVE",
"946 902 OFFCURVE",
"946 996 CURVE SMOOTH",
"946 1236 OFFCURVE",
"746 1428 OFFCURVE",
"512 1428 CURVE SMOOTH",
"274 1428 OFFCURVE",
"60 1234 OFFCURVE",
"60 996 CURVE",
"360 996 LINE",
"360 1068 OFFCURVE",
"442 1128 OFFCURVE",
"516 1128 CURVE SMOOTH",
"588 1128 OFFCURVE",
"646 1068 OFFCURVE",
"646 996 CURVE SMOOTH",
"646 896 OFFCURVE",
"556 846 OFFCURVE",
"410 846 CURVE",
"410 618 LINE",
"576 618 OFFCURVE",
"684 558 OFFCURVE",
"684 436 CURVE SMOOTH",
"684 348 OFFCURVE",
"610 274 OFFCURVE",
"522 274 CURVE SMOOTH",
"434 274 OFFCURVE",
"360 348 OFFCURVE",
"360 436 CURVE",
"60 436 LINE",
"60 180 OFFCURVE",
"270 -26 OFFCURVE",
"522 -26 CURVE SMOOTH"
);
}
);
width = 1044;
},
{
background = {
paths = (
{
closed = 1;
nodes = (
"908 708 OFFCURVE",
"822 746 CURVE",
"906 804 OFFCURVE",
"942 902 OFFCURVE",
"942 1000 CURVE",
"942 1248 OFFCURVE",
"742 1424 OFFCURVE",
"498 1424 CURVE",
"252 1424 OFFCURVE",
"54 1246 OFFCURVE",
"54 1000 CURVE",
"354 1000 LINE",
"354 1080 OFFCURVE",
"418 1144 OFFCURVE",
"498 1144 CURVE",
"576 1144 OFFCURVE",
"642 1080 OFFCURVE",
"642 1000 CURVE",
"642 936 OFFCURVE",
"568 830 OFFCURVE",
"390 830 CURVE",
"390 648 LINE",
"618 648 OFFCURVE",
"678 530 OFFCURVE",
"678 446 CURVE",
"678 352 OFFCURVE",
"600 274 OFFCURVE",
"504 274 CURVE",
"410 274 OFFCURVE",
"332 352 OFFCURVE",
"332 446 CURVE",
"32 446 LINE",
"32 184 OFFCURVE",
"244 -26 OFFCURVE",
"504 -26 CURVE",
"764 -26 OFFCURVE",
"978 186 OFFCURVE",
"978 446 CURVE",
"978 560 OFFCURVE"
);
}
);
};
hints = (
{
horizontal = 1;
origin = "{0, 38}";
target = "{0, 31}";
type = Stem;
},
{
horizontal = 1;
origin = "{0, 25}";
target = "{0, 24}";
type = Stem;
},
{
horizontal = 1;
origin = "{0, 11}";
target = "{0, 18}";
type = Stem;
},
{
origin = "{0, 35}";
target = "{0, 34}";
type = Stem;
},
{
origin = "{0, 28}";
target = "{0, 2}";
type = Stem;
},
{
origin = "{0, 14}";
target = "{0, 15}";
type = Stem;
},
{
origin = "{0, 21}";
target = "{0, 8}";
type = Stem;
}
);
layerId = "9AF1F7D9-E035-453E-B2A8-46DE370997D0";
paths = (
{
closed = 1;
nodes = (
"694 -26 OFFCURVE",
"892 152 OFFCURVE",
"892 370 CURVE SMOOTH",
"892 546 OFFCURVE",
"796 678 OFFCURVE",
"614 738 CURVE",
"754 784 OFFCURVE",
"848 906 OFFCURVE",
"848 1066 CURVE SMOOTH",
"848 1264 OFFCURVE",
"666 1426 OFFCURVE",
"468 1426 CURVE SMOOTH",
"268 1426 OFFCURVE",
"86 1264 OFFCURVE",
"86 1066 CURVE",
"146 1066 LINE",
"146 1230 OFFCURVE",
"302 1366 OFFCURVE",
"468 1366 CURVE SMOOTH",
"632 1366 OFFCURVE",
"788 1230 OFFCURVE",
"788 1066 CURVE SMOOTH",
"788 870 OFFCURVE",
"636 766 OFFCURVE",
"412 766 CURVE",
"412 706 LINE",
"652 706 OFFCURVE",
"832 594 OFFCURVE",
"832 370 CURVE SMOOTH",
"832 184 OFFCURVE",
"660 34 OFFCURVE",
"476 34 CURVE SMOOTH",
"250 34 OFFCURVE",
"120 184 OFFCURVE",
"120 370 CURVE",
"60 370 LINE",
"60 152 OFFCURVE",
"218 -26 OFFCURVE",
"476 -26 CURVE SMOOTH"
);
}
);
width = 952;
}
);
leftKerningGroup = three;
rightKerningGroup = three;
unicode = 0033;
},
{
glyphname = four;
lastChange = "2021-08-26 03:05:31 +0000";
layers = (
{
hints = (
{
horizontal = 1;
origin = "{0, 10}";
target = up;
type = BottomGhost;
},
{
horizontal = 1;
origin = "{0, 8}";
target = "{0, 7}";
type = Stem;
},
{
horizontal = 1;
origin = "{0, 6}";
target = down;
type = TopGhost;
},
{
origin = "{0, 10}";
target = "{0, 0}";
type = Stem;
},
{
origin = "{0, 10}";
target = "{0, 2}";
type = Stem;
}
);
layerId = "10BC12B3-5274-42E3-B5BC-F74F362F0DF4";
paths = (
{
closed = 1;
nodes = (
"972 0 LINE",
"972 310 LINE",
"1074 310 LINE",
"1074 610 LINE",
"972 610 LINE",
"972 1400 LINE",
"604 1400 LINE",
"80 610 LINE",
"80 310 LINE",
"672 310 LINE",
"672 0 LINE"
);
},
{
closed = 1;
nodes = (
"672 996 LINE",
"672 610 LINE",
"426 610 LINE"
);
}
);
width = 1194;
},
{
hints = (
{
horizontal = 1;
origin = "{0, 10}";
target = up;
type = BottomGhost;
},
{
horizontal = 1;
origin = "{0, 8}";
target = "{1, 1}";
type = Stem;
},
{
horizontal = 1;
origin = "{0, 6}";
target = down;
type = TopGhost;
},
{
horizontal = 1;
place = "{434, 62}";
type = Stem;
},
{
horizontal = 1;
origin = "{0, 6}";
target = "{1, 0}";
type = Stem;
},
{
origin = "{0, 10}";
target = "{0, 0}";
type = Stem;
},
{
place = "{688, 62}";
type = Stem;
}
);
layerId = "9AF1F7D9-E035-453E-B2A8-46DE370997D0";
paths = (
{
closed = 1;
nodes = (
"750 0 LINE",
"750 434 LINE",
"920 434 LINE",
"920 494 LINE",
"750 494 LINE",
"750 1400 LINE",
"670 1400 LINE",
"80 498 LINE",
"80 434 LINE",
"690 434 LINE",
"690 0 LINE"
);
},
{
closed = 1;
nodes = (
"686 1302 LINE",
"690 494 LINE",
"156 498 LINE"
);
}
);
width = 1040;
}
);
leftKerningGroup = four;
rightKerningGroup = four;
unicode = 0034;
},
{
glyphname = five;
lastChange = "2021-08-26 03:05:31 +0000";
layers = (
{
hints = (
{
horizontal = 1;
origin = "{0, 25}";
target = "{0, 18}";
type = Stem;
},
{
horizontal = 1;
place = "{660, 299}";
type = Stem;
},
{
horizontal = 1;
origin = "{0, 10}";
target = "{0, 7}";
type = Stem;
},
{
origin = "{0, 22}";
target = "{0, 21}";
type = Stem;
},
{
origin = "{0, 15}";
target = "{0, 2}";
type = Stem;
}
);
layerId = "10BC12B3-5274-42E3-B5BC-F74F362F0DF4";
paths = (
{
closed = 1;
nodes = (
"834 -26 OFFCURVE",
"1052 196 OFFCURVE",
"1052 464 CURVE SMOOTH",
"1052 732 OFFCURVE",
"852 946 OFFCURVE",
"568 958 CURVE SMOOTH",
"504 960 LINE",
"534 1100 LINE",
"996 1100 LINE",
"996 1400 LINE",
"290 1400 LINE",
"134 660 LINE",
"504 660 LINE SMOOTH",
"704 660 OFFCURVE",
"752 570 OFFCURVE",
"752 464 CURVE SMOOTH",
"752 358 OFFCURVE",
"666 274 OFFCURVE",
"562 274 CURVE SMOOTH",
"456 274 OFFCURVE",
"370 358 OFFCURVE",
"370 464 CURVE",
"70 464 LINE",
"70 200 OFFCURVE",
"284 -26 OFFCURVE",
"562 -26 CURVE SMOOTH"
);
}
);
width = 1172;
},
{
hints = (
{
horizontal = 1;
origin = "{0, 25}";
target = "{0, 18}";
type = Stem;
},
{
horizontal = 1;
origin = "{0, 11}";
target = "{0, 6}";
type = Stem;
},
{
horizontal = 1;
origin = "{0, 10}";
target = "{0, 7}";
type = Stem;
},
{
origin = "{0, 22}";
target = "{0, 21}";
type = Stem;
},
{
origin = "{0, 15}";
target = "{0, 2}";
type = Stem;
}
);
layerId = "9AF1F7D9-E035-453E-B2A8-46DE370997D0";
paths = (
{
closed = 1;
nodes = (
"754 -26 OFFCURVE",
"954 172 OFFCURVE",
"954 416 CURVE SMOOTH",
"954 682 OFFCURVE",
"758 858 OFFCURVE",
"472 858 CURVE SMOOTH",
"260 858 LINE",
"354 1340 LINE",
"936 1340 LINE",
"936 1400 LINE",
"306 1400 LINE",
"186 798 LINE",
"512 798 LINE SMOOTH",
"722 798 OFFCURVE",
"894 626 OFFCURVE",
"894 416 CURVE SMOOTH",
"894 206 OFFCURVE",
"722 34 OFFCURVE",
"512 34 CURVE SMOOTH",
"300 34 OFFCURVE",
"130 206 OFFCURVE",
"130 416 CURVE",
"70 416 LINE",
"70 172 OFFCURVE",
"266 -26 OFFCURVE",
"512 -26 CURVE SMOOTH"
);
}
);
width = 1074;
}
);
leftKerningGroup = five;
rightKerningGroup = five;
unicode = 0035;
},
{
glyphname = six;
lastChange = "2021-08-26 03:05:31 +0000";
layers = (
{
hints = (
{
horizontal = 1;
origin = "{0, 14}";
target = "{1, 11}";
type = Stem;
},
{
horizontal = 1;
origin = "{0, 7}";
target = down;
type = TopGhost;
},
{
origin = "{0, 11}";
target = "{1, 2}";
type = Stem;
},
{
origin = "{1, 8}";
target = "{0, 2}";
type = Stem;
}
);
layerId = "10BC12B3-5274-42E3-B5BC-F74F362F0DF4";
paths = (
{
closed = 1;
nodes = (
"826 -26 OFFCURVE",
"1050 200 OFFCURVE",
"1050 474 CURVE SMOOTH",
"1050 730 OFFCURVE",
"860 942 OFFCURVE",
"606 972 CURVE",
"854 1400 LINE",
"506 1400 LINE",
"116 724 LINE SMOOTH",
"70 646 OFFCURVE",
"50 560 OFFCURVE",
"50 474 CURVE SMOOTH",
"50 198 OFFCURVE",
"276 -26 OFFCURVE",
"548 -26 CURVE SMOOTH"
);
},
{
closed = 1;
nodes = (
"446 274 OFFCURVE",
"350 358 OFFCURVE",
"350 472 CURVE SMOOTH",
"350 576 OFFCURVE",
"430 674 OFFCURVE",
"550 674 CURVE SMOOTH",
"664 674 OFFCURVE",
"750 582 OFFCURVE",
"750 472 CURVE SMOOTH",
"750 372 OFFCURVE",
"664 274 OFFCURVE",
"548 274 CURVE SMOOTH"
);
}
);
width = 1110;
},
{
hints = (
{
horizontal = 1;
origin = "{0, 14}";
target = "{1, 11}";
type = Stem;
},
{
horizontal = 1;
place = "{864, 61}";
type = Stem;
},
{
horizontal = 1;
origin = "{0, 7}";
target = down;
type = TopGhost;
},
{
origin = "{0, 11}";
target = "{1, 2}";
type = Stem;
},
{
origin = "{1, 8}";
target = "{0, 2}";
type = Stem;
}
);
layerId = "9AF1F7D9-E035-453E-B2A8-46DE370997D0";
paths = (
{
closed = 1;
nodes = (
"786 -26 OFFCURVE",
"1000 188 OFFCURVE",
"1000 450 CURVE SMOOTH",
"1000 820 OFFCURVE",
"594 1044 OFFCURVE",
"282 858 CURVE",
"594 1400 LINE",
"524 1400 LINE",
"124 704 LINE",
"76 610 OFFCURVE",
"50 560 OFFCURVE",
"50 450 CURVE SMOOTH",
"50 188 OFFCURVE",
"264 -26 OFFCURVE",
"524 -26 CURVE SMOOTH"
);
},
{
closed = 1;
nodes = (
"302 34 OFFCURVE",
"110 216 OFFCURVE",
"110 452 CURVE SMOOTH",
"110 672 OFFCURVE",
"290 864 OFFCURVE",
"526 864 CURVE SMOOTH",
"754 864 OFFCURVE",
"940 680 OFFCURVE",
"940 452 CURVE SMOOTH",
"940 232 OFFCURVE",
"766 34 OFFCURVE",
"524 34 CURVE SMOOTH"
);
}
);
width = 1060;
}
);
leftKerningGroup = six;
rightKerningGroup = six;
unicode = 0036;
},
{
glyphname = seven;
lastChange = "2021-08-26 03:05:31 +0000";
layers = (
{
hints = (
{
horizontal = 1;
origin = "{0, 6}";
target = up;
type = BottomGhost;
},
{
horizontal = 1;
origin = "{0, 3}";
target = "{0, 4}";
type = Stem;
}
);
layerId = "10BC12B3-5274-42E3-B5BC-F74F362F0DF4";
paths = (
{
closed = 1;
nodes = (
"440 0 LINE",
"1076 1100 LINE",
"1076 1400 LINE",
"40 1400 LINE",
"40 1100 LINE",
"728 1100 LINE",
"94 0 LINE"
);
}
);
width = 1116;
},
{
hints = (
{
horizontal = 1;
origin = "{0, 6}";
target = up;
type = BottomGhost;
},
{
horizontal = 1;
origin = "{0, 3}";
target = "{0, 4}";
type = Stem;
}
);
layerId = "9AF1F7D9-E035-453E-B2A8-46DE370997D0";
paths = (
{
closed = 1;
nodes = (
"232 0 LINE",
"1006 1340 LINE",
"1006 1400 LINE",
"40 1400 LINE",
"40 1340 LINE",
"936 1340 LINE",
"164 0 LINE"
);
}
);
width = 1046;
}
);
leftKerningGroup = seven;
rightKerningGroup = seven;
unicode = 0037;
},
{
glyphname = eight;
lastChange = "2021-08-26 03:05:31 +0000";
layers = (
{
hints = (
{
horizontal = 1;
origin = "{0, 23}";
target = "{1, 11}";
type = Stem;
},
{
horizontal = 1;
origin = "{1, 5}";
target = "{2, 11}";
type = Stem;
},
{
horizontal = 1;
origin = "{0, 11}";
target = "{2, 5}";
type = Stem;
},
{
origin = "{0, 20}";
target = "{1, 2}";
type = Stem;
},
{
origin = "{1, 8}";
target = "{0, 2}";
type = Stem;
},
{
origin = "{0, 14}";
target = "{2, 2}";
type = Stem;
},
{
origin = "{2, 8}";
target = "{0, 8}";
type = Stem;
}
);
layerId = "10BC12B3-5274-42E3-B5BC-F74F362F0DF4";
paths = (
{
closed = 1;
nodes = (
"818 -26 OFFCURVE",
"1030 176 OFFCURVE",
"1030 426 CURVE SMOOTH",
"1030 542 OFFCURVE",
"984 652 OFFCURVE",
"900 736 CURVE",
"962 810 OFFCURVE",
"1000 902 OFFCURVE",
"1000 1002 CURVE SMOOTH",
"1000 1236 OFFCURVE",
"800 1426 OFFCURVE",
"554 1426 CURVE SMOOTH",
"308 1426 OFFCURVE",
"108 1236 OFFCURVE",
"108 1002 CURVE SMOOTH",
"108 902 OFFCURVE",
"146 810 OFFCURVE",
"208 736 CURVE",
"126 652 OFFCURVE",
"80 542 OFFCURVE",
"80 426 CURVE SMOOTH",
"80 174 OFFCURVE",
"290 -26 OFFCURVE",
"554 -26 CURVE SMOOTH"
);
},
{
closed = 1;
nodes = (
"466 274 OFFCURVE",
"394 342 OFFCURVE",
"394 426 CURVE SMOOTH",
"394 510 OFFCURVE",
"466 578 OFFCURVE",
"554 578 CURVE SMOOTH",
"642 578 OFFCURVE",
"714 510 OFFCURVE",
"714 426 CURVE SMOOTH",
"714 342 OFFCURVE",
"642 274 OFFCURVE",
"554 274 CURVE SMOOTH"
);
},
{
closed = 1;
nodes = (
"482 878 OFFCURVE",
"424 934 OFFCURVE",
"424 1002 CURVE SMOOTH",
"424 1070 OFFCURVE",
"482 1126 OFFCURVE",
"554 1126 CURVE SMOOTH",
"626 1126 OFFCURVE",
"684 1070 OFFCURVE",
"684 1002 CURVE SMOOTH",
"684 934 OFFCURVE",
"626 878 OFFCURVE",
"554 878 CURVE SMOOTH"
);
}
);
width = 1110;
},
{
hints = (
{
horizontal = 1;
origin = "{0, 23}";
target = "{1, 11}";
type = Stem;
},
{
horizontal = 1;
origin = "{1, 5}";
target = "{2, 11}";
type = Stem;
},
{
horizontal = 1;
origin = "{0, 11}";
target = "{2, 5}";
type = Stem;
},
{
origin = "{0, 20}";
target = "{1, 2}";
type = Stem;
},
{
origin = "{1, 8}";
target = "{0, 2}";
type = Stem;
},
{
origin = "{0, 14}";
target = "{2, 2}";
type = Stem;
},
{
origin = "{2, 8}";
target = "{0, 8}";
type = Stem;
}
);
layerId = "9AF1F7D9-E035-453E-B2A8-46DE370997D0";
paths = (
{
closed = 1;
nodes = (
"750 -26 OFFCURVE",
"944 152 OFFCURVE",
"944 370 CURVE SMOOTH",
"944 536 OFFCURVE",
"832 678 OFFCURVE",
"674 738 CURVE",
"808 794 OFFCURVE",
"906 920 OFFCURVE",
"906 1066 CURVE SMOOTH",
"906 1264 OFFCURVE",
"728 1426 OFFCURVE",
"512 1426 CURVE SMOOTH",
"296 1426 OFFCURVE",
"118 1264 OFFCURVE",
"118 1066 CURVE SMOOTH",
"118 920 OFFCURVE",
"216 794 OFFCURVE",
"350 738 CURVE",
"194 678 OFFCURVE",
"80 536 OFFCURVE",
"80 370 CURVE SMOOTH",
"80 152 OFFCURVE",
"274 -26 OFFCURVE",
"512 -26 CURVE SMOOTH"
);
},
{
closed = 1;
nodes = (
"312 34 OFFCURVE",
"146 184 OFFCURVE",
"146 370 CURVE SMOOTH",
"146 556 OFFCURVE",
"312 706 OFFCURVE",
"512 706 CURVE SMOOTH",
"716 706 OFFCURVE",
"878 556 OFFCURVE",
"878 370 CURVE SMOOTH",
"878 184 OFFCURVE",
"716 34 OFFCURVE",
"512 34 CURVE SMOOTH"
);
},
{
closed = 1;
nodes = (
"330 766 OFFCURVE",
"184 900 OFFCURVE",
"184 1066 CURVE SMOOTH",
"184 1232 OFFCURVE",
"330 1366 OFFCURVE",
"512 1366 CURVE SMOOTH",
"694 1366 OFFCURVE",
"840 1232 OFFCURVE",
"840 1066 CURVE SMOOTH",
"840 900 OFFCURVE",
"694 766 OFFCURVE",
"512 766 CURVE SMOOTH"
);
}
);
width = 1024;
}
);
leftKerningGroup = eight;
rightKerningGroup = eight;
unicode = 0038;
},
{
glyphname = nine;
lastChange = "2021-08-26 03:05:31 +0000";
layers = (
{
hints = (
{
horizontal = 1;
origin = "{0, 14}";
target = up;
type = BottomGhost;
},
{
horizontal = 1;
origin = "{0, 7}";
target = "{1, 5}";
type = Stem;
},
{
origin = "{0, 10}";
target = "{1, 2}";
type = Stem;
},
{
origin = "{1, 8}";
target = "{0, 4}";
type = Stem;
}
);
layerId = "10BC12B3-5274-42E3-B5BC-F74F362F0DF4";
paths = (
{
closed = 1;
nodes = (
"604 0 LINE",
"994 676 LINE SMOOTH",
"1040 754 OFFCURVE",
"1060 840 OFFCURVE",
"1060 926 CURVE SMOOTH",
"1060 1202 OFFCURVE",
"834 1426 OFFCURVE",
"562 1426 CURVE SMOOTH",
"284 1426 OFFCURVE",
"60 1200 OFFCURVE",
"60 926 CURVE SMOOTH",
"60 670 OFFCURVE",
"250 458 OFFCURVE",
"504 428 CURVE",
"256 0 LINE"
);
},
{
closed = 1;
nodes = (
"446 726 OFFCURVE",
"360 818 OFFCURVE",
"360 928 CURVE SMOOTH",
"360 1028 OFFCURVE",
"446 1126 OFFCURVE",
"562 1126 CURVE SMOOTH",
"664 1126 OFFCURVE",
"760 1042 OFFCURVE",
"760 928 CURVE SMOOTH",
"760 824 OFFCURVE",
"680 726 OFFCURVE",
"560 726 CURVE SMOOTH"
);
}
);
width = 1120;
},
{
hints = (
{
horizontal = 1;
origin = "{0, 14}";
target = up;
type = BottomGhost;
},
{
horizontal = 1;
place = "{525, 57}";
type = Stem;
},
{
horizontal = 1;
origin = "{0, 7}";
target = "{1, 5}";
type = Stem;
},
{
origin = "{0, 10}";
target = "{1, 2}";
type = Stem;
},
{
origin = "{1, 8}";
target = "{0, 4}";
type = Stem;
}
);
layerId = "9AF1F7D9-E035-453E-B2A8-46DE370997D0";
paths = (
{
closed = 1;
nodes = (
"468 0 LINE",
"888 734 LINE",
"934 824 OFFCURVE",
"960 870 OFFCURVE",
"960 974 CURVE SMOOTH",
"960 1222 OFFCURVE",
"756 1426 OFFCURVE",
"510 1426 CURVE SMOOTH",
"262 1426 OFFCURVE",
"60 1222 OFFCURVE",
"60 974 CURVE SMOOTH",
"60 624 OFFCURVE",
"444 412 OFFCURVE",
"740 588 CURVE",
"400 0 LINE"
);
},
{
closed = 1;
nodes = (
"292 582 OFFCURVE",
"116 756 OFFCURVE",
"116 972 CURVE SMOOTH",
"116 1182 OFFCURVE",
"280 1368 OFFCURVE",
"510 1368 CURVE SMOOTH",
"720 1368 OFFCURVE",
"902 1196 OFFCURVE",
"902 972 CURVE SMOOTH",
"902 764 OFFCURVE",
"732 582 OFFCURVE",
"508 582 CURVE SMOOTH"
);
}
);
width = 1020;
}
);
leftKerningGroup = nine;
rightKerningGroup = nine;
unicode = 0039;
},
{
glyphname = zeroinferior;
lastChange = "2021-08-26 03:05:31 +0000";
layers = (
{
hints = (
{
horizontal = 1;
origin = "{0, 11}";
target = "{1, 11}";
type = Stem;
},
{
horizontal = 1;
origin = "{1, 5}";
target = "{0, 5}";
type = Stem;
},
{
origin = "{0, 8}";
target = "{1, 2}";
type = Stem;
},
{
origin = "{1, 8}";
target = "{0, 2}";
type = Stem;
}
);
layerId = "10BC12B3-5274-42E3-B5BC-F74F362F0DF4";
paths = (
{
closed = 1;
nodes = (
"463 -31 OFFCURVE",
"576 125 OFFCURVE",
"576 317 CURVE SMOOTH",
"576 506 OFFCURVE",
"463 662 OFFCURVE",
"324 662 CURVE SMOOTH",
"185 662 OFFCURVE",
"72 506 OFFCURVE",
"72 317 CURVE SMOOTH",
"72 125 OFFCURVE",
"185 -31 OFFCURVE",
"324 -31 CURVE SMOOTH"
);
},
{
closed = 1;
nodes = (
"269 137 OFFCURVE",
"240 238 OFFCURVE",
"240 317 CURVE SMOOTH",
"240 386 OFFCURVE",
"264 494 OFFCURVE",
"324 494 CURVE SMOOTH",
"377 494 OFFCURVE",
"408 391 OFFCURVE",
"408 317 CURVE SMOOTH",
"408 252 OFFCURVE",
"379 137 OFFCURVE",
"324 137 CURVE SMOOTH"
);
}
);
width = 648;
},
{
hints = (
{
horizontal = 1;
origin = "{0, 11}";
target = "{1, 11}";
type = Stem;
},
{
horizontal = 1;
origin = "{1, 5}";
target = "{0, 5}";
type = Stem;
},
{
origin = "{0, 8}";
target = "{1, 2}";
type = Stem;
},
{
origin = "{1, 8}";
target = "{0, 2}";
type = Stem;
}
);
layerId = "9AF1F7D9-E035-453E-B2A8-46DE370997D0";
paths = (
{
closed = 1;
nodes = (
"463 -31 OFFCURVE",
"576 109 OFFCURVE",
"576 301 CURVE SMOOTH",
"576 493 OFFCURVE",
"463 636 OFFCURVE",
"324 636 CURVE SMOOTH",
"185 636 OFFCURVE",
"72 493 OFFCURVE",
"72 301 CURVE SMOOTH",
"72 109 OFFCURVE",
"185 -31 OFFCURVE",
"324 -31 CURVE SMOOTH"
);
},
{
closed = 1;
nodes = (
"218 41 OFFCURVE",
"144 167 OFFCURVE",
"144 301 CURVE SMOOTH",
"144 431 OFFCURVE",
"214 564 OFFCURVE",
"324 564 CURVE SMOOTH",
"430 564 OFFCURVE",
"504 438 OFFCURVE",
"504 301 CURVE SMOOTH",
"504 174 OFFCURVE",
"434 41 OFFCURVE",
"324 41 CURVE SMOOTH"
);
}
);
width = 648;
}
);
leftKerningGroup = zero.dnom;
rightKerningGroup = zero.dnom;
unicode = 2080;
},
{
glyphname = oneinferior;
lastChange = "2021-08-26 03:05:31 +0000";
layers = (
{
hints = (
{
horizontal = 1;
origin = "{0, 5}";
target = up;
type = BottomGhost;
},
{
horizontal = 1;
origin = "{0, 3}";
target = "{0, 2}";
type = Stem;
},
{
origin = "{0, 5}";
target = "{0, 0}";
type = Stem;
}
);
layerId = "10BC12B3-5274-42E3-B5BC-F74F362F0DF4";
paths = (
{
closed = 1;
nodes = (
"322 0 LINE",
"322 631 LINE",
"120 631 LINE",
"96 463 LINE",
"154 463 LINE",
"154 0 LINE"
);
}
);
width = 466;
},
{
hints = (
{
horizontal = 1;
origin = "{0, 5}";
target = up;
type = BottomGhost;
},
{
horizontal = 1;
origin = "{0, 3}";
target = "{0, 2}";
type = Stem;
},
{
origin = "{0, 5}";
target = "{0, 0}";
type = Stem;
}
);
layerId = "9AF1F7D9-E035-453E-B2A8-46DE370997D0";
paths = (
{
closed = 1;
nodes = (
"257 0 LINE",
"257 631 LINE",
"106 631 LINE",
"96 559 LINE",
"185 559 LINE",
"185 0 LINE"
);
}
);
width = 401;
}
);
leftKerningGroup = one.dnom;
rightKerningGroup = one.dnom;
unicode = 2081;
},
{
glyphname = twoinferior;
lastChange = "2021-08-26 03:05:31 +0000";
layers = (
{
hints = (
{
horizontal = 1;
origin = "{0, 22}";
target = "{0, 2}";
type = Stem;
},
{
horizontal = 1;
origin = "{0, 11}";
target = "{0, 8}";
type = Stem;
},
{
horizontal = 1;
origin = "{0, 15}";
target = "{0, 8}";
type = Stem;
},
{
origin = "{0, 22}";
target = "{0, 0}";
type = Stem;
},
{
origin = "{0, 22}";
target = "{0, 12}";
type = Stem;
},
{
origin = "{0, 18}";
target = "{0, 5}";
type = Stem;
}
);
layerId = "10BC12B3-5274-42E3-B5BC-F74F362F0DF4";
paths = (
{
closed = 1;
nodes = (
"571 0 LINE",
"571 168 LINE",
"403 168 LINE",
"490 245 OFFCURVE",
"583 314 OFFCURVE",
"583 418 CURVE SMOOTH",
"583 552 OFFCURVE",
"475 662 OFFCURVE",
"341 662 CURVE SMOOTH",
"206 662 OFFCURVE",
"96 552 OFFCURVE",
"96 418 CURVE",
"264 418 LINE",
"264 461 OFFCURVE",
"298 494 OFFCURVE",
"341 494 CURVE SMOOTH",
"382 494 OFFCURVE",
"415 461 OFFCURVE",
"415 418 CURVE",
"343 281 OFFCURVE",
"211 226 OFFCURVE",
"96 146 CURVE",
"96 0 LINE"
);
}
);
width = 727;
},
{
hints = (
{
horizontal = 1;
origin = "{0, 22}";
target = "{0, 2}";
type = Stem;
},
{
horizontal = 1;
origin = "{0, 15}";
target = "{0, 8}";
type = Stem;
},
{
origin = "{0, 22}";
target = "{0, 12}";
type = Stem;
},
{
origin = "{0, 18}";
target = "{0, 0}";
type = Stem;
}
);
layerId = "9AF1F7D9-E035-453E-B2A8-46DE370997D0";
paths = (
{
closed = 1;
nodes = (
"526 0 LINE",
"526 72 LINE",
"218 72 LINE",
"341 156 OFFCURVE",
"526 326 OFFCURVE",
"526 446 CURVE SMOOTH",
"526 564 OFFCURVE",
"430 650 OFFCURVE",
"312 650 CURVE SMOOTH",
"192 650 OFFCURVE",
"96 564 OFFCURVE",
"96 446 CURVE",
"168 446 LINE",
"168 526 OFFCURVE",
"233 578 OFFCURVE",
"312 578 CURVE SMOOTH",
"391 578 OFFCURVE",
"454 526 OFFCURVE",
"454 446 CURVE SMOOTH",
"454 331 OFFCURVE",
"194 139 OFFCURVE",
"96 74 CURVE",
"96 0 LINE"
);
}
);
width = 670;
}
);
leftKerningGroup = two.dnom;
rightKerningGroup = two.dnom;
unicode = 2082;
},
{
glyphname = threeinferior;
lastChange = "2021-08-26 03:05:31 +0000";
layers = (
{
hints = (
{
horizontal = 1;
origin = "{0, 38}";
target = "{0, 35}";
type = Stem;
},
{
horizontal = 1;
origin = "{0, 25}";
target = "{0, 24}";
type = Stem;
},
{
horizontal = 1;
origin = "{0, 14}";
target = "{0, 11}";
type = Stem;
},
{
horizontal = 1;
origin = "{0, 18}";
target = "{0, 11}";
type = Stem;
},
{
horizontal = 1;
origin = "{0, 38}";
target = "{0, 31}";
type = Stem;
},
{
origin = "{0, 35}";
target = "{0, 34}";
type = Stem;
},
{
origin = "{0, 28}";
target = "{0, 2}";
type = Stem;
},
{
origin = "{0, 14}";
target = "{0, 15}";
type = Stem;
},
{
origin = "{0, 21}";
target = "{0, 8}";
type = Stem;
},
{
origin = "{0, 25}";
target = "{0, 8}";
type = Stem;
}
);
layerId = "10BC12B3-5274-42E3-B5BC-F74F362F0DF4";
paths = (
{
closed = 1;
nodes = (
"415 -31 OFFCURVE",
"516 70 OFFCURVE",
"516 192 CURVE SMOOTH",
"516 242 OFFCURVE",
"499 295 OFFCURVE",
"463 334 CURVE",
"487 370 OFFCURVE",
"499 410 OFFCURVE",
"499 454 CURVE SMOOTH",
"499 569 OFFCURVE",
"406 662 OFFCURVE",
"290 662 CURVE SMOOTH",
"175 662 OFFCURVE",
"82 569 OFFCURVE",
"82 454 CURVE",
"250 454 LINE",
"250 475 OFFCURVE",
"269 494 OFFCURVE",
"290 494 CURVE SMOOTH",
"312 494 OFFCURVE",
"331 475 OFFCURVE",
"331 454 CURVE SMOOTH",
"331 425 OFFCURVE",
"314 382 OFFCURVE",
"238 382 CURVE",
"238 276 LINE",
"312 276 OFFCURVE",
"348 230 OFFCURVE",
"348 192 CURVE SMOOTH",
"348 161 OFFCURVE",
"324 137 OFFCURVE",
"295 137 CURVE SMOOTH",
"264 137 OFFCURVE",
"240 161 OFFCURVE",
"240 192 CURVE",
"72 192 LINE",
"72 70 OFFCURVE",
"173 -31 OFFCURVE",
"295 -31 CURVE SMOOTH"
);
}
);
width = 588;
},
{
hints = (
{
horizontal = 1;
origin = "{0, 38}";
target = "{0, 31}";
type = Stem;
},
{
horizontal = 1;
origin = "{0, 25}";
target = "{0, 24}";
type = Stem;
},
{
horizontal = 1;
origin = "{0, 18}";
target = "{0, 11}";
type = Stem;
},
{
origin = "{0, 35}";
target = "{0, 34}";
type = Stem;
},
{
origin = "{0, 28}";
target = "{0, 2}";
type = Stem;
},
{
origin = "{0, 14}";
target = "{0, 15}";
type = Stem;
},
{
origin = "{0, 5}";
target = "{0, 8}";
type = Stem;
}
);
layerId = "9AF1F7D9-E035-453E-B2A8-46DE370997D0";
paths = (
{
closed = 1;
nodes = (
"379 -31 OFFCURVE",
"468 46 OFFCURVE",
"468 156 CURVE SMOOTH",
"468 238 OFFCURVE",
"437 276 OFFCURVE",
"377 322 CURVE",
"415 341 OFFCURVE",
"449 403 OFFCURVE",
"449 466 CURVE SMOOTH",
"449 566 OFFCURVE",
"367 636 OFFCURVE",
"266 636 CURVE SMOOTH",
"166 636 OFFCURVE",
"84 566 OFFCURVE",
"84 466 CURVE",
"156 466 LINE",
"156 526 OFFCURVE",
"206 564 OFFCURVE",
"266 564 CURVE SMOOTH",
"326 564 OFFCURVE",
"377 526 OFFCURVE",
"377 466 CURVE SMOOTH",
"377 394 OFFCURVE",
"324 355 OFFCURVE",
"233 355 CURVE",
"233 283 LINE",
"336 283 OFFCURVE",
"396 235 OFFCURVE",
"396 156 CURVE SMOOTH",
"396 86 OFFCURVE",
"341 41 OFFCURVE",
"271 41 CURVE SMOOTH",
"199 41 OFFCURVE",
"144 86 OFFCURVE",
"144 156 CURVE",
"72 156 LINE",
"72 46 OFFCURVE",
"161 -31 OFFCURVE",
"271 -31 CURVE SMOOTH"
);
}
);
width = 540;
}
);
leftKerningGroup = three.dnom;
rightKerningGroup = three.dnom;
unicode = 2083;
},
{
glyphname = fourinferior;
lastChange = "2021-08-26 03:05:31 +0000";
layers = (
{
hints = (
{
horizontal = 1;
origin = "{0, 10}";
target = "{1, 2}";
type = Stem;
},
{
horizontal = 1;
origin = "{0, 8}";
target = "{1, 2}";
type = Stem;
},
{
origin = "{1, 1}";
target = "{0, 0}";
type = Stem;
}
);
layerId = "10BC12B3-5274-42E3-B5BC-F74F362F0DF4";
paths = (
{
closed = 1;
nodes = (
"499 0 LINE",
"499 86 LINE",
"552 86 LINE",
"552 254 LINE",
"499 254 LINE",
"499 631 LINE",
"314 631 LINE",
"96 288 LINE",
"96 86 LINE",
"331 86 LINE",
"331 0 LINE"
);
},
{
closed = 1;
nodes = (
"348 396 LINE",
"348 254 LINE",
"259 254 LINE"
);
}
);
width = 696;
},
{
hints = (
{
horizontal = 1;
origin = "{0, 10}";
target = up;
type = BottomGhost;
},
{
horizontal = 1;
origin = "{0, 8}";
target = "{1, 2}";
type = Stem;
},
{
origin = "{0, 10}";
target = "{0, 0}";
type = Stem;
}
);
layerId = "9AF1F7D9-E035-453E-B2A8-46DE370997D0";
paths = (
{
closed = 1;
nodes = (
"451 0 LINE",
"451 139 LINE",
"530 139 LINE",
"530 211 LINE",
"451 211 LINE",
"451 631 LINE",
"353 631 LINE",
"96 226 LINE",
"96 139 LINE",
"379 139 LINE",
"379 0 LINE"
);
},
{
closed = 1;
nodes = (
"379 535 LINE",
"379 211 LINE",
"173 211 LINE"
);
}
);
width = 674;
}
);
leftKerningGroup = four.dnom;
rightKerningGroup = four.dnom;
unicode = 2084;
},
{
glyphname = fiveinferior;
lastChange = "2021-08-26 03:05:31 +0000";
layers = (
{
hints = (
{
horizontal = 1;
origin = "{0, 25}";
target = "{0, 22}";
type = Stem;
},
{
horizontal = 1;
origin = "{0, 11}";
target = "{0, 6}";
type = Stem;
},
{
horizontal = 1;
origin = "{0, 7}";
target = "{0, 10}";
type = Stem;
},
{
horizontal = 1;
origin = "{0, 25}";
target = "{0, 18}";
type = Stem;
},
{
origin = "{0, 22}";
target = "{0, 21}";
type = Stem;
},
{
origin = "{0, 15}";
target = "{0, 2}";
type = Stem;
}
);
layerId = "10BC12B3-5274-42E3-B5BC-F74F362F0DF4";
paths = (
{
closed = 1;
nodes = (
"454 -31 OFFCURVE",
"562 74 OFFCURVE",
"562 206 CURVE SMOOTH",
"562 341 OFFCURVE",
"482 444 OFFCURVE",
"326 444 CURVE SMOOTH",
"302 444 LINE",
"302 485 LINE",
"490 485 LINE",
"490 631 LINE",
"149 631 LINE",
"113 276 LINE",
"322 276 LINE SMOOTH",
"362 276 OFFCURVE",
"394 245 OFFCURVE",
"394 206 CURVE SMOOTH",
"394 168 OFFCURVE",
"362 137 OFFCURVE",
"322 137 CURVE SMOOTH",
"283 137 OFFCURVE",
"252 168 OFFCURVE",
"252 206 CURVE",
"84 206 LINE",
"84 74 OFFCURVE",
"192 -31 OFFCURVE",
"322 -31 CURVE SMOOTH"
);
}
);
width = 706;
},
{
hints = (
{
horizontal = 1;
origin = "{0, 25}";
target = "{0, 18}";
type = Stem;
},
{
horizontal = 1;
origin = "{0, 12}";
target = "{0, 5}";
type = Stem;
},
{
horizontal = 1;
origin = "{0, 7}";
target = "{0, 10}";
type = Stem;
},
{
origin = "{0, 22}";
target = "{0, 21}";
type = Stem;
},
{
origin = "{0, 15}";
target = "{0, 2}";
type = Stem;
}
);
layerId = "9AF1F7D9-E035-453E-B2A8-46DE370997D0";
paths = (
{
closed = 1;
nodes = (
"427 -31 OFFCURVE",
"526 55 OFFCURVE",
"526 178 CURVE SMOOTH",
"526 298 OFFCURVE",
"427 396 OFFCURVE",
"305 396 CURVE",
"209 389 LINE",
"221 545 LINE",
"504 545 LINE",
"504 617 LINE",
"156 617 LINE",
"127 290 LINE",
"305 324 LINE",
"386 324 OFFCURVE",
"454 259 OFFCURVE",
"454 178 CURVE SMOOTH",
"454 96 OFFCURVE",
"386 41 OFFCURVE",
"305 41 CURVE SMOOTH",
"223 41 OFFCURVE",
"156 96 OFFCURVE",
"156 178 CURVE",
"84 178 LINE",
"84 55 OFFCURVE",
"182 -31 OFFCURVE",
"305 -31 CURVE SMOOTH"
);
}
);
width = 670;
}
);
leftKerningGroup = five.dnom;
rightKerningGroup = five.dnom;
unicode = 2085;
},
{
glyphname = sixinferior;
lastChange = "2021-08-26 03:05:31 +0000";
layers = (
{
hints = (
{
horizontal = 1;
origin = "{0, 13}";
target = "{1, 11}";
type = Stem;
},
{
horizontal = 1;
origin = "{1, 5}";
target = "{0, 7}";
type = Stem;
},
{
origin = "{0, 10}";
target = "{1, 2}";
type = Stem;
},
{
origin = "{0, 10}";
target = "{0, 2}";
type = Stem;
}
);
layerId = "10BC12B3-5274-42E3-B5BC-F74F362F0DF4";
paths = (
{
closed = 1;
nodes = (
"456 -31 OFFCURVE",
"562 70 OFFCURVE",
"562 199 CURVE SMOOTH",
"562 305 OFFCURVE",
"502 389 OFFCURVE",
"384 427 CURVE",
"502 629 LINE",
"307 629 LINE",
"113 293 OFFCURVE",
"96 274 OFFCURVE",
"96 202 CURVE SMOOTH",
"96 70 OFFCURVE",
"199 -31 OFFCURVE",
"329 -31 CURVE SMOOTH"
);
},
{
closed = 1;
nodes = (
"305 137 OFFCURVE",
"274 146 OFFCURVE",
"266 185 CURVE SMOOTH",
"259 218 OFFCURVE",
"278 264 OFFCURVE",
"329 264 CURVE SMOOTH",
"360 264 OFFCURVE",
"384 245 OFFCURVE",
"391 216 CURVE SMOOTH",
"401 175 OFFCURVE",
"370 137 OFFCURVE",
"329 137 CURVE SMOOTH"
);
}
);
width = 682;
},
{
hints = (
{
horizontal = 1;
origin = "{0, 13}";
target = "{1, 11}";
type = Stem;
},
{
horizontal = 1;
place = "{350, 72}";
type = Stem;
},
{
origin = "{0, 10}";
target = "{1, 2}";
type = Stem;
},
{
origin = "{1, 8}";
target = "{0, 2}";
type = Stem;
}
);
layerId = "9AF1F7D9-E035-453E-B2A8-46DE370997D0";
paths = (
{
closed = 1;
nodes = (
"451 -31 OFFCURVE",
"562 53 OFFCURVE",
"562 190 CURVE SMOOTH",
"562 331 OFFCURVE",
"425 454 OFFCURVE",
"274 415 CURVE",
"391 619 LINE",
"307 619 LINE",
"134 326 OFFCURVE",
"96 269 OFFCURVE",
"96 190 CURVE SMOOTH",
"96 67 OFFCURVE",
"192 -31 OFFCURVE",
"329 -31 CURVE SMOOTH"
);
},
{
closed = 1;
nodes = (
"240 41 OFFCURVE",
"168 101 OFFCURVE",
"168 187 CURVE SMOOTH",
"168 278 OFFCURVE",
"240 350 OFFCURVE",
"329 350 CURVE SMOOTH",
"408 350 OFFCURVE",
"490 288 OFFCURVE",
"490 190 CURVE SMOOTH",
"490 101 OFFCURVE",
"418 41 OFFCURVE",
"329 41 CURVE SMOOTH"
);
}
);
width = 682;
}
);
leftKerningGroup = six.dnom;
rightKerningGroup = six.dnom;
unicode = 2086;
},
{
glyphname = seveninferior;
lastChange = "2021-08-26 03:05:31 +0000";
layers = (
{
hints = (
{
horizontal = 1;
origin = "{0, 6}";
target = up;
type = BottomGhost;
},
{
horizontal = 1;
origin = "{0, 4}";
target = "{0, 3}";
type = Stem;
},
{
origin = "{0, 4}";
target = "{0, 1}";
type = Stem;
}
);
layerId = "10BC12B3-5274-42E3-B5BC-F74F362F0DF4";
paths = (
{
closed = 1;
nodes = (
"345 0 LINE",
"614 468 LINE",
"614 631 LINE",
"120 631 LINE",
"120 463 LINE",
"420 463 LINE",
"153 0 LINE"
);
}
);
width = 686;
},
{
hints = (
{
horizontal = 1;
origin = "{0, 6}";
target = up;
type = BottomGhost;
},
{
horizontal = 1;
origin = "{0, 4}";
target = "{0, 3}";
type = Stem;
}
);
layerId = "9AF1F7D9-E035-453E-B2A8-46DE370997D0";
paths = (
{
closed = 1;
nodes = (
"218 0 LINE",
"540 559 LINE",
"540 631 LINE",
"120 631 LINE",
"120 559 LINE",
"456 559 LINE",
"134 0 LINE"
);
}
);
width = 612;
}
);
leftKerningGroup = seven.dnom;
rightKerningGroup = seven.dnom;
unicode = 2087;
},
{
glyphname = eightinferior;
lastChange = "2021-08-26 03:05:31 +0000";
layers = (
{
hints = (
{
horizontal = 1;
origin = "{0, 23}";
target = "{1, 11}";
type = Stem;
},
{
horizontal = 1;
origin = "{2, 5}";
target = "{0, 11}";
type = Stem;
},
{
origin = "{0, 20}";
target = "{1, 2}";
type = Stem;
},
{
origin = "{1, 8}";
target = "{0, 2}";
type = Stem;
},
{
origin = "{0, 14}";
target = "{2, 2}";
type = Stem;
},
{
origin = "{2, 8}";
target = "{0, 8}";
type = Stem;
}
);
layerId = "10BC12B3-5274-42E3-B5BC-F74F362F0DF4";
paths = (
{
closed = 1;
nodes = (
"442 -31 OFFCURVE",
"540 65 OFFCURVE",
"540 187 CURVE SMOOTH",
"540 242 OFFCURVE",
"521 293 OFFCURVE",
"490 331 CURVE",
"514 365 OFFCURVE",
"528 408 OFFCURVE",
"528 451 CURVE SMOOTH",
"528 569 OFFCURVE",
"432 662 OFFCURVE",
"317 662 CURVE SMOOTH",
"202 662 OFFCURVE",
"108 569 OFFCURVE",
"108 451 CURVE SMOOTH",
"108 408 OFFCURVE",
"122 365 OFFCURVE",
"146 331 CURVE",
"115 293 OFFCURVE",
"96 242 OFFCURVE",
"96 187 CURVE SMOOTH",
"96 65 OFFCURVE",
"194 -31 OFFCURVE",
"317 -31 CURVE SMOOTH"
);
},
{
closed = 1;
nodes = (
"288 134 OFFCURVE",
"264 158 OFFCURVE",
"264 187 CURVE SMOOTH",
"264 218 OFFCURVE",
"288 242 OFFCURVE",
"317 242 CURVE SMOOTH",
"348 242 OFFCURVE",
"372 218 OFFCURVE",
"372 187 CURVE SMOOTH",
"372 158 OFFCURVE",
"348 134 OFFCURVE",
"317 134 CURVE SMOOTH"
);
},
{
closed = 1;
nodes = (
"295 410 OFFCURVE",
"276 430 OFFCURVE",
"276 451 CURVE SMOOTH",
"276 475 OFFCURVE",
"295 494 OFFCURVE",
"317 494 CURVE SMOOTH",
"341 494 OFFCURVE",
"360 475 OFFCURVE",
"360 451 CURVE SMOOTH",
"360 430 OFFCURVE",
"341 410 OFFCURVE",
"317 410 CURVE SMOOTH"
);
}
);
width = 636;
},
{
hints = (
{
horizontal = 1;
origin = "{0, 23}";
target = "{1, 11}";
type = Stem;
},
{
horizontal = 1;
origin = "{1, 5}";
target = "{2, 11}";
type = Stem;
},
{
horizontal = 1;
origin = "{2, 5}";
target = "{0, 11}";
type = Stem;
},
{
origin = "{0, 20}";
target = "{1, 2}";
type = Stem;
},
{
origin = "{1, 8}";
target = "{0, 2}";
type = Stem;
},
{
origin = "{0, 14}";
target = "{0, 17}";
type = Stem;
},
{
origin = "{0, 5}";
target = "{0, 8}";
type = Stem;
}
);
layerId = "9AF1F7D9-E035-453E-B2A8-46DE370997D0";
paths = (
{
closed = 1;
nodes = (
"406 -31 OFFCURVE",
"497 46 OFFCURVE",
"497 156 CURVE SMOOTH",
"497 226 OFFCURVE",
"461 286 OFFCURVE",
"408 322 CURVE",
"451 355 OFFCURVE",
"480 408 OFFCURVE",
"480 466 CURVE SMOOTH",
"480 569 OFFCURVE",
"398 638 OFFCURVE",
"295 638 CURVE SMOOTH",
"194 638 OFFCURVE",
"113 569 OFFCURVE",
"113 466 CURVE SMOOTH",
"113 408 OFFCURVE",
"142 355 OFFCURVE",
"185 322 CURVE",
"132 286 OFFCURVE",
"96 226 OFFCURVE",
"96 156 CURVE SMOOTH",
"96 46 OFFCURVE",
"187 -31 OFFCURVE",
"295 -31 CURVE SMOOTH"
);
},
{
closed = 1;
nodes = (
"226 41 OFFCURVE",
"168 86 OFFCURVE",
"168 156 CURVE SMOOTH",
"168 226 OFFCURVE",
"226 283 OFFCURVE",
"295 283 CURVE SMOOTH",
"367 283 OFFCURVE",
"425 226 OFFCURVE",
"425 156 CURVE SMOOTH",
"425 86 OFFCURVE",
"367 41 OFFCURVE",
"295 41 CURVE SMOOTH"
);
},
{
closed = 1;
nodes = (
"235 355 OFFCURVE",
"185 406 OFFCURVE",
"185 466 CURVE SMOOTH",
"185 528 OFFCURVE",
"235 566 OFFCURVE",
"295 566 CURVE SMOOTH",
"358 566 OFFCURVE",
"408 528 OFFCURVE",
"408 466 CURVE SMOOTH",
"408 406 OFFCURVE",
"358 355 OFFCURVE",
"295 355 CURVE SMOOTH"
);
}
);
width = 593;
}
);
leftKerningGroup = eight.dnom;
rightKerningGroup = eight.dnom;
unicode = 2088;
},
{
glyphname = nineinferior;
lastChange = "2021-08-26 03:05:31 +0000";
layers = (
{
hints = (
{
horizontal = 1;
origin = "{0, 11}";
target = up;
type = BottomGhost;
},
{
horizontal = 1;
origin = "{1, 5}";
target = "{0, 4}";
type = Stem;
},
{
horizontal = 1;
origin = "{0, 11}";
target = "{1, 11}";
type = Stem;
},
{
origin = "{0, 7}";
target = "{1, 2}";
type = Stem;
},
{
place = "{370, 167}";
type = Stem;
}
);
layerId = "10BC12B3-5274-42E3-B5BC-F74F362F0DF4";
paths = (
{
closed = 1;
nodes = (
"324 0 LINE",
"506 314 LINE SMOOTH",
"595 472 OFFCURVE",
"482 662 OFFCURVE",
"305 662 CURVE SMOOTH",
"175 662 OFFCURVE",
"72 557 OFFCURVE",
"72 430 CURVE SMOOTH",
"72 329 OFFCURVE",
"137 230 OFFCURVE",
"247 204 CURVE",
"130 0 LINE"
);
},
{
closed = 1;
nodes = (
"281 365 OFFCURVE",
"240 379 OFFCURVE",
"240 427 CURVE SMOOTH",
"240 458 OFFCURVE",
"262 494 OFFCURVE",
"305 494 CURVE SMOOTH",
"336 494 OFFCURVE",
"370 463 OFFCURVE",
"370 432 CURVE SMOOTH",
"370 396 OFFCURVE",
"341 365 OFFCURVE",
"305 365 CURVE SMOOTH"
);
}
);
width = 658;
},
{
hints = (
{
horizontal = 1;
origin = "{0, 11}";
target = up;
type = BottomGhost;
},
{
horizontal = 1;
place = "{197, 72}";
type = Stem;
},
{
horizontal = 1;
origin = "{1, 5}";
target = "{0, 4}";
type = Stem;
},
{
place = "{72, 74}";
type = Stem;
},
{
place = "{466, 73}";
type = Stem;
}
);
layerId = "9AF1F7D9-E035-453E-B2A8-46DE370997D0";
paths = (
{
closed = 1;
nodes = (
"325 0 LINE",
"507 314 LINE SMOOTH",
"599 468 OFFCURVE",
"483 650 OFFCURVE",
"306 650 CURVE SMOOTH",
"227 650 OFFCURVE",
"147 622 OFFCURVE",
"104 545 CURVE SMOOTH",
"1 370 OFFCURVE",
"162 154 OFFCURVE",
"361 204 CURVE",
"243 0 LINE"
);
},
{
closed = 1;
nodes = (
"241 269 OFFCURVE",
"171 312 OFFCURVE",
"150 389 CURVE SMOOTH",
"126 492 OFFCURVE",
"203 578 OFFCURVE",
"306 578 CURVE SMOOTH",
"371 578 OFFCURVE",
"440 547 OFFCURVE",
"462 470 CURVE",
"486 365 OFFCURVE",
"409 269 OFFCURVE",
"306 269 CURVE SMOOTH"
);
}
);
width = 660;
}
);
leftKerningGroup = nine.dnom;
rightKerningGroup = nine.dnom;
unicode = 2089;
},
{
glyphname = zerosuperior;
lastChange = "2021-08-26 03:05:31 +0000";
layers = (
{
hints = (
{
horizontal = 1;
origin = "{0, 11}";
target = "{1, 11}";
type = Stem;
},
{
horizontal = 1;
origin = "{1, 5}";
target = "{0, 5}";
type = Stem;
},
{
origin = "{0, 8}";
target = "{1, 2}";
type = Stem;
},
{
origin = "{1, 8}";
target = "{0, 2}";
type = Stem;
}
);
layerId = "10BC12B3-5274-42E3-B5BC-F74F362F0DF4";
paths = (
{
closed = 1;
nodes = (
"463 798 OFFCURVE",
"576 942 OFFCURVE",
"576 1134 CURVE SMOOTH",
"576 1324 OFFCURVE",
"463 1468 OFFCURVE",
"324 1468 CURVE SMOOTH",
"185 1468 OFFCURVE",
"72 1324 OFFCURVE",
"72 1134 CURVE SMOOTH",
"72 942 OFFCURVE",
"185 798 OFFCURVE",
"324 798 CURVE SMOOTH"
);
},
{
closed = 1;
nodes = (
"269 954 OFFCURVE",
"240 1055 OFFCURVE",
"240 1134 CURVE SMOOTH",
"240 1204 OFFCURVE",
"264 1312 OFFCURVE",
"324 1312 CURVE SMOOTH",
"377 1312 OFFCURVE",
"408 1209 OFFCURVE",
"408 1134 CURVE SMOOTH",
"408 1070 OFFCURVE",
"379 954 OFFCURVE",
"324 954 CURVE SMOOTH"
);
}
);
width = 648;
},
{
hints = (
{
horizontal = 1;
origin = "{0, 11}";
target = "{1, 11}";
type = Stem;
},
{
horizontal = 1;
origin = "{1, 5}";
target = "{0, 5}";
type = Stem;
},
{
origin = "{0, 8}";
target = "{1, 2}";
type = Stem;
},
{
origin = "{1, 8}";
target = "{0, 2}";
type = Stem;
}
);
layerId = "9AF1F7D9-E035-453E-B2A8-46DE370997D0";
paths = (
{
closed = 1;
nodes = (
"463 798 OFFCURVE",
"576 940 OFFCURVE",
"576 1132 CURVE SMOOTH",
"576 1324 OFFCURVE",
"463 1468 OFFCURVE",
"324 1468 CURVE SMOOTH",
"185 1468 OFFCURVE",
"72 1324 OFFCURVE",
"72 1132 CURVE SMOOTH",
"72 940 OFFCURVE",
"185 798 OFFCURVE",
"324 798 CURVE SMOOTH"
);
},
{
closed = 1;
nodes = (
"218 870 OFFCURVE",
"144 998 OFFCURVE",
"144 1132 CURVE SMOOTH",
"144 1262 OFFCURVE",
"214 1396 OFFCURVE",
"324 1396 CURVE SMOOTH",
"430 1396 OFFCURVE",
"504 1269 OFFCURVE",
"504 1132 CURVE SMOOTH",
"504 1005 OFFCURVE",
"434 870 OFFCURVE",
"324 870 CURVE SMOOTH"
);
}
);
width = 648;
}
);
leftKerningGroup = zero.numr;
rightKerningGroup = zero.numr;
unicode = 2070;
},
{
glyphname = onesuperior;
lastChange = "2021-08-26 03:05:31 +0000";
layers = (
{
hints = (
{
horizontal = 1;
origin = "{0, 3}";
target = "{0, 2}";
type = Stem;
},
{
origin = "{0, 5}";
target = "{0, 0}";
type = Stem;
}
);
layerId = "10BC12B3-5274-42E3-B5BC-F74F362F0DF4";
paths = (
{
closed = 1;
nodes = (
"322 818 LINE",
"322 1449 LINE",
"120 1449 LINE",
"96 1281 LINE",
"154 1281 LINE",
"154 818 LINE"
);
}
);
width = 466;
},
{
hints = (
{
horizontal = 1;
origin = "{0, 3}";
target = "{0, 2}";
type = Stem;
},
{
origin = "{0, 5}";
target = "{0, 0}";
type = Stem;
}
);
layerId = "9AF1F7D9-E035-453E-B2A8-46DE370997D0";
paths = (
{
closed = 1;
nodes = (
"257 818 LINE",
"257 1449 LINE",
"106 1449 LINE",
"96 1377 LINE",
"185 1377 LINE",
"185 818 LINE"
);
}
);
width = 401;
}
);
leftKerningGroup = one.numr;
rightKerningGroup = one.numr;
unicode = 00B9;
},
{
glyphname = twosuperior;
lastChange = "2021-08-26 03:05:31 +0000";
layers = (
{
hints = (
{
horizontal = 1;
origin = "{0, 22}";
target = "{0, 2}";
type = Stem;
},
{
horizontal = 1;
origin = "{0, 11}";
target = "{0, 8}";
type = Stem;
},
{
horizontal = 1;
origin = "{0, 15}";
target = "{0, 8}";
type = Stem;
},
{
origin = "{0, 22}";
target = "{0, 0}";
type = Stem;
},
{
origin = "{0, 22}";
target = "{0, 12}";
type = Stem;
},
{
origin = "{0, 18}";
target = "{0, 5}";
type = Stem;
}
);
layerId = "10BC12B3-5274-42E3-B5BC-F74F362F0DF4";
paths = (
{
closed = 1;
nodes = (
"571 818 LINE",
"571 986 LINE",
"403 986 LINE",
"490 1062 OFFCURVE",
"583 1132 OFFCURVE",
"583 1235 CURVE SMOOTH",
"583 1370 OFFCURVE",
"475 1468 OFFCURVE",
"341 1468 CURVE SMOOTH",
"206 1468 OFFCURVE",
"96 1370 OFFCURVE",
"96 1235 CURVE",
"264 1235 LINE",
"264 1278 OFFCURVE",
"298 1312 OFFCURVE",
"341 1312 CURVE SMOOTH",
"382 1312 OFFCURVE",
"415 1278 OFFCURVE",
"415 1235 CURVE",
"343 1098 OFFCURVE",
"211 1043 OFFCURVE",
"96 964 CURVE",
"96 818 LINE"
);
}
);
width = 727;
},
{
hints = (
{
horizontal = 1;
origin = "{0, 22}";
target = "{0, 2}";
type = Stem;
},
{
horizontal = 1;
origin = "{0, 15}";
target = "{0, 8}";
type = Stem;
},
{
origin = "{0, 22}";
target = "{0, 12}";
type = Stem;
},
{
origin = "{0, 18}";
target = "{0, 0}";
type = Stem;
}
);
layerId = "9AF1F7D9-E035-453E-B2A8-46DE370997D0";
paths = (
{
closed = 1;
nodes = (
"526 818 LINE",
"526 890 LINE",
"218 890 LINE",
"341 974 OFFCURVE",
"526 1144 OFFCURVE",
"526 1264 CURVE SMOOTH",
"526 1382 OFFCURVE",
"430 1468 OFFCURVE",
"312 1468 CURVE SMOOTH",
"192 1468 OFFCURVE",
"96 1382 OFFCURVE",
"96 1264 CURVE",
"168 1264 LINE",
"168 1343 OFFCURVE",
"233 1396 OFFCURVE",
"312 1396 CURVE SMOOTH",
"391 1396 OFFCURVE",
"454 1343 OFFCURVE",
"454 1264 CURVE SMOOTH",
"454 1149 OFFCURVE",
"194 957 OFFCURVE",
"96 892 CURVE",
"96 818 LINE"
);
}
);
width = 670;
}
);
leftKerningGroup = two.numr;
rightKerningGroup = two.numr;
unicode = 00B2;
},
{
glyphname = threesuperior;
lastChange = "2021-08-26 03:05:31 +0000";
layers = (
{
hints = (
{
horizontal = 1;
origin = "{0, 35}";
target = "{0, 38}";
type = Stem;
},
{
horizontal = 1;
origin = "{0, 25}";
target = "{0, 24}";
type = Stem;
},
{
horizontal = 1;
origin = "{0, 14}";
target = "{0, 11}";
type = Stem;
},
{
horizontal = 1;
origin = "{0, 18}";
target = "{0, 11}";
type = Stem;
},
{
horizontal = 1;
origin = "{0, 38}";
target = "{0, 31}";
type = Stem;
},
{
origin = "{0, 35}";
target = "{0, 34}";
type = Stem;
},
{
origin = "{0, 28}";
target = "{0, 2}";
type = Stem;
},
{
origin = "{0, 14}";
target = "{0, 15}";
type = Stem;
},
{
origin = "{0, 21}";
target = "{0, 8}";
type = Stem;
},
{
origin = "{0, 25}";
target = "{0, 8}";
type = Stem;
}
);
layerId = "10BC12B3-5274-42E3-B5BC-F74F362F0DF4";
paths = (
{
closed = 1;
nodes = (
"415 798 OFFCURVE",
"516 887 OFFCURVE",
"516 1010 CURVE SMOOTH",
"516 1060 OFFCURVE",
"499 1113 OFFCURVE",
"463 1151 CURVE",
"487 1187 OFFCURVE",
"499 1228 OFFCURVE",
"499 1271 CURVE SMOOTH",
"499 1386 OFFCURVE",
"406 1468 OFFCURVE",
"290 1468 CURVE SMOOTH",
"175 1468 OFFCURVE",
"82 1386 OFFCURVE",
"82 1271 CURVE",
"250 1271 LINE",
"250 1293 OFFCURVE",
"269 1312 OFFCURVE",
"290 1312 CURVE SMOOTH",
"312 1312 OFFCURVE",
"331 1293 OFFCURVE",
"331 1271 CURVE SMOOTH",
"331 1242 OFFCURVE",
"314 1199 OFFCURVE",
"238 1199 CURVE",
"238 1094 LINE",
"312 1094 OFFCURVE",
"348 1048 OFFCURVE",
"348 1010 CURVE SMOOTH",
"348 978 OFFCURVE",
"324 954 OFFCURVE",
"295 954 CURVE SMOOTH",
"264 954 OFFCURVE",
"240 978 OFFCURVE",
"240 1010 CURVE",
"72 1010 LINE",
"72 887 OFFCURVE",
"173 798 OFFCURVE",
"295 798 CURVE SMOOTH"
);
}
);
width = 588;
},
{
hints = (
{
horizontal = 1;
origin = "{0, 38}";
target = "{0, 31}";
type = Stem;
},
{
horizontal = 1;
origin = "{0, 25}";
target = "{0, 24}";
type = Stem;
},
{
horizontal = 1;
origin = "{0, 18}";
target = "{0, 11}";
type = Stem;
},
{
origin = "{0, 35}";
target = "{0, 34}";
type = Stem;
},
{
origin = "{0, 28}";
target = "{0, 2}";
type = Stem;
},
{
origin = "{0, 14}";
target = "{0, 15}";
type = Stem;
},
{
origin = "{0, 5}";
target = "{0, 8}";
type = Stem;
}
);
layerId = "9AF1F7D9-E035-453E-B2A8-46DE370997D0";
paths = (
{
closed = 1;
nodes = (
"379 798 OFFCURVE",
"468 875 OFFCURVE",
"468 986 CURVE SMOOTH",
"468 1067 OFFCURVE",
"437 1106 OFFCURVE",
"377 1151 CURVE",
"415 1170 OFFCURVE",
"449 1233 OFFCURVE",
"449 1295 CURVE SMOOTH",
"449 1396 OFFCURVE",
"367 1466 OFFCURVE",
"266 1466 CURVE SMOOTH",
"166 1466 OFFCURVE",
"84 1396 OFFCURVE",
"84 1295 CURVE",
"156 1295 LINE",
"156 1355 OFFCURVE",
"206 1394 OFFCURVE",
"266 1394 CURVE SMOOTH",
"326 1394 OFFCURVE",
"377 1355 OFFCURVE",
"377 1295 CURVE SMOOTH",
"377 1223 OFFCURVE",
"324 1185 OFFCURVE",
"233 1185 CURVE",
"233 1113 LINE",
"336 1113 OFFCURVE",
"396 1065 OFFCURVE",
"396 986 CURVE SMOOTH",
"396 916 OFFCURVE",
"341 870 OFFCURVE",
"271 870 CURVE SMOOTH",
"199 870 OFFCURVE",
"144 916 OFFCURVE",
"144 986 CURVE",
"72 986 LINE",
"72 875 OFFCURVE",
"161 798 OFFCURVE",
"271 798 CURVE SMOOTH"
);
}
);
width = 540;
}
);
leftKerningGroup = three.numr;
rightKerningGroup = three.numr;
unicode = 00B3;
},
{
glyphname = foursuperior;
lastChange = "2021-08-26 03:05:31 +0000";
layers = (
{
hints = (
{
horizontal = 1;
origin = "{0, 8}";
target = "{1, 2}";
type = Stem;
},
{
origin = "{1, 1}";
target = "{0, 0}";
type = Stem;
}
);
layerId = "10BC12B3-5274-42E3-B5BC-F74F362F0DF4";
paths = (
{
closed = 1;
nodes = (
"499 818 LINE",
"499 904 LINE",
"552 904 LINE",
"552 1072 LINE",
"499 1072 LINE",
"499 1449 LINE",
"314 1449 LINE",
"96 1106 LINE",
"96 904 LINE",
"331 904 LINE",
"331 818 LINE"
);
},
{
closed = 1;
nodes = (
"348 1214 LINE",
"348 1072 LINE",
"259 1072 LINE"
);
}
);
width = 696;
},
{
hints = (
{
horizontal = 1;
origin = "{1, 2}";
target = "{0, 8}";
type = Stem;
},
{
origin = "{0, 10}";
target = "{0, 0}";
type = Stem;
}
);
layerId = "9AF1F7D9-E035-453E-B2A8-46DE370997D0";
paths = (
{
closed = 1;
nodes = (
"451 818 LINE",
"451 957 LINE",
"530 957 LINE",
"530 1029 LINE",
"451 1029 LINE",
"451 1449 LINE",
"353 1449 LINE",
"96 1043 LINE",
"96 957 LINE",
"379 957 LINE",
"379 818 LINE"
);
},
{
closed = 1;
nodes = (
"379 1353 LINE",
"379 1029 LINE",
"173 1029 LINE"
);
}
);
width = 674;
}
);
leftKerningGroup = four.numr;
rightKerningGroup = four.numr;
unicode = 2074;
},
{
glyphname = fivesuperior;
lastChange = "2021-08-26 03:05:31 +0000";
layers = (
{
hints = (
{
horizontal = 1;
origin = "{0, 23}";
target = "{0, 26}";
type = Stem;
},
{
horizontal = 1;
origin = "{0, 10}";
target = "{0, 5}";
type = Stem;
},
{
horizontal = 1;
origin = "{0, 6}";
target = "{0, 9}";
type = Stem;
},
{
horizontal = 1;
origin = "{0, 26}";
target = "{0, 19}";
type = Stem;
},
{
origin = "{0, 23}";
target = "{0, 22}";
type = Stem;
},
{
origin = "{0, 16}";
target = "{0, 2}";
type = Stem;
}
);
layerId = "10BC12B3-5274-42E3-B5BC-F74F362F0DF4";
paths = (
{
closed = 1;
nodes = (
"454 798 OFFCURVE",
"562 892 OFFCURVE",
"562 1024 CURVE SMOOTH",
"562 1162 OFFCURVE",
"463 1262 OFFCURVE",
"302 1262 CURVE",
"302 1305 LINE",
"490 1305 LINE",
"490 1449 LINE",
"149 1449 LINE",
"115 1086 LINE",
"180 1094 OFFCURVE",
"288 1098 OFFCURVE",
"322 1094 CURVE SMOOTH",
"362 1089 OFFCURVE",
"394 1062 OFFCURVE",
"394 1024 CURVE SMOOTH",
"394 986 OFFCURVE",
"362 954 OFFCURVE",
"322 954 CURVE SMOOTH",
"283 954 OFFCURVE",
"252 986 OFFCURVE",
"252 1024 CURVE",
"84 1024 LINE",
"84 892 OFFCURVE",
"192 798 OFFCURVE",
"322 798 CURVE SMOOTH"
);
}
);
width = 706;
},
{
hints = (
{
horizontal = 1;
origin = "{0, 26}";
target = "{0, 19}";
type = Stem;
},
{
horizontal = 1;
origin = "{0, 23}";
target = down;
type = TopGhost;
},
{
horizontal = 1;
place = "{1154, 70}";
type = Stem;
},
{
horizontal = 1;
origin = "{0, 6}";
target = "{0, 9}";
type = Stem;
},
{
origin = "{0, 23}";
target = "{0, 22}";
type = Stem;
},
{
origin = "{0, 16}";
target = "{0, 2}";
type = Stem;
}
);
layerId = "9AF1F7D9-E035-453E-B2A8-46DE370997D0";
paths = (
{
closed = 1;
nodes = (
"427 798 OFFCURVE",
"526 885 OFFCURVE",
"526 1007 CURVE SMOOTH",
"526 1169 OFFCURVE",
"388 1246 OFFCURVE",
"209 1218 CURVE",
"221 1377 LINE",
"504 1377 LINE",
"504 1449 LINE",
"156 1449 LINE",
"127 1120 LINE",
"209 1146 OFFCURVE",
"233 1154 OFFCURVE",
"305 1154 CURVE SMOOTH",
"386 1154 OFFCURVE",
"454 1089 OFFCURVE",
"454 1007 CURVE SMOOTH",
"454 926 OFFCURVE",
"386 870 OFFCURVE",
"305 870 CURVE SMOOTH",
"223 870 OFFCURVE",
"156 926 OFFCURVE",
"156 1007 CURVE",
"84 1007 LINE",
"84 885 OFFCURVE",
"182 798 OFFCURVE",
"305 798 CURVE SMOOTH"
);
}
);
width = 670;
}
);
leftKerningGroup = five.numr;
rightKerningGroup = five.numr;
unicode = 2075;
},
{
glyphname = sixsuperior;
lastChange = "2021-08-26 03:05:31 +0000";
layers = (
{
hints = (
{
horizontal = 1;
origin = "{0, 13}";
target = "{1, 11}";
type = Stem;
},
{
horizontal = 1;
origin = "{1, 5}";
target = "{0, 7}";
type = Stem;
},
{
origin = "{0, 10}";
target = "{0, 2}";
type = Stem;
}
);
layerId = "10BC12B3-5274-42E3-B5BC-F74F362F0DF4";
paths = (
{
closed = 1;
nodes = (
"456 798 OFFCURVE",
"562 887 OFFCURVE",
"562 1017 CURVE SMOOTH",
"562 1122 OFFCURVE",
"502 1206 OFFCURVE",
"384 1245 CURVE",
"502 1446 LINE",
"307 1446 LINE",
"113 1110 OFFCURVE",
"96 1091 OFFCURVE",
"96 1019 CURVE SMOOTH",
"96 887 OFFCURVE",
"199 798 OFFCURVE",
"329 798 CURVE SMOOTH"
);
},
{
closed = 1;
nodes = (
"305 954 OFFCURVE",
"274 964 OFFCURVE",
"266 1002 CURVE SMOOTH",
"257 1036 OFFCURVE",
"278 1082 OFFCURVE",
"329 1082 CURVE SMOOTH",
"360 1082 OFFCURVE",
"384 1062 OFFCURVE",
"391 1034 CURVE SMOOTH",
"401 993 OFFCURVE",
"370 954 OFFCURVE",
"329 954 CURVE SMOOTH"
);
}
);
width = 706;
},
{
hints = (
{
horizontal = 1;
origin = "{0, 13}";
target = "{1, 11}";
type = Stem;
},
{
horizontal = 1;
place = "{1180, 72}";
type = Stem;
},
{
origin = "{0, 10}";
target = "{1, 2}";
type = Stem;
},
{
origin = "{1, 8}";
target = "{0, 2}";
type = Stem;
}
);
layerId = "9AF1F7D9-E035-453E-B2A8-46DE370997D0";
paths = (
{
closed = 1;
nodes = (
"451 798 OFFCURVE",
"562 882 OFFCURVE",
"562 1019 CURVE SMOOTH",
"562 1161 OFFCURVE",
"425 1283 OFFCURVE",
"274 1245 CURVE",
"390 1446 LINE",
"306 1446 LINE",
"133 1154 OFFCURVE",
"96 1098 OFFCURVE",
"96 1019 CURVE SMOOTH",
"96 897 OFFCURVE",
"192 798 OFFCURVE",
"329 798 CURVE SMOOTH"
);
},
{
closed = 1;
nodes = (
"240 870 OFFCURVE",
"168 930 OFFCURVE",
"168 1017 CURVE SMOOTH",
"168 1108 OFFCURVE",
"240 1180 OFFCURVE",
"329 1180 CURVE SMOOTH",
"408 1180 OFFCURVE",
"490 1118 OFFCURVE",
"490 1019 CURVE SMOOTH",
"490 930 OFFCURVE",
"418 870 OFFCURVE",
"329 870 CURVE SMOOTH"
);
}
);
width = 706;
}
);
leftKerningGroup = six.numr;
rightKerningGroup = six.numr;
unicode = 2076;
},
{
glyphname = sevensuperior;
lastChange = "2021-08-26 03:05:31 +0000";
layers = (
{
hints = (
{
horizontal = 1;
origin = "{0, 4}";
target = "{0, 3}";
type = Stem;
},
{
origin = "{0, 4}";
target = "{0, 1}";
type = Stem;
}
);
layerId = "10BC12B3-5274-42E3-B5BC-F74F362F0DF4";
paths = (
{
closed = 1;
nodes = (
"348 818 LINE",
"614 1283 LINE",
"614 1446 LINE",
"120 1446 LINE",
"120 1278 LINE",
"420 1278 LINE",
"156 818 LINE"
);
}
);
width = 686;
},
{
hints = (
{
horizontal = 1;
origin = "{0, 4}";
target = "{0, 3}";
type = Stem;
}
);
layerId = "9AF1F7D9-E035-453E-B2A8-46DE370997D0";
paths = (
{
closed = 1;
nodes = (
"220 818 LINE",
"540 1377 LINE",
"540 1449 LINE",
"120 1449 LINE",
"120 1377 LINE",
"456 1377 LINE",
"136 818 LINE"
);
}
);
width = 612;
}
);
leftKerningGroup = seven.numr;
rightKerningGroup = seven.numr;
unicode = 2077;
},
{
glyphname = eightsuperior;
lastChange = "2021-08-26 03:05:31 +0000";
layers = (
{
hints = (
{
horizontal = 1;
origin = "{0, 23}";
target = "{1, 11}";
type = Stem;
},
{
horizontal = 1;
origin = "{2, 5}";
target = "{0, 11}";
type = Stem;
},
{
origin = "{0, 20}";
target = "{1, 2}";
type = Stem;
},
{
origin = "{1, 8}";
target = "{0, 2}";
type = Stem;
},
{
origin = "{0, 14}";
target = "{2, 2}";
type = Stem;
},
{
origin = "{2, 8}";
target = "{0, 8}";
type = Stem;
}
);
layerId = "10BC12B3-5274-42E3-B5BC-F74F362F0DF4";
paths = (
{
closed = 1;
nodes = (
"442 798 OFFCURVE",
"540 882 OFFCURVE",
"540 1005 CURVE SMOOTH",
"540 1060 OFFCURVE",
"521 1110 OFFCURVE",
"490 1149 CURVE",
"514 1182 OFFCURVE",
"528 1226 OFFCURVE",
"528 1269 CURVE SMOOTH",
"528 1386 OFFCURVE",
"432 1470 OFFCURVE",
"317 1470 CURVE SMOOTH",
"202 1470 OFFCURVE",
"108 1386 OFFCURVE",
"108 1269 CURVE SMOOTH",
"108 1226 OFFCURVE",
"122 1182 OFFCURVE",
"146 1149 CURVE",
"115 1110 OFFCURVE",
"96 1060 OFFCURVE",
"96 1005 CURVE SMOOTH",
"96 882 OFFCURVE",
"194 798 OFFCURVE",
"317 798 CURVE SMOOTH"
);
},
{
closed = 1;
nodes = (
"288 952 OFFCURVE",
"264 976 OFFCURVE",
"264 1005 CURVE SMOOTH",
"264 1036 OFFCURVE",
"288 1060 OFFCURVE",
"317 1060 CURVE SMOOTH",
"348 1060 OFFCURVE",
"372 1036 OFFCURVE",
"372 1005 CURVE SMOOTH",
"372 976 OFFCURVE",
"348 952 OFFCURVE",
"317 952 CURVE SMOOTH"
);
},
{
closed = 1;
nodes = (
"295 1228 OFFCURVE",
"276 1247 OFFCURVE",
"276 1269 CURVE SMOOTH",
"276 1293 OFFCURVE",
"295 1312 OFFCURVE",
"317 1312 CURVE SMOOTH",
"341 1312 OFFCURVE",
"360 1293 OFFCURVE",
"360 1269 CURVE SMOOTH",
"360 1247 OFFCURVE",
"341 1228 OFFCURVE",
"317 1228 CURVE SMOOTH"
);
}
);
width = 636;
},
{
hints = (
{
horizontal = 1;
origin = "{0, 23}";
target = "{1, 11}";
type = Stem;
},
{
horizontal = 1;
origin = "{1, 5}";
target = "{2, 11}";
type = Stem;
},
{
horizontal = 1;
origin = "{2, 5}";
target = "{0, 11}";
type = Stem;
},
{
origin = "{0, 20}";
target = "{1, 2}";
type = Stem;
},
{
origin = "{1, 8}";
target = "{0, 2}";
type = Stem;
},
{
origin = "{0, 14}";
target = "{0, 17}";
type = Stem;
},
{
origin = "{0, 5}";
target = "{0, 8}";
type = Stem;
}
);
layerId = "9AF1F7D9-E035-453E-B2A8-46DE370997D0";
paths = (
{
closed = 1;
nodes = (
"406 798 OFFCURVE",
"497 875 OFFCURVE",
"497 986 CURVE SMOOTH",
"497 1055 OFFCURVE",
"461 1115 OFFCURVE",
"408 1151 CURVE",
"451 1185 OFFCURVE",
"480 1238 OFFCURVE",
"480 1295 CURVE SMOOTH",
"480 1398 OFFCURVE",
"398 1468 OFFCURVE",
"295 1468 CURVE SMOOTH",
"194 1468 OFFCURVE",
"113 1398 OFFCURVE",
"113 1295 CURVE SMOOTH",
"113 1238 OFFCURVE",
"142 1185 OFFCURVE",
"185 1151 CURVE",
"132 1115 OFFCURVE",
"96 1055 OFFCURVE",
"96 986 CURVE SMOOTH",
"96 875 OFFCURVE",
"187 798 OFFCURVE",
"295 798 CURVE SMOOTH"
);
},
{
closed = 1;
nodes = (
"226 870 OFFCURVE",
"168 916 OFFCURVE",
"168 986 CURVE SMOOTH",
"168 1055 OFFCURVE",
"226 1113 OFFCURVE",
"295 1113 CURVE SMOOTH",
"367 1113 OFFCURVE",
"425 1055 OFFCURVE",
"425 986 CURVE SMOOTH",
"425 916 OFFCURVE",
"367 870 OFFCURVE",
"295 870 CURVE SMOOTH"
);
},
{
closed = 1;
nodes = (
"235 1185 OFFCURVE",
"185 1235 OFFCURVE",
"185 1295 CURVE SMOOTH",
"185 1358 OFFCURVE",
"235 1396 OFFCURVE",
"295 1396 CURVE SMOOTH",
"358 1396 OFFCURVE",
"408 1358 OFFCURVE",
"408 1295 CURVE SMOOTH",
"408 1235 OFFCURVE",
"358 1185 OFFCURVE",
"295 1185 CURVE SMOOTH"
);
}
);
width = 593;
}
);
leftKerningGroup = eight.numr;
rightKerningGroup = eight.numr;
unicode = 2078;
},
{
glyphname = ninesuperior;
lastChange = "2021-08-26 03:05:31 +0000";
layers = (
{
hints = (
{
horizontal = 1;
origin = "{0, 14}";
target = "{1, 11}";
type = Stem;
},
{
horizontal = 1;
origin = "{1, 5}";
target = "{0, 7}";
type = Stem;
},
{
origin = "{0, 10}";
target = "{1, 2}";
type = Stem;
},
{
origin = "{1, 8}";
target = "{0, 4}";
type = Stem;
}
);
layerId = "10BC12B3-5274-42E3-B5BC-F74F362F0DF4";
paths = (
{
closed = 1;
nodes = (
"324 818 LINE",
"506 1132 LINE SMOOTH",
"528 1170 OFFCURVE",
"538 1209 OFFCURVE",
"538 1247 CURVE SMOOTH",
"538 1370 OFFCURVE",
"439 1468 OFFCURVE",
"305 1468 CURVE SMOOTH",
"175 1468 OFFCURVE",
"72 1374 OFFCURVE",
"72 1247 CURVE SMOOTH",
"72 1146 OFFCURVE",
"137 1048 OFFCURVE",
"247 1022 CURVE",
"130 818 LINE"
);
},
{
closed = 1;
nodes = (
"281 1182 OFFCURVE",
"240 1197 OFFCURVE",
"240 1245 CURVE SMOOTH",
"240 1276 OFFCURVE",
"262 1312 OFFCURVE",
"305 1312 CURVE SMOOTH",
"336 1312 OFFCURVE",
"370 1281 OFFCURVE",
"370 1250 CURVE SMOOTH",
"370 1214 OFFCURVE",
"341 1182 OFFCURVE",
"305 1182 CURVE SMOOTH"
);
}
);
width = 658;
},
{
hints = (
{
horizontal = 1;
place = "{1015, 71}";
type = Stem;
},
{
horizontal = 1;
origin = "{1, 5}";
target = "{0, 7}";
type = Stem;
},
{
place = "{72, 74}";
type = Stem;
},
{
place = "{466, 73}";
type = Stem;
},
{
place = "{466, 37}";
type = Stem;
}
);
layerId = "9AF1F7D9-E035-453E-B2A8-46DE370997D0";
paths = (
{
closed = 1;
nodes = (
"325 818 LINE",
"503 1122 LINE",
"503 1125 OFFCURVE",
"505 1127 OFFCURVE",
"507 1132 CURVE",
"599 1286 OFFCURVE",
"483 1468 OFFCURVE",
"306 1468 CURVE SMOOTH",
"227 1468 OFFCURVE",
"147 1439 OFFCURVE",
"104 1362 CURVE SMOOTH",
"1 1187 OFFCURVE",
"162 971 OFFCURVE",
"361 1022 CURVE",
"243 818 LINE"
);
},
{
closed = 1;
nodes = (
"241 1086 OFFCURVE",
"171 1130 OFFCURVE",
"150 1206 CURVE SMOOTH",
"126 1310 OFFCURVE",
"203 1396 OFFCURVE",
"306 1396 CURVE SMOOTH",
"371 1396 OFFCURVE",
"440 1365 OFFCURVE",
"462 1288 CURVE",
"486 1182 OFFCURVE",
"409 1086 OFFCURVE",
"306 1086 CURVE SMOOTH"
);
}
);
width = 659;
}
);
leftKerningGroup = nine.numr;
rightKerningGroup = nine.numr;
unicode = 2079;
},
{
glyphname = fraction;
lastChange = "2021-08-26 03:05:31 +0000";
layers = (
{
hints = (
{
horizontal = 1;
origin = "{0, 3}";
target = up;
type = BottomGhost;
},
{
horizontal = 1;
origin = "{0, 2}";
target = down;
type = TopGhost;
}
);
layerId = "10BC12B3-5274-42E3-B5BC-F74F362F0DF4";
paths = (
{
closed = 1;
nodes = (
"-58 0 LINE",
"750 1400 LINE",
"508 1400 LINE",
"-300 0 LINE"
);
}
);
width = 450;
},
{
hints = (
{
horizontal = 1;
origin = "{0, 3}";
target = up;
type = BottomGhost;
},
{
horizontal = 1;
origin = "{0, 2}";
target = down;
type = TopGhost;
}
);
layerId = "9AF1F7D9-E035-453E-B2A8-46DE370997D0";
paths = (
{
closed = 1;
nodes = (
"-144 0 LINE",
"664 1400 LINE",
"594 1400 LINE",
"-214 0 LINE"
);
}
);
width = 450;
}
);
leftKerningGroup = frac_digits;
rightKerningGroup = fraction;
unicode = "2044,2215";
},
{
glyphname = period;
lastChange = "2021-08-26 16:39:55 +0000";
layers = (
{
hints = (
{
horizontal = 1;
origin = "{0, 11}";
target = "{0, 5}";
type = Stem;
},
{
origin = "{0, 8}";
target = "{0, 2}";
type = Stem;
}
);
layerId = "10BC12B3-5274-42E3-B5BC-F74F362F0DF4";
paths = (
{
closed = 1;
nodes = (
"312 -26 OFFCURVE",
"380 40 OFFCURVE",
"380 124 CURVE SMOOTH",
"380 206 OFFCURVE",
"312 274 OFFCURVE",
"230 274 CURVE SMOOTH",
"146 274 OFFCURVE",
"80 206 OFFCURVE",
"80 124 CURVE SMOOTH",
"80 40 OFFCURVE",
"146 -26 OFFCURVE",
"230 -26 CURVE SMOOTH"
);
}
);
width = 500;
},
{
hints = (
{
horizontal = 1;
origin = "{0, 11}";
target = "{0, 5}";
type = Stem;
},
{
origin = "{0, 8}";
target = "{0, 2}";
type = Stem;
}
);
layerId = "9AF1F7D9-E035-453E-B2A8-46DE370997D0";
paths = (
{
closed = 1;
nodes = (
"150 -26 OFFCURVE",
"170 -6 OFFCURVE",
"170 20 CURVE SMOOTH",
"170 44 OFFCURVE",
"150 64 OFFCURVE",
"124 64 CURVE SMOOTH",
"100 64 OFFCURVE",
"80 44 OFFCURVE",
"80 20 CURVE SMOOTH",
"80 -6 OFFCURVE",
"100 -26 OFFCURVE",
"124 -26 CURVE SMOOTH"
);
}
);
width = 290;
}
);
leftKerningGroup = period;
rightKerningGroup = period;
unicode = 002E;
},
{
glyphname = comma;
lastChange = "2021-08-26 03:05:31 +0000";
layers = (
{
hints = (
{
horizontal = 1;
origin = "{0, 3}";
target = "{0, 2}";
type = Stem;
},
{
origin = "{0, 3}";
target = "{0, 1}";
type = Stem;
}
);
layerId = "10BC12B3-5274-42E3-B5BC-F74F362F0DF4";
paths = (
{
closed = 1;
nodes = (
"280 -112 LINE",
"442 226 LINE",
"142 226 LINE",
"80 -112 LINE"
);
}
);
width = 562;
},
{
hints = (
{
origin = "{0, 3}";
target = "{0, 1}";
type = Stem;
}
);
layerId = "9AF1F7D9-E035-453E-B2A8-46DE370997D0";
paths = (
{
closed = 1;
nodes = (
"120 -112 LINE",
"202 226 LINE",
"142 226 LINE",
"80 -112 LINE"
);
}
);
width = 322;
}
);
leftKerningGroup = period;
rightKerningGroup = period;
unicode = 002C;
},
{
glyphname = colon;
lastChange = "2021-08-26 03:05:31 +0000";
layers = (
{
hints = (
{
horizontal = 1;
origin = "{1, 11}";
target = "{1, 5}";
type = Stem;
},
{
horizontal = 1;
origin = "{0, 5}";
target = "{0, 11}";
type = Stem;
},
{
origin = "{1, 8}";
target = "{1, 2}";
type = Stem;
}
);
layerId = "10BC12B3-5274-42E3-B5BC-F74F362F0DF4";
paths = (
{
closed = 1;
nodes = (
"312 700 OFFCURVE",
"380 766 OFFCURVE",
"380 850 CURVE SMOOTH",
"380 932 OFFCURVE",
"312 1000 OFFCURVE",
"230 1000 CURVE SMOOTH",
"146 1000 OFFCURVE",
"80 932 OFFCURVE",
"80 850 CURVE SMOOTH",
"80 766 OFFCURVE",
"146 700 OFFCURVE",
"230 700 CURVE SMOOTH"
);
},
{
closed = 1;
nodes = (
"312 -26 OFFCURVE",
"380 40 OFFCURVE",
"380 124 CURVE SMOOTH",
"380 206 OFFCURVE",
"312 274 OFFCURVE",
"230 274 CURVE SMOOTH",
"146 274 OFFCURVE",
"80 206 OFFCURVE",
"80 124 CURVE SMOOTH",
"80 40 OFFCURVE",
"146 -26 OFFCURVE",
"230 -26 CURVE SMOOTH"
);
}
);
width = 500;
},
{
hints = (
{
horizontal = 1;
origin = "{1, 11}";
target = "{1, 5}";
type = Stem;
},
{
horizontal = 1;
origin = "{0, 5}";
target = "{0, 11}";
type = Stem;
},
{
origin = "{1, 8}";
target = "{1, 2}";
type = Stem;
}
);
layerId = "9AF1F7D9-E035-453E-B2A8-46DE370997D0";
paths = (
{
closed = 1;
nodes = (
"150 910 OFFCURVE",
"170 930 OFFCURVE",
"170 956 CURVE SMOOTH",
"170 980 OFFCURVE",
"150 1000 OFFCURVE",
"124 1000 CURVE SMOOTH",
"100 1000 OFFCURVE",
"80 980 OFFCURVE",
"80 956 CURVE SMOOTH",
"80 930 OFFCURVE",
"100 910 OFFCURVE",
"124 910 CURVE SMOOTH"
);
},
{
closed = 1;
nodes = (
"150 -26 OFFCURVE",
"170 -6 OFFCURVE",
"170 20 CURVE SMOOTH",
"170 44 OFFCURVE",
"150 64 OFFCURVE",
"124 64 CURVE SMOOTH",
"100 64 OFFCURVE",
"80 44 OFFCURVE",
"80 20 CURVE SMOOTH",
"80 -6 OFFCURVE",
"100 -26 OFFCURVE",
"124 -26 CURVE SMOOTH"
);
}
);
width = 290;
}
);
leftKerningGroup = colon;
rightKerningGroup = colon;
unicode = 003A;
},
{
glyphname = semicolon;
lastChange = "2021-08-26 03:05:31 +0000";
layers = (
{
hints = (
{
horizontal = 1;
origin = "{0, 3}";
target = "{0, 2}";
type = Stem;
},
{
horizontal = 1;
origin = "{1, 5}";
target = "{1, 11}";
type = Stem;
},
{
origin = "{0, 2}";
target = "{0, 1}";
type = Stem;
}
);
layerId = "10BC12B3-5274-42E3-B5BC-F74F362F0DF4";
paths = (
{
closed = 1;
nodes = (
"280 -112 LINE",
"442 226 LINE",
"142 226 LINE",
"80 -112 LINE"
);
},
{
closed = 1;
nodes = (
"374 700 OFFCURVE",
"442 766 OFFCURVE",
"442 850 CURVE SMOOTH",
"442 932 OFFCURVE",
"374 1000 OFFCURVE",
"292 1000 CURVE SMOOTH",
"208 1000 OFFCURVE",
"142 932 OFFCURVE",
"142 850 CURVE SMOOTH",
"142 766 OFFCURVE",
"208 700 OFFCURVE",
"292 700 CURVE SMOOTH"
);
}
);
width = 562;
},
{
hints = (
{
horizontal = 1;
origin = "{1, 5}";
target = "{1, 11}";
type = Stem;
},
{
origin = "{1, 8}";
target = "{1, 2}";
type = Stem;
}
);
layerId = "9AF1F7D9-E035-453E-B2A8-46DE370997D0";
paths = (
{
closed = 1;
nodes = (
"120 -112 LINE",
"202 226 LINE",
"142 226 LINE",
"80 -112 LINE"
);
},
{
closed = 1;
nodes = (
"194 910 OFFCURVE",
"214 930 OFFCURVE",
"214 954 CURVE SMOOTH",
"214 980 OFFCURVE",
"194 1000 OFFCURVE",
"170 1000 CURVE SMOOTH",
"144 1000 OFFCURVE",
"124 980 OFFCURVE",
"124 954 CURVE SMOOTH",
"124 930 OFFCURVE",
"144 910 OFFCURVE",
"170 910 CURVE SMOOTH"
);
}
);
width = 334;
}
);
leftKerningGroup = colon;
rightKerningGroup = colon;
unicode = 003B;
},
